<?xml version="1.0" encoding="utf-8"?>
<!-- Generator: Adobe Illustrator 21.1.0, SVG Export Plug-In . SVG Version: 6.00 Build 0)  -->
<svg version="1.1" id="Layer_1" xmlns="http://www.w3.org/2000/svg" xmlns:xlink="http://www.w3.org/1999/xlink" x="0px" y="0px"
	 viewBox="0 0 47.4 47.4" style="enable-background:new 0 0 47.4 47.4;" xml:space="preserve">
<style type="text/css">
	.st0{fill:url(#SVGID_1_);}
	.st1{fill:#FFFFFF;}
</style>
<linearGradient id="SVGID_1_" gradientUnits="userSpaceOnUse" x1="161.0964" y1="171.5961" x2="76.7094" y2="231.1632" gradientTransform="matrix(0.7071 -0.7071 0.7071 0.7071 -202.7444 -34.8639)">
	<stop  offset="0" style="stop-color:#00D19D"/>
	<stop  offset="0.6081" style="stop-color:#00D1A8"/>
	<stop  offset="1" style="stop-color:#00D1B2"/>
</linearGradient>
<circle class="st0" cx="23.7" cy="23.6" r="23.5"/>
<g>
	
		<image style="overflow:visible;opacity:0.3;" width="110" height="142" xlink:href="7BF2BC02F391518C.png"  transform="matrix(0.24 0 0 0.24 10.5865 6.7883)">
	</image>
	<g>
		<g>
			<path class="st1" d="M13.7,32.8c0-1,0.9-1.9,1.9-1.9c0.4,0,0.9,0.2,1.2,0.4c1.8,1.4,4.2,2.6,7.1,2.6c4.3,0,5.8-2.2,5.8-4.1
				c0-2.8-3-3.6-6.4-4.5c-4.3-1.1-9.2-2.4-9.2-7.8c0-4.4,3.9-7.6,9.8-7.6c3.2,0,5.8,0.9,8.2,2.6c0.5,0.3,0.8,0.9,0.8,1.5
				c0,1-0.8,1.9-1.9,1.9c-0.4,0-0.8-0.2-1.1-0.4c-1.9-1.5-4.2-2.1-6.4-2.1c-3.3,0-5.3,1.5-5.3,3.8c0,2.4,2.9,3.2,6.2,4
				c4.4,1.2,9.4,2.5,9.4,8.2c0,4.2-2.9,8-10.1,8c-3.9,0-7-1.2-9.3-3.1C14,34,13.7,33.5,13.7,32.8z"/>
		</g>
	</g>
</g>
</svg>
