<?xml version="1.0" encoding="utf-8"?>
<!-- Generator: Adobe Illustrator 21.1.0, SVG Export Plug-In . SVG Version: 6.00 Build 0)  -->
<svg version="1.1" id="Layer_1" xmlns="http://www.w3.org/2000/svg" xmlns:xlink="http://www.w3.org/1999/xlink" x="0px" y="0px"
	 viewBox="0 0 402 402" style="enable-background:new 0 0 402 402;" xml:space="preserve">
<style type="text/css">
	.st0{fill:#EA5645;}
	.st1{fill:#CF3F2D;}
	.st2{fill:#D0402D;}
	.st3{fill:#CF3F2C;}
	.st4{fill:#CF402D;}
	.st5{fill:#D03F2D;}
	.st6{fill:#D1412F;}
	.st7{fill:#D34331;}
	.st8{fill:#E65442;}
	.st9{fill:#DA4835;}
	.st10{fill:#DA4734;}
	.st11{fill:#E95544;}
	.st12{fill:#E65343;}
	.st13{fill:#E65342;}
	.st14{fill:#E04F3D;}
	.st15{fill:#E14F3E;}
	.st16{fill:#EA5644;}
	.st17{fill:#E85544;}
	.st18{fill:#E65443;}
	.st19{fill:#E45140;}
	.st20{fill:#D54331;}
	.st21{fill:#E95644;}
	.st22{fill:#E85543;}
	.st23{fill:#E75543;}
	.st24{fill:#E35140;}
	.st25{fill:#E75443;}
	.st26{fill:#E95543;}
	.st27{fill:#E04F3E;}
	.st28{fill:#E35040;}
	.st29{fill:#E55341;}
	.st30{fill:#E55443;}
	.st31{fill:#E45242;}
	.st32{fill:#E65341;}
	.st33{fill:#D0412E;}
	.st34{fill:#D3412F;}
	.st35{fill:#D24130;}
	.st36{fill:#D24230;}
	.st37{fill:#D2412F;}
	.st38{fill:#D1402E;}
</style>
<rect class="st0" width="402" height="402"/>
<g id="_x36_VgcCG.tif">
	<g>
		<path class="st1" d="M67.1,117.8c-1.6-0.2-1.9-1.6-2.2-3c-0.2-1-0.5-1.8-1.8-2c-4.7-0.8-12.6,7.3-11.6,12c0.4,1.7,1.8,3.5-0.2,5
			c-2.2,1.7-3.7-0.5-5.3-1.4c-9-5.1-20.4-3.9-27.9,2.9c-8.1,7.5-10.6,18.2-5.6,27.7c2.4,4.6,3.3,8.1-1.3,11.4
			c-0.5,0.4-0.5,1.2,0.2,1.7c0.9,0.2,1.7-0.2,2.2-0.9c2.6-4.1,5.2-3.5,9.1-1.2c5.9,3.5,12.8,4.5,19.2,1.6c5.4-2.4,10.1-6.2,14.8,2
			c0.5-0.6,1.1-1.3,1.6-1.9c-7.7-4.7-4.6-9.7-1.9-14.9c2.3-4.3,1.8-9.1,0.6-13.7c-0.7-2.8-2-5.3-3.5-7.7c-1.6-2.7-0.5-5.4,2.5-4.4
			c7.4,2.5,9.9-2.5,12.8-7.2C70.6,121.2,72,118.5,67.1,117.8z"/>
		<path class="st1" d="M147,391c-8.3,0-16.6,0.1-25,0c-5.6-0.1-8.4-3.4-6.5-8.5c5.4-13.8,4.4-28.1,4.5-42.4
			c0-8.8,1.4-10.1,10.2-10.1c11.8,0,23.6,0,35.5,0c6.2,0,8,1.9,8.2,8c0.1,3.5,0.2,7,0,10.5c-0.6,10.9,0.8,21.5,3.9,32
			c2.4,8.2,0.4,10.5-8.3,10.5C162,391,154.5,391,147,391C147,391,147,391,147,391z"/>
		<path class="st1" d="M151.2,152.4c2.4,5.6,0.5,11-4.2,14.5c-3.2,2.4-5.6,5-7.7,8.2c-5.2,7.9-10.6,15.7-15.7,23.7
			c-2,3.2-3.8,4-7.2,2c-7.1-4.3-14.3-8.5-21.6-12.5c-3.2-1.8-3.4-3.5-1.7-6.8c5.2-10,9.9-20.3,14.9-30.4c1.7-3.5,0.5-7.6,3-11.2
			c4.5-6.6,12.2-9.1,19-5.2c6.1,3.4,12.1,7,18.1,10.5C150.8,146.6,152.9,148.4,151.2,152.4z"/>
		<path class="st2" d="M355.3,32.9c-0.7,0.1-1.2,0.5-1.5,0.8C354.3,33.5,354.8,33.2,355.3,32.9z"/>
		<path class="st2" d="M374,21.9c-1.9-0.7-2.4,1-3.2,2c-1,1.8-3.1,2.4-4.4,4c-1.3,1.6-2.8,3.3-0.8,5.2c2.3,2.1,3.8-0.1,5.3-1.5
			c-1.4,1.4-3.2,2.9-1.7,5.1c2.9,4.2,5.8-1.4,9.6-0.2c-4,2.5-4.3,5.9-3.6,9.5c-0.2,0.5-0.5,1-0.9,1.4c-3.6-1-7.3-2.8-9.4,2.8
			c-1.3-2.8,0.9-3.9,1.2-5.6c0.5-3.2-1.8-4.6-5.5-2.9c1.5-1.3,2-2.7,0.8-4.3c-2.7-2.1-4,0.3-5.5,1.6c1.3-1.5,3.6-2.9,1.5-5.5
			c-0.9-0.6-1.6-0.7-2.2-0.6c-0.5,0.3-1,0.6-1.5,0.8c0.3-0.3,0.8-0.7,1.5-0.8c4.6-3,7.2-9,12.2-12.6c2.5-1,1.6-3.6,2.6-5.3
			c0.5,0.2,0.9,0.4,1.4,0.5c1.3,0.3,2.4,2.7,3.7,0.8c0.9-1.3-0.8-2.3-1.7-3.3c-7.2-7.7-17.8-10.1-26.9-5.8c-3.3,1.6-6.5,3.9-9.6-0.3
			c-0.3-0.4-1.3-0.5-1.8-0.2c-0.8,0.4-0.6,1.3-0.1,1.7c4.8,3.5,1.6,6.8,0,10.3c-4.9,10.9-0.2,24.5,9.7,28.2c1-1.8-2.8-3.5-0.5-4.7
			c1.8-1,2.9,1.7,4.2,2.8c2.9,2.5,5.4,5.5,8.4,7.8c7.5,5.5,17.4,4.2,23.4-2.7c5.9-6.8,5.6-16.3-0.8-23.1
			C377.8,25.2,375.9,23.6,374,21.9z"/>
		<path class="st1" d="M342.5,332.8c-1.2-1.8-2-2.7-2.5-3.7c-1.1-2.4,0.1-4.6,1.3-6.6c1.2-2.1,3.2-1.1,4.9-0.7
			c4.9,1.1,9.7,4.1,14.5,3.2c3.9-0.7,7.1-0.1,10.6,0.8c4.6,1.2,6.1,3.9,4.9,8.6c-0.9,3.8-4.2,8.4-2,11.3c1.8,2.4,7,2.1,10.6,3.1
			c2.4,0.7,4.8,1.4,7.1,2.3c4.2,1.7,5.8,5.1,4.6,9.3c-1.2,4.3-4.7,6.1-8.9,5.4c-4.9-0.8-9.9-1.8-14.4-4.1c-2.9-1.5-4.4-0.4-5.1,2.4
			c-0.8,3.1-1.6,6.1-2.6,9.1c-1.2,3.8-3.7,5.4-7.7,4.3c-3.6-1-7-1.8-10.1-4.7c-3.5-3.2-8.9-3.4-13.6-4.4c-4-0.9-5.2-2.6-4-6.6
			c2.3-7.7,4.2-15.4,6.3-23.1C337.3,335.8,337.6,332.4,342.5,332.8z"/>
		<path class="st1" d="M307,56.4c-1.3,5.1-2.6,10.4-4.1,15.7c-1.8,6.6-3.4,13.2-5.4,19.7c-1.9,6.1-4.9,7.5-11,5.9
			c-13.7-3.7-27.4-7.2-41-10.9c-10.5-2.8-11.4-4.3-8.8-14.6c2.5-9.7,5.1-19.3,7.7-29c1.9-6.7,4.3-8.1,11-6.3
			c14.5,3.8,29,7.7,43.4,11.6C302.9,49.6,306.5,51.2,307,56.4z"/>
		<path class="st3" d="M263.1,388.8c-2.6,0.3-4,1.6-4.1,3.9c-0.2,4.6-2.8,6.4-7.2,6.3c-4.2,0-6.3-1.9-6.9-6.2
			c-0.6-4.5-3.3-5.4-6.8-2.4c-3.6,3.1-6.2,1.9-9-0.9c-2.8-2.8-3.3-5.4-0.5-8.7c3-3.5,2.1-6.2-2.5-6.8c-4.6-0.6-6.2-2.8-6.2-7.3
			c0-4.4,1.9-6.2,6.1-6.8c4.6-0.7,5.6-3.2,2.6-6.8c-3-3.5-2.2-6.2,0.8-9c2.8-2.7,5.4-3.4,8.7-0.6c3.8,3.2,6.2,2.2,7-2.8
			c0.6-4,2.5-5.8,6.6-5.8c4,0.1,6.7,1.1,7.4,5.6c0.8,5,3.1,6,7,2.9c3.4-2.7,6-1.8,8.8,0.9c2.8,2.7,3.6,5.3,0.8,8.6
			c-3.2,3.8-2.3,6.3,2.6,7c4.4,0.7,5.9,3.1,5.8,7.2c0,3.9-1.5,6.2-5.6,6.8c-5.3,0.9-6,3-2.6,7.3c2.6,3.2,1.7,5.7-0.9,8.3
			c-2.6,2.6-5.4,4-8.7,1.1C265.2,389.8,264.3,388.7,263.1,388.8z"/>
		<path class="st1" d="M74.4,229.4c-16.4-4.4-32.8-8.8-49.3-13.1c-4.5-1.2-7.1,0.6-8.3,5.3c-2.9,11.5-6.1,22.8-9.2,34.3
			c-1.4,5.1-0.1,7.4,5,9.1c3.2,1,6.5,1.6,9.6,2.7c1.8,0.6,5.2,0.2,4.7,3.2c-0.5,3.4-3.5,2.7-6.1,2.1c-1.5-0.3-3.1-1.6-4.6,0.1
			c4,3,29.2,9.9,36.9,10.1c-1.3-2.4-3.3-2.3-4.9-3c-2.1-0.8-3.7-2.1-2.9-4.4c0.8-2.3,2.8-1.2,4.3-0.8c4,1,8,2.1,12.1,3.2
			c3.5,0.9,6.1-0.4,7-3.8c3.4-12.5,6.7-25.1,9.9-37.7C79.7,233,78,230.4,74.4,229.4z"/>
		<path class="st1" d="M236,168.6c-0.1-3.7,2-5.9,5.3-6.9c9-2.5,17.9-4.9,27-7.3c4.2-1.1,7.4,0.5,8.5,4.7c4.4,16,8.7,32.1,12.9,48.2
			c1.2,4.6-1,7.8-5.6,9c-8.7,2.4-17.3,4.7-26,7c-4.1,1.1-7.6,0.1-8.8-4.2c-4.6-16.3-8.8-32.7-13.2-49.1
			C236,169.7,236.1,169.1,236,168.6z"/>
		<path class="st4" d="M117.9,272.6c0.6-5.3,1.1-10.9,1.8-16.5c1.1-8.4,6.3-13.8,14.3-15.3c5.9-1.1,6.7-3.9,6-8.9
			c-0.2-1.8-2-4.3,0-5.5c1.8-1,3.5,1.3,5.2,2.3c7.4,4.2,14.7,8.5,22,12.8c0.9,0.5,2.6,0.8,2.2,2.2c-0.2,0.7-1.5,1.2-2.3,1.7
			c-0.6,0.3-1.2,0.5-1.8,0.7c-6.7,2.8-6.8,2.8-5,9.9c1.8,7.2,0.4,13.4-5.2,18.6c-7.6,7-16.5,11.7-25.6,16.1c-3.6,1.7-9.8-2-10.3-5.9
			C118.6,280.9,118.3,276.9,117.9,272.6z"/>
		<path class="st1" d="M141.7,88.8c-3.3,0.4-4.9-0.7-5.5-2.9c-1.4-4.6-2.9-9.2-3.8-14c-1-5,2.2-7.3,7.2-5.9c5.7,1.7,10.9,1.4,14.6-4
			c1-1.4,2.2-2,3.8-1.8c11.3,1,22.5,1.9,33.8,2.9c4.9,0.4,5.6,4.3,6.1,7.9c0.6,3.8-3,3.4-5.1,4c-15.6,4.3-31.2,8.5-46.8,12.7
			C144.3,88.2,142.5,88.6,141.7,88.8z"/>
		<path class="st5" d="M189.9,40.6c0.1,4.5-2.4,6.7-5.8,5.5c-6.3-2.1-11.7-1.3-16.2,3.9c-1.1,1.3-2.5,1.4-4.1,1.2
			c-10.8-0.8-21.5-1.5-32.3-2.3c-3.5-0.3-5.7-2-6.7-5.6c-1-3.5,0-5.3,3.5-6.2c9.8-2.6,19.6-5.3,29.3-7.9c7.5-2,15.1-3.9,22.6-6.1
			c3.2-0.9,5.1-0.4,6,3C187.4,31.2,188.8,36.3,189.9,40.6z"/>
		<path class="st5" d="M194.9,138c-0.6,1.9-1.2,3.8-1.9,5.7c-0.4,1-0.4,2.8-2,2.2c-1.4-0.5-0.7-2-0.4-3.1c1.5-5.6,2.8-11.3,4.7-16.8
			c2.4-7.2,10.6-9.9,18.2-5.5c2,1.2,1.6,3.2,1.1,4.9c-4.7,17.5-9.5,35-14.3,52.4c-0.3,1.3-1.1,2.4-0.8,3.8
			c1.5,7.6-3.8,11.5-8.7,15.5c-1.9,1.5-3.3,1-4.2-1.3c-2.4-5.8-4.4-11.6,0.3-17.4c1-1.2,1-2.8,1.3-4.2c2.9-12.1,6-24.2,9-36.3
			c-0.2-2.2,0-4.3,0.6-6.2C197.3,134,196.5,136.1,194.9,138z"/>
		<path class="st2" d="M227.3,254.4c8.1-0.1,17.9,6.1,20.4,13.8c1.8,5.6,5.5,8.9,10.1,11.7c4.3,2.7,5.3,5.7,3,10
			c-0.9,1.6-1.6,3.2-2.1,5c-0.8,3-2.6,5-5.9,5.1c-3.3,0.1-5.7-1.4-6.7-4.3c-1.6-4.6-2.7-9.3-3.7-14c-0.5-2.3,0.6-4.3,2.4-5.8
			c1.8-1.5,2.1-3.1,1.4-5.3c-2.8-9.2-13.8-15.5-23.1-13.2c-10.3,2.6-17.5,12.7-15.7,22.4c0.4,2.5,0.9,4.9,4.4,4.9
			c2.6,0,4.1,2.2,4.8,4.5c1.3,4.5,2.5,9,3.7,13.5c0.9,3.2-0.4,5.6-3.2,7c-3.1,1.6-6.1,1.8-8.5-1.3c-0.9-1.2-2-2.2-3.3-3
			c-5.6-3.6-5.5-5.3-3-11.4c1.9-4.6,3.6-9.3,2.9-14.8C203.3,265.9,213.8,254.5,227.3,254.4z"/>
		<path class="st2" d="M322.4,155.8c0-4.4,2.5-7.8,4.1-11.5c1.2-2.9,1.4-5.3-0.5-7.9c-2-2.8-3-6-2.9-9.4c0-4.8,1.4-5.9,6.2-4.7
			c6.6,1.7,13.2,3.4,19.7,5.5c4.3,1.4,6.5,0.5,7.4-4.2c1.2-6,3-11.9,4.7-17.9c0.9-3.3,1.7-4.1,4.8-1.1c4.7,4.4,8.9,8.6,7.7,15.7
			c-1,6.3-5.8,11-12.8,12.3c-2.8,0.5-4.9,1.4-6.4,4c-1.3,2.3-3.4,4.1-5.8,5.3c-6,3.1-6.6,4.8-3.7,11c1,2.1,1.6,4.1,0,6.1
			c-1.4,1.6-3.3,2.2-5.4,1.7c-3.5-0.8-4.8-4.3-2.5-7.8c1.7-2.6,0.9-3.3-1.6-4.1c-4.3-1.3-8.2-2.4-9.6,3.7
			C325.3,153.8,324.7,155.5,322.4,155.8z"/>
		<path class="st4" d="M62,357c-0.2,8.1,1,9,7.3,7.7c7.1-1.5,10.7-0.3,13.1,4c1.3,2.3,1.3,4-1.2,5.4c-10.3,5.8-20.5,11.7-30.7,17.6
			c-2.2,1.3-3.7,0.5-5-1.5c-2-3.3-2-6.6,0-9.9c0.9-1.4,2.1-2.6,3.1-3.9c4.1-5.3,4-6-2.3-8.9c-5.9-2.8-8.8-7.7-9.1-13.9
			c-0.5-8.9,7.6-14.1,15.7-10.3C59.5,346.5,61.8,352,62,357z"/>
		<path class="st4" d="M50.8,72.9c17.8-0.2,31.3-14.3,30.1-31.6c-0.3-3.6-1.6-7.1-2.4-10.7c-0.2-1,0.8-2.6-0.9-2.9
			c-1.5-0.3-3,0.6-4,1.7c-1.5,1.7,0.5,2.1,1.4,2.9c1.7,1.4,2.2,3.3,2.6,5.3c1.8,10.5-0.8,19.6-9.3,26.4c-7.9,6.3-17,7.9-26.3,4.1
			c-5.2-2.1-11.1-4.4-11.6-11.6c-0.1-1.1-1-1.3-1.9-1.1c-1.3,0.3-2.5,1-3.3,2.1c-0.8,1.2,0,1.7,0.9,2.3c4.2,3.2,7.7,7.3,12.5,9.8
			c1,0.5,2.2,1.3,1.8,2.7c-0.4,1.5-1.8,1.1-2.9,1.1c-4.6,0-9.1,0.3-14,3.6c12.3,3.3,23.6,6.3,36,9.7c-2.3-5.3-5.9-7.6-9.5-9.9
			c-1.3-0.8-3.8-0.8-3.1-3.2C47.4,72,49.4,73,50.8,72.9z"/>
		<path class="st1" d="M334.2,252.8c1.4-3.8,0.8-6.7-0.5-9.7c-1.1-2.4-0.2-4.9,0.3-7.3c1.6-7.9,5.7-14.5,11.2-20.2
			c1.3-1.4,3.6-3.5,5-1.2c3,4.8,3.8,1.1,5.1-0.9c2.3-3.4,4-2.1,5.5,0.6c3.1,5.8,0.5,11.5-5.9,13.2c-3.6,1-3.6,1-5.9,3.5
			c2.7,1.4,5.4-1.5,8.4,0.1c-3.4,3.7-9.3,1.8-12.3,6.2c2.3,1.3,4-0.3,5.8-0.5c0.8-0.1,1.7-0.4,2.3,0.3c0.8,0.9,0.4,1.9-0.1,2.8
			c-1.7,2.9-4.2,5.1-7,6.9C342.3,249.1,337.2,248.5,334.2,252.8z"/>
		<path class="st2" d="M74,43.3c0,13-9.7,22.8-22.6,22.7C39,66,29,55.9,29,43.4c0-12.5,10-22.4,22.6-22.4C64.4,21,74.1,30.5,74,43.3
			z"/>
		<path class="st5" d="M318.9,280.2c-0.3-4.2,2.5-7.7,6.2-10.5c1.7-1.3,2.3-1.8,0.5-3.9c-3-3.7-1.6-6.6,3.2-7.9
			c1.1-0.3,2.3-0.6,3.4-0.9c7.2-1.9,7.7-1.7,7.9,5.7c0.1,3,1.9,2.1,3.3,2.4c5.3,1,9.2,3.6,11.2,8.8c0.8,2,0.3,3.2-1.7,3.7
			c-10,2.6-19.9,5.4-29.9,7.9C319,286.5,319.1,283.6,318.9,280.2z"/>
		<path class="st2" d="M69.2,343.3c2.2-2.7,2.1-5.1,2.9-7.3c0.7-1.9,1.3-3.9,3.4-4.7c4.4-1.9,4.4-4.7,2-8.3c-2-3.1-3.8-6.3-5.5-9.5
			c-1.4-2.5-3-3.2-5.7-1.7c-8.6,5.1-17.3,10-25.9,15.1c-3.4,2-1.2,4.2-0.2,6.4c0.5,1.2,2.5,2.8,0.6,3.7c-1.6,0.8-2.3-1.4-3.1-2.6
			c-3.7-6.1-3.4-7.2,2.9-10.8c8.4-4.8,16.8-9.6,25.1-14.6c3.7-2.2,6.1-1.7,8.1,2.1c2.6,4.8,5.4,9.6,8.1,14.3
			c1.3,2.2,1.2,4.5-1.2,5.5c-5.8,2.5-6.8,7.6-8,12.9c-0.4,1.6-0.1,4.1-2.5,4.4c-2,0.2-2.5-2-3.2-3.4c-1.2-2.2-2.2-4.3-5.3-2.7
			c-0.6,0.3-1.4,0.2-1.7-0.5c-0.5-0.9,0.2-1.5,0.9-2C65,336.7,67.3,339.1,69.2,343.3z"/>
		<path class="st6" d="M349.7,125.3c-6.3-1.7-12.5-3.4-18.8-5.2c-1-0.3-2.6-0.5-2-2.2c0.4-1,1.7-0.8,2.7-0.5
			c6.3,1.7,12.5,3.4,18.7,5.2c0.9,0.3,2.1,0.7,1.8,1.9C351.9,126,350.6,125.5,349.7,125.3z"/>
		<path class="st7" d="M370.1,15c-1.3,1.3-2.7,2.7-4,4c1.1,3.1-2,3.9-3.3,5.7c-1,1.5-2.6,2.8-1,4.5c1.6,1.8,3.2,0.8,4.7-0.6
			c1.6-1.6,3-3.7,5.6-3.6c0.7-1,1.3-2,2-3.1C372.7,19.7,369.9,18.2,370.1,15z"/>
		<path class="st8" d="M194.9,138c1.2-4.8,1.5-9.9,4.9-14c0.7,5-1,9.6-2.8,14.1C196.3,138,195.6,138,194.9,138z"/>
		<path class="st9" d="M60.7,329.9c-0.6,0.2-1,0.4-1.4,0.5c-0.1-0.4-0.3-0.8-0.3-1.2c0-0.1,0.6-0.5,0.7-0.4
			C60,329,60.3,329.4,60.7,329.9z"/>
		<path class="st10" d="M66.4,325.9c-0.2,0.5-0.4,1-0.5,1c-0.4-0.1-0.8-0.3-1.1-0.5c-0.1,0,0.2-0.8,0.4-0.7
			C65.5,325.6,65.9,325.8,66.4,325.9z"/>
		<path class="st11" d="M52.4,138.2c-0.7-1.2-1.4-3.1-3.4-2c-1.4,0.8-1.9,2.3-1.5,3.9c0.3,1.1,1,2.1,1.4,3.2
			c2,5.8,1.5,11.1-2.6,15.9c-5.8,6.6-14,7.6-21.6,2.5c-6-4-8.3-12.2-5.3-18.6c4.1-8.5,11.7-12,20.1-9.1c1.6,0.5,3.1,1.2,4.7,1.6
			c1,0.2,2-0.4,2.5-1.3c0.6-1.1,0.1-2-0.7-2.6c-1-0.8-2.1-1.6-3.3-2.1c-7.8-3.5-18.9-1.1-24.4,5.1c-6.5,7.5-7.3,17.8-2,25.9
			c5.3,8.2,14.4,11.5,24,8.8c9-2.5,14.7-10.4,14.8-20.9C55.3,145.2,54.5,141.5,52.4,138.2z"/>
		<path class="st11" d="M46.2,144.3c-0.5-1.2-0.8-2.8-2.6-2.3c-1.4,0.4-2.2,1.6-2.2,3c0,0.8,0.3,1.6,0.3,2.5
			c0.4,5.3-2.7,9.3-7.3,9.4c-4.2,0-8.2-3.8-8.2-7.8c0-4.7,4.2-8.2,9.7-7.8c2.2,0.5,4.9,0.9,5.2-2c0.2-2.8-2.7-2.9-4.8-3.2
			c-1.3-0.2-2.7-0.1-4,0c-7.7,1-12.7,8.4-11,16.1c1.7,7.4,9.7,11.8,17.2,9.3C45.1,159.4,48.9,150.9,46.2,144.3z"/>
		<path class="st12" d="M39,147c1.1,3.1-0.1,5.2-2.8,6.5c-1.9,0.9-4,0.7-5.6-0.8c-1.8-1.7-1.9-3.9-1-6c1.3-2.8,3.9-2.7,6.4-2.7
			C36.5,145.5,36.8,147.2,39,147z"/>
		<path class="st13" d="M60.3,128.8c-1.3-0.1-2.7-0.4-2.2-1.6c1.1-2.9,3.6-4.6,6.3-5.8c1-0.4,2.1,0.4,1.7,1.6
			C65.1,125.9,63.2,128,60.3,128.8z"/>
		<path class="st7" d="M39,147c-1.1,1.2-2.1,2.4-3.3,3.6c-0.9,0.9-2,1.2-3,0.3c-1.2-1.1-1-2.3,0.1-3.4c1.1-1.1,2.8-1.7,3.3-3.5
			C37,145,38,146,39,147z"/>
		<path class="st14" d="M57,122c-0.2,1.4-0.1,2.8-1.7,2.9c-1.1,0.1-1.2-1-1.1-1.8c0-1.1,0.1-2.6,1.4-2.8C57,120,56.6,121.5,57,122z"
			/>
		<path class="st15" d="M61.7,118.5c-0.2,0.8-0.5,1.6-1.6,1.5c-0.8-0.1-0.9-0.9-0.8-1.5c0.1-0.9,0.5-1.6,1.5-1.5
			C61.6,117.1,61.7,117.8,61.7,118.5z"/>
		<path class="st0" d="M146.5,383c-7.6,0-15.3-0.1-22.9,0c-3.9,0.1-5.6-0.8-4.1-5.1c4-11.7,0.7-10.9,14.7-10.9
			c10.6,0,21.3,0.1,31.9-0.1c4-0.1,6,1.2,7,5.2c2.7,10.9,2.9,10.8-8.2,10.8C158.8,383,152.6,383,146.5,383z"/>
		<path class="st11" d="M146.8,364c-6.3,0-12.7-0.1-19,0c-3.4,0.1-4.8-1.3-4.8-4.7c0.1-7.2,0.1-14.3,0-21.5c0-4,1.9-5.8,5.8-5.8
			c12.2,0,24.3,0,36.5,0c3.9,0,5.8,1.7,5.7,5.7c-0.1,7.2-0.1,14.3,0,21.5c0,3.4-1.4,4.8-4.8,4.8C159.8,364,153.3,364,146.8,364z"/>
		<path class="st11" d="M119.5,386.5c18.3,0,36.7,0,55,0c0,0.3,0,0.7,0,1c-18.3,0-36.7,0-55,0C119.5,387.2,119.5,386.8,119.5,386.5z
			"/>
		<path class="st16" d="M126.3,189.8c-1.3,2-2.9,4.4-4.4,6.7c-2.4,3.9-4.8,1.2-7.1-0.1c-5.5-3-11-6.1-16.4-9.3
			c-3.8-2.3-3.5-4.6,0-11.1c2.1-3.8,4.2-1.8,6.5-0.5c6.2,3.5,12.3,7.1,18.5,10.7C124.7,186.9,126.2,187.4,126.3,189.8z"/>
		<path class="st11" d="M135,176.2c-1.6,3-2.9,6.5-5.8,8.6c-2.6,1.8-4.6-1.1-6.6-2.2c-5.9-3.2-11.5-6.6-17.3-10
			c-5.8-3.4-1-6.8,0-10.1c1.1-3.5,3.5-3.3,6.3-1.7c6.7,4,13.5,7.8,20.3,11.8C133.2,173.4,135.1,174,135,176.2z"/>
		<path class="st11" d="M116.2,139.7c1.1,0.5,2.2,0.9,3.2,1.4c8.9,5.1,17.8,10.3,26.8,15.4c2.2,1.3,3.2,2.7,1.8,5.2
			c-1.3,2.3-2.9,2.9-5.3,1.5c-9.3-5.5-18.6-10.9-27.9-16.4c-1.5-0.9-2.8-1.9-2-3.9C113.3,141.4,114.1,139.9,116.2,139.7z"/>
		<path class="st11" d="M136.5,171.6c-1-0.4-2.3-0.9-3.4-1.5c-7.1-4-14.1-8.1-21.2-12.1c-2.3-1.3-3-2.8-1.8-5.2
			c1.4-2.7,3.2-3,5.7-1.5c7.6,4.4,15.3,8.8,22.9,13.1c1.5,0.9,3.1,1.7,1.9,3.8C139.9,169.8,139,171.5,136.5,171.6z"/>
		<path class="st17" d="M124.4,134.6c0.7,0.4,1.6,0.8,2.4,1.3c6.2,3.6,12.3,7.1,18.5,10.7c1.3,0.7,2.8,1.3,3.3,2.8
			c0.4,1.1,0.5,2.3-0.3,3.3c-0.8,1-1.9,0.5-2.7,0c-7.8-4.4-15.5-8.8-23.3-13.3c-1-0.6-2-1.4-1.4-2.8
			C121.6,135.4,122.7,134.7,124.4,134.6z"/>
		<path class="st11" d="M380.8,34c-1.1-3.3-2.6-3.9-5.3-1.2c-1.3,1.4-2.4,3.6-5.1,3.1c0.1-4,5.1-4.9,5.1-9.1c-3.1,0.7-4.4,3-6.3,4.5
			c-0.6,0.5-1.4,1.3-2.2,0.7c-1.1-0.9-0.3-1.9,0.3-2.6c1.5-1.5,3.1-2.9,4.7-4.4c-2.6-3.1-3.4,0.5-4.9,1.3c-1.3,0.7-2.5,3.3-3.9,1.7
			c-1.4-1.5,1.1-2.6,2-3.8c0.7-0.9,1.7-1.6,2.3-2.6c1.1-1.7-0.1-2.3-1.6-2.6c-0.7,0.9-1.4,1.8-2.2,2.7c-4.9,5-9.8,9.9-14.7,14.8
			c-0.8,0.8-2.1,1.9-1.2,2.9c1.4,1.6,2.3-0.3,3.2-1c1.9-1.6,3.3-3.8,5.9-4.4c0.3,2.4,1.7,3.8,4.1,4c-0.4,3.7-5.4,4.8-5.5,8.9
			c2.4,0.5,3-1.4,4.3-2.3c1.2-0.9,2.4-3.3,4-1.7c1.3,1.3-0.9,2.5-1.8,3.5c-3.3,3.8-2.7,5.9,2.2,7c4.2,1,5.3-0.2,4.8-5.9
			c2.6,0.7,4.1,3.7,7,3.4c0.6-1.4,0.8-3.2,3-3c1.5-3-3.4-4-2.3-6.9c1.8-1,3.1,2.2,4.6,0.6c1.4-1.6,0.6-3.8,0.2-5.7
			C381.3,35.3,381,34.7,380.8,34z"/>
		<path class="st11" d="M361.6,14.4c-9.4-4-20.4,3.4-20.3,14.1c0.2,0.8,0.4,2.1,0.7,3.4c1.3,4.9,2.4,5.2,6,1.5
			c4.8-4.8,9.6-9.6,14.4-14.4C364.6,17,364.4,15.6,361.6,14.4z"/>
		<path class="st18" d="M351,8.4c-7.8,1.5-14,8.9-14.9,16.9c-0.8,6.7,1,11.4,5.9,14.1c-3.6-8.8-5.2-16.9,2-23.9
			c7.3-7.1,15.6-5.2,24.1-2.2C363.4,7.4,357.3,7.2,351,8.4z"/>
		<path class="st19" d="M356.9,34c1.4,1.3,2.7,2.7,4.1,4c-3.1,0.1-4.1,3-6.1,4.5c-0.9,0.7-1.7,2-2.9,1c-1.4-1.2-0.3-2.4,0.5-3.4
			C353.9,38.1,356.9,37.1,356.9,34z"/>
		<path class="st20" d="M376,51c0-0.2-0.1-0.3-0.1-0.5c-0.4-2.4-4.9-4.1-2.9-5.9c2.1-1.9,3.8,2.5,6.1,3.3C378,49,377,50,376,51z"/>
		<path class="st11" d="M388.5,363.3c-5-1-9.9-2.3-14.7-4.4c-4.5-2-6.2-1.2-7.7,3.6c-0.8,2.7-1.3,5.5-2.2,8.2
			c-1.3,4.3-7.3,5.6-10.5,2.5c-1.2-1.2-0.8-2.4-0.4-3.7c3.4-12.9,6.9-25.7,10.2-38.6c0.7-2.7,1.9-4.1,4.9-3.2c3,0.9,6.2,1.5,5.5,5.6
			c-0.5,3.1-1.5,6.1-2.1,9.2c-1.1,5.1,0,6.7,5.1,7.4c5,0.6,9.8,1.7,14.5,3.7c2.7,1.1,3.7,3.3,2.9,6.1
			C393.2,362.4,391.1,363.2,388.5,363.3z"/>
		<path class="st16" d="M335.6,353.7c2.1-1.7,4.1,0.2,5.8-0.9c0-2.8-4.3-2.2-4.1-5c0.2-2.1,1-4.2,1.3-6.3c0.7-4.4,2.8-6.1,7.3-4.5
			c1.2,0.4,3.1,1.6,4-0.3c0.6-1.4-1.2-2.1-1.9-3.2c-1.7-2.5-6.9-4-4.4-7.8c2.1-3.2,5.8,0.1,8.6,0.8c10,2.4,9.1,0.8,6.6,10.9
			c-2.3,9.3-5.1,18.6-7.4,28c-0.9,3.8-2.7,4.5-6.1,3.4c-2.7-0.9-5.4-1.5-8.1-2.3c-1.2-0.4-3.3-0.4-2.9-1.9c0.5-2,2.5-0.7,3.8-0.4
			c2.2,0.5,4.4,1.6,7.2,0.5c-2.8-3.4-7.3-2.4-10.4-5c3-3,6.3,1.5,9.4-0.7C342.1,355.6,337.8,356.7,335.6,353.7z"/>
		<path class="st0" d="M289.5,95.7c-3.3-0.9-6.8-1.8-10.3-2.7c-11.9-3.2-23.8-6.5-35.7-9.6c-4.5-1.2-6.1-3.4-4.9-7.9
			c1.9-6.7,3.6-13.5,5.3-20.3c0.7-2.9,2-4.3,5.3-3.4c16.1,4.4,32.1,8.6,48.2,12.9c3,0.8,4.2,2.2,3.3,5.4c-2,7-3.9,14.1-5.8,21.2
			C294.2,93.9,292.8,95.7,289.5,95.7z"/>
		<path class="st11" d="M303.9,56.5c-0.2,5.3-1.7,6.7-6.4,5.4c-15.6-4.1-31.2-8.3-46.8-12.4c-3-0.8-4.8-1.8-3.8-5.4
			c1-3.3,2.4-5.7,6.3-4.7c15.8,4.1,31.5,8.4,47.3,12.6C303.1,52.6,304.1,54.2,303.9,56.5z"/>
		<path class="st21" d="M234.3,344.6c0.6,0.4,1.5,0.9,2.2,1.5c5,3.8,10.4,1.8,11.4-4.4c0.4-2.7,1.7-3.7,4.3-3.7
			c2.5,0.1,3.4,1.3,3.8,3.7c1,6.3,6.5,8.5,11.2,4.5c2.1-1.8,3.6-1.8,5.5,0.1c1.9,1.9,1.8,3.4,0,5.5c-3.8,4.5-1.7,10.3,4.2,11.2
			c2.6,0.4,3.9,1.3,4,4c0,2.7-1.2,3.7-3.9,4.1c-5.9,0.9-8.2,6.7-4.4,11.1c1.7,2,2.1,3.5,0.1,5.5c-2.1,2.2-3.7,1.8-5.9-0.1
			c-4.2-3.7-10.1-1.4-10.9,4.1c-0.4,2.8-1.2,4.3-4.3,4.2c-2.8-0.1-3.5-1.6-3.9-4.1c-0.8-5.7-6.7-7.8-11.3-4
			c-2.2,1.8-3.6,1.6-5.5-0.2c-2-2-1.7-3.5,0-5.5c3.9-4.5,1.7-10.3-4.2-11.1c-2.6-0.4-4-1.2-4-4c0-2.7,1.1-3.8,3.8-4.2
			c6.2-0.9,8.1-6.4,4.2-11.5c-1-1.2-2-2.4-0.8-3.9C231.2,346.3,232.2,344.9,234.3,344.6z"/>
		<path class="st17" d="M71.4,231.1c-14.9-4-29.9-7.9-44.8-12.1c-4.4-1.2-6.4-0.2-7.5,4.3c-2.6,10.3-5.5,20.6-8.3,30.8
			c-1.8,6.6-1.6,7.4,5,9.2c14,3.8,28,7.5,41.9,11.3c7.3,2,7.9,1.6,9.9-5.9c0.5-2.1,1.2-4.2,1.7-6.3c2.3-8.8,4.7-17.7,6.9-26.2
			C76.3,232.6,73.9,231.8,71.4,231.1z"/>
		<path class="st22" d="M34.4,271.1c1.2,0.4,3.6,1.2,5.9,2.1c1.2,0.5,1.7,1.7,1.3,2.9c-0.4,1.5-1.6,1.6-2.8,1.3
			c-2.3-0.5-4.5-1-6.8-1.7c-1.4-0.4-3.1-1-2.5-3C30.1,270.9,31.6,270.6,34.4,271.1z"/>
		<path class="st0" d="M285.4,200c0,2-1.2,2.7-2.8,3.1c-9.8,2.6-19.6,5.3-29.4,8c-2.5,0.7-3.7-0.3-4.3-2.6c-2.6-9.8-5.3-19.6-8-29.4
			c-0.7-2.6,0.4-3.8,2.7-4.4c9.8-2.6,19.6-5.2,29.4-7.8c1.6-0.4,3.2-0.5,3.7,1.4C279.6,178.8,282.5,189.4,285.4,200z"/>
		<path class="st11" d="M256.1,220.8c-2.7,0.1-4.2-1.3-4.7-3.7c-0.6-2.6,1.3-3.5,3.3-4.1c9-2.4,18-4.8,27-7.2c2.4-0.6,4.7-1.3,5.6,2
			c0.9,3.1-0.6,4.9-3.4,5.6c-8.8,2.4-17.7,4.8-26.5,7.1C257,220.7,256.5,220.8,256.1,220.8z"/>
		<path class="st17" d="M274.8,161.2c-0.2,2.8-2.3,3.1-4.2,3.6c-8.8,2.4-17.6,4.8-26.4,7.2c-2.4,0.7-4.7,1.3-5.6-2
			c-0.8-2.9,0.5-4.9,3.2-5.8c5.2-1.6,10.5-2.9,15.8-4.3c3.7-1,7.3-2.1,11.1-2.8C271.9,156.6,274.3,157.7,274.8,161.2z"/>
		<path class="st11" d="M121.1,273.1c-0.5-5.4,0.5-10.6,1-15.9c0.8-10.7,15.3-18.5,24.6-12.7c6.9,4.4,11.8,8.7,11.5,17.5
			c-0.2,5.1-2,9.1-5.9,12.1c-6.8,5.1-13.9,9.8-21.7,13.2c-1.2,0.5-2.5,1.7-3.6,0.2c-0.8-1.1,0.3-2.2,0.9-3.2
			c3.1-5.5,6.3-11,9.3-16.5c1.1-2,2.8-2.5,4.8-3c4.2-1,6.7-4.8,5.3-8.1c-1.4-3.4-4-5.4-7.9-4.4c-3.8,0.9-5.6,5-3.9,9.2
			c0.7,1.7,0.8,3.1-0.2,4.7c-3.3,5.6-6.5,11.2-9.8,16.8c-0.6,1-1.1,2.3-2.5,2.1c-1.8-0.2-1.8-1.8-1.8-3.1
			C121,279.1,121.1,276.1,121.1,273.1z"/>
		<path class="st11" d="M143.4,230.6c6.2,3.6,12.2,7.1,18.2,10.7c2.3,1.4,1.6,2.5-0.3,3.6c-2.9,1.7-5.6,2.4-8.8,0.2
			C147.5,241.6,140.7,239.7,143.4,230.6z"/>
		<path class="st22" d="M140.8,262.2c-2.3-0.2-3.5-1.7-3.4-3.9c0.1-2.3,1.7-3.5,3.9-3.5c2.4,0,3.6,1.6,3.5,3.9
			C144.7,261.1,143.1,262,140.8,262.2z"/>
		<path class="st11" d="M176.2,64.6c-2.2,2-4.1,2.1-5.8,2.6c-1.6,0.5-3.6,1-4.2,2.5c-3.4,8.8-12,7.4-18.6,8.7
			c-4.1,0.8-7.9-4-11.9-6.1c-0.8-0.4-0.7-1.8-0.2-2.8c0.6-1.1,1.6-1.1,2.6-0.8c6.9,2.6,12.7,0.2,18-4.1c0.5-0.4,1.1-0.7,1.7-1
			c2,3.4,5.8-0.1,8.1,2.1c1.1,1,1.8,0.1,2.6-0.4C170.6,63.6,173,63.9,176.2,64.6z"/>
		<path class="st23" d="M194.9,70.2c-0.3,2.1-2.1,2.1-3.4,2.4c-16.2,4.4-32.4,8.8-48.6,13.1c-1.1,0.3-2.9,1.2-3.3-0.7
			c-0.2-1.3,1.4-1.6,2.5-1.9c15.7-4.3,31.4-8.6,47.1-12.8C191,69.9,193,68.7,194.9,70.2z"/>
		<path class="st13" d="M167,73.5c6.1-6.6,17.8-9.6,25.1-6.7C183.8,69.5,176.2,71.7,167,73.5z"/>
		<path class="st24" d="M142,79.3c-0.3,1.5-1.5,1.7-2.6,1.8c-2,0.1-2.4-1.3-2.5-2.9c-0.1-0.9,0.4-1.7,1.4-1.6
			C139.9,77,141.2,77.8,142,79.3z"/>
		<path class="st11" d="M146.7,46.2c5.6-1.4,9.9-2.9,12.1-8.1c1.2-2.7,5.5-1.8,8.1-3.2c7.6-4.3,13.2,0.7,19.2,3.7
			c1.3,0.6,1.8,2,1.3,3.4c-0.6,1.7-2,1.4-3.4,1c-6.8-1.9-12.8-0.7-17.9,4.4c-1.1,1.1-2.6,2.1-3.6,0c-0.9-2.1-2.2-0.7-3.1-1
			C155.4,45.3,151.6,49.2,146.7,46.2z"/>
		<path class="st25" d="M183.2,27c-0.6,1.5-1.8,1.7-2.9,2c-16.4,4.4-32.8,8.8-49.2,13.2c-1.1,0.3-2.6,1-3.1-0.3
			c-0.7-1.9,1.3-2.1,2.4-2.4c16.4-4.5,32.8-8.9,49.2-13.3C180.7,25.8,182.4,24.9,183.2,27z"/>
		<path class="st8" d="M155,38.7c-5.6,6.2-17.4,9.1-25.3,6.2C138.5,42.8,146.1,40,155,38.7z"/>
		<path class="st24" d="M185.5,33.2c-0.2,1.3-1,1.6-2.1,1.5c-1.2-0.2-2.4-0.8-2.5-2.1c-0.1-1.6,1.4-1.7,2.5-1.7
			C184.8,30.9,185.5,31.8,185.5,33.2z"/>
		<path class="st11" d="M206.3,146.1c-2.4,9-4.8,18-7.3,27c-0.7,2.6-2.7,3.1-5.1,2.4c-2.3-0.7-3.2-2.3-2.6-4.6
			c2.3-8.8,4.7-17.7,7.1-26.5c0.7-2.6,2.2-3,4.5-2.3C205.1,142.6,206.9,143.3,206.3,146.1z"/>
		<path class="st26" d="M200.9,135.3c1.1-3.8,2.1-7.7,3.2-11.5c0.6-2.1,2.2-2.8,4.3-2.3c2.2,0.5,3.9,1.6,3.3,4.1
			c-0.9,4-2,8.1-3.2,12c-0.8,2.5-2.8,2.5-4.9,1.8C201.5,138.7,200.4,137.6,200.9,135.3z"/>
		<path class="st25" d="M192,192.1c-0.8-1.8,0.5-3.4-0.7-4.9c-2.1,0-1.4,2.7-2.9,3.3c-2.3-3.8-2-8.7,0.8-10.4
			c2.6-1.6,4.8-0.9,6.6,1.4C198.1,184.4,196.9,187.8,192,192.1z"/>
		<path class="st11" d="M206.4,292.7c-0.4-3.3,1-4.6,3.1-5.2c2-0.6,3.7,0,4.3,2.1c1.3,4.6,2.6,9.2,3.7,13.9c0.5,2-0.4,3.7-2.5,4.2
			c-2,0.5-4.2,0.5-4.9-2C208.7,301.2,207.5,296.5,206.4,292.7z"/>
		<path class="st11" d="M255.9,292.1c0,2.8-0.5,5-3.1,5.4c-2.3,0.4-3.8-1.2-4.4-3.2c-1.1-3.8-2.2-7.6-3.1-11.5
			c-0.6-2.5,0.3-4.8,3.1-5.3c2.6-0.5,3.9,1.3,4.6,3.6C254,284.8,255,288.7,255.9,292.1z"/>
		<path class="st27" d="M256.9,282.7c2.5,0.6,3,2,2.6,3.8c-0.1,0.7-0.7,1.5-1.4,1C256.6,286.5,256.6,284.8,256.9,282.7z"/>
		<path class="st28" d="M204,296.8c1.5,1.9,2.3,3.2,1.3,4.9c-0.1,0.2-1,0.2-1.2,0C202.7,300.4,202.9,298.9,204,296.8z"/>
		<path class="st11" d="M341.2,141c-7.8,0-13.8-4.4-15-10.6c-0.8-4.2,0.6-5.7,4.7-4.7c6.5,1.6,12.8,3.4,19.3,5
			c3.4,0.8,3.6,2.4,1.6,4.9C348.9,139.2,345.5,141.6,341.2,141z"/>
		<path class="st11" d="M371,117.5c-0.1,5.7-3.8,10.7-8.3,12c-3.2,0.9-5,0-4.1-3.7c1.3-5.1,2.7-10.2,4.1-15.3c1-3.5,2.9-3.2,4.9-0.8
			C369.7,112.1,371.3,114.8,371,117.5z"/>
		<path class="st29" d="M337.2,146.8c-2.2-0.8-4.9-0.6-6.8-2.5c-0.2-0.2-0.2-1.2,0-1.3c2.6-1.6,4.7,0.7,7.1,0.9
			c1.1,0.1,2.7,0.2,2.6,1.7C340,147.1,338.5,146.8,337.2,146.8z"/>
		<path class="st30" d="M340.6,153.7c1.6,0.2,2.2,1,2.1,2.4c-0.1,1.1-0.7,1.9-1.8,2c-1.4,0.1-2.2-0.7-2.3-2
			C338.6,154.7,339.6,154.1,340.6,153.7z"/>
		<path class="st11" d="M79.5,370c0,1.9-1.4,2.6-2.7,3.3c-8.3,4.8-16.7,9.6-25,14.4c-1.3,0.7-2.7,1.7-4.1,0.3
			c-1.5-1.4-1.7-3.3-0.6-5c1.4-2.2,3.1-4.3,4.8-6.3c1.4-1.8,2.8-3.3,2.6-6.1c-0.2-3.1,4-5.4,6.5-3.5c2,1.5,3.7,0.8,5.6,0.6
			c2.8-0.3,5.6-0.9,8.4-1C77.1,366.8,78.9,367.8,79.5,370z"/>
		<path class="st11" d="M59,357.5c0.2,4-1.6,6.9-5.3,8.1c-4.1,1.3-7.5-0.5-10.3-3.5c-0.6-0.6-0.9-1.4-0.5-2.3
			c1.1-2.8,10.4-7.9,13.4-7.4C58.4,352.8,59,354,59,357.5z"/>
		<path class="st22" d="M48.4,344.9c1,0.2,2,0.2,2.9,0.5c1.6,0.6,4.1,1.2,3.5,3.4c-0.5,2-2.9,1.2-4.3,0.7c-2.3-0.8-3.1-0.1-3.9,2.1
			c-0.8,2.4-2.6,5.8-5.5,4.2c-2.5-1.4-1.2-4.8,0.1-7.2C42.8,346,45.2,344.7,48.4,344.9z"/>
		<path class="st31" d="M49.7,81.3c-5.1-1.2-10.1-2.5-15.2-3.7c0.1-0.5,0.2-1,0.4-1.4C40.2,76.1,45.4,76.9,49.7,81.3z"/>
		<path class="st11" d="M336,238.5c1.1-7.3,4.4-13.7,9.4-19.3c2.1-2.3,3.3-1.4,4,1.3c0.5,2-0.1,3.5-1,5.2c-2.8,4.7-5.5,9.5-8.3,14.2
			c-0.7,1.2-0.9,3.4-2.8,2.8C335.5,242.1,336.2,240.1,336,238.5z"/>
		<path class="st32" d="M358.9,218.8c0.3,3.5-1.3,5.2-4.4,5.7c-1,0.2-1.8-0.3-1.4-1.3c0.9-2.6,1.8-5.6,4.3-6.8
			C359.1,215.6,358.7,218,358.9,218.8z"/>
		<path class="st24" d="M348.9,241.3c-1.7,1.3-2.7,2.1-3.8,2.8c-1.1,0.7-2.1,1.6-3.5,1.3c-0.3-0.1-0.8-0.7-0.7-1
			c0.3-1.6,1.6-2.5,3-3C345,241,346.2,240.3,348.9,241.3z"/>
		<path class="st0" d="M51.6,63C40.2,63,32,55.1,32,43.8c-0.1-11.4,8.2-20.1,19-20c11.7,0.1,20.5,8.3,20.7,19.2
			C71.9,54.3,63.2,63,51.6,63z"/>
		<path class="st11" d="M335.8,262.4c-0.2,3.6,1,5.5,5.2,5.3c3.4-0.2,6.5,1.1,8.9,3.8c1.9,2,1.8,3.6-1,4.3
			c-8.2,2.2-16.4,4.3-24.6,6.4c-2.6,0.7-3.3-0.7-2.7-3c0.9-3.7,3.4-6.1,6.4-7.9c3.4-2,3.8-4.4,1.5-7.4c-0.6-0.9-2.4-1.6-1.2-2.7
			c1.8-1.6,4.2-2,6.5-1.8C337,259.5,336,261.2,335.8,262.4z"/>
		<path class="st33" d="M146.7,380c-2.3,0-4.6,0.1-7,0c-1.7-0.1-4.1,0.4-4.2-2.3c0-2.3,0.3-5.2,3.3-5.4c5.4-0.3,10.9-0.3,16.4,0
			c2.9,0.2,3.2,3.2,3.2,5.4c0,2.4-2.1,2.1-3.7,2.2C152,380.1,149.4,380,146.7,380z"/>
		<path class="st1" d="M146.8,361.9c-5.3,0-10.7-0.1-16,0c-3.3,0.1-4.9-1.2-4.9-4.7c0.1-6,0.1-12,0-18c0-2.9,1.3-4.3,4.2-4.3
			c11.2,0,22.3,0,33.5,0c2.9,0,4.4,1.2,4.3,4.2c0,6.2-0.1,12.3,0,18.5c0,3.3-1.7,4.3-4.7,4.3C157.8,361.9,152.3,361.9,146.8,361.9z"
			/>
		<path class="st34" d="M122.7,174.3c-0.6,0.6-0.7,0.8-0.8,0.8c-3.1,0.1-5.2-1.7-7.1-3.8c-0.5-0.6,0.1-1.5,0.8-1.4
			C118.7,170.4,120.7,172.3,122.7,174.3z"/>
		<path class="st35" d="M389.3,356.3c1.3,0.2,2.2,0.9,2.2,2.2c0,1.3-0.9,2.1-2.3,2c-1.3-0.2-2-1.1-1.9-2.4
			C387.4,356.9,388.2,356.4,389.3,356.3z"/>
		<path class="st36" d="M264.7,47.1c-0.1,1.3-0.6,2.3-2,2.4c-1.6,0.1-2.4-0.9-2.4-2.4c0-1.4,0.9-2.2,2.2-2.2
			C263.8,44.9,264.6,45.7,264.7,47.1z"/>
		<path class="st6" d="M257.2,44.9c-0.2,1.4-0.8,2.5-2.4,2.4c-1.2-0.1-2.1-0.9-2.1-2.3c0-1.4,1-2,2.2-2.1
			C256.3,42.7,257,43.5,257.2,44.9z"/>
		<path class="st37" d="M272.6,49.5c-0.2,1.3-1,2.1-2.3,2c-1.3-0.2-2-1.1-1.9-2.4c0.1-1.2,0.9-1.7,2-1.7
			C271.7,47.4,272.4,48.2,272.6,49.5z"/>
		<path class="st2" d="M239,366.7c0-7.3,5.5-12.7,13.1-12.7c7.2,0,13,5.8,12.9,13c0,7.2-5.7,12.9-13,13
			C244.3,380,239,374.6,239,366.7z"/>
		<path class="st5" d="M69.7,233.7c-14.4-3.9-28.9-7.7-43.3-11.7c-3-0.8-4.3,0.1-5,2.9c-2.2,8.5-4.5,17-6.8,25.5
			c-0.8,2.8,0.2,4.5,3,5.2c14.5,3.9,28.9,7.7,43.4,11.6c2.5,0.7,4.3,0.3,5.1-2.4c2.5-9,4.9-17.9,7.4-26.9
			C74,234.7,71.8,234.2,69.7,233.7z"/>
		<path class="st36" d="M40.5,265.5c-0.2,1.2-1,1.7-2,1.6c-1.3-0.1-2.1-0.8-2-2.2c0.1-1.2,0.9-1.7,2-1.6
			C39.6,263.4,40.5,264.1,40.5,265.5z"/>
		<path class="st38" d="M269.7,211.4c1.3,0.3,2,1.1,1.8,2.5c-0.2,1.1-1,1.8-2.1,1.6c-1.4-0.2-2.1-1-1.8-2.4
			C267.7,212,268.5,211.5,269.7,211.4z"/>
		<path class="st6" d="M262.8,162.9c-3.4,2.9-7.7,3.1-11.7,4.2c-0.3,0.1-1-0.3-1.1-0.7c-0.1-0.3,0.1-1.2,0.4-1.2
			C254.3,163.7,258.3,161.5,262.8,162.9z"/>
		<path class="st6" d="M335.2,130.7c3.1-0.5,5,0,6.9,1.5C339,133.6,339,133.6,335.2,130.7z"/>
		<path class="st0" d="M146.5,378.1c-2.4-0.8-6.9,1.1-6.9-1.4c0-2.8,4.4-1.6,6.8-1.5c2.8,0.1,7.9-1.4,7.9,1.3
			C154.1,379.5,149.2,377.2,146.5,378.1z"/>
		<path class="st0" d="M147,359c-4.8,0-9.7-0.1-14.5,0c-3.2,0.1-4.5-1.4-4.5-4.5c0.3-20.1-2.9-16.1,15.5-16.5
			c5.8-0.1,11.7,0.1,17.5-0.1c3.7-0.1,5.1,1.5,5,5.1c-0.4,19.2,2.7,15.6-15,16C149.7,359,148.3,359,147,359C147,359,147,359,147,359
			z"/>
		<path class="st0" d="M251.4,356.4c5.8-0.2,11.2,4.8,11.3,10.4c0.1,5.6-5.2,10.8-11,10.8c-5.2,0-10.2-4.9-10.4-10.2
			C241,362,246.1,356.5,251.4,356.4z"/>
		<path class="st0" d="M66.2,235.5c-12.4-3.3-24.7-6.6-37.1-10c-3.3-0.9-5.1,0.2-5.9,3.4c-1.7,6.6-3.5,13.2-5.4,19.7
			c-0.9,3,0.3,4.3,3,5c12.9,3.4,25.7,6.8,38.6,10.3c2.4,0.7,3.9,0.1,4.5-2.4c2-7.2,3.9-14.4,5.9-21.7
			C70.3,237,68.4,236.1,66.2,235.5z"/>
	</g>
</g>
</svg>
