<?xml version="1.0" encoding="utf-8"?>
<!-- Generator: Adobe Illustrator 21.1.0, SVG Export Plug-In . SVG Version: 6.00 Build 0)  -->
<svg version="1.1" id="Layer_1" xmlns="http://www.w3.org/2000/svg" xmlns:xlink="http://www.w3.org/1999/xlink" x="0px" y="0px"
	 viewBox="0 0 260 260" style="enable-background:new 0 0 260 260;" xml:space="preserve">
<style type="text/css">
	.st0{fill:#36DD65;}
	.st1{fill:#FFFFFF;}
</style>
<rect x="0.3" class="st0" width="259.7" height="260.7"/>
<g>
	<g id="i-like-food">
		<g>
			<path class="st1" d="M22.5,28v-6.7l0.2-0.1l-0.4-0.9L21.2,18h3.7c-0.1-0.7-0.3-1.3-0.5-2C21.9,8.2,15.4,2.3,7.5,0.6
				C-4.9-2.2-17.2,5.6-20,18h2.9l-0.6,0.3l-0.9,0.4l0.4,0.9l0.8,1.6V28c-1,0.8-1.7,1.9-1.9,3.2c-0.4,2.7,1.5,5.3,4.2,5.7l0,0.1
				c0.9,3.5,4.1,6,7.7,6h20c3.6,0,6.8-2.5,7.8-6l0-0.1c1.3-0.2,2.4-0.9,3.2-1.9C25.2,32.8,24.8,29.7,22.5,28z M-17.3,16
				C-13.5,5.1-1.5-0.7,9.5,3.2c6,2.1,10.7,6.8,12.8,12.8h-2.1l-0.1-0.1L19.8,16h-32.3h0H-17.3z M-15.4,25v-1.2l0.3-0.2l1.4-0.7h2.6
				l1.4,0.7c0.8,0.4,1.8,0.4,2.7,0l1.4-0.7h2.6l1.4,0.7c0.8,0.4,1.8,0.4,2.7,0L2.3,23h2.6l1.4,0.7C7,24.1,8,24.1,8.8,23.7l1.7-0.7
				h3.2l1.7,0.7c0.8,0.4,1.8,0.3,2.6-0.1l1.4-0.7h1.3v2H-15.4z M18.9,27L2.5,31.9L-13.8,27H18.9z M-12.4,18c0.2,0,0.3,0,0.5,0.1
				l2.2,1.1c0.8,0.4,1.8,0.4,2.7,0l2.2-1.1C-4.8,18-4.6,18-4.5,18h0c0.2,0,0.3,0,0.5,0.1l2.2,1.1c0.8,0.4,1.8,0.4,2.7,0l2.2-1.1
				C3.2,18,3.4,18,3.5,18h0c0.2,0,0.3,0,0.5,0.1l2.3,1.2c0.8,0.4,1.7,0.4,2.6,0.1l2.8-1.2C11.8,18,11.9,18,12,18h0
				c0.1,0,0.3,0,0.4,0.1l2.8,1.2c0.8,0.4,1.8,0.3,2.6-0.1l1.4-0.7l0.9,1.8L17,21.9c-0.3,0.1-0.6,0.1-0.8,0l-2.9-1.3
				c-0.8-0.3-1.7-0.3-2.4,0L8,21.9c-0.3,0.1-0.6,0.1-0.9,0l-2.2-1.1c-0.8-0.4-1.8-0.4-2.7,0L0,21.9c-0.3,0.1-0.6,0.1-0.9,0l-2.2-1.1
				c-0.8-0.4-1.8-0.4-2.7,0L-8,21.9c-0.3,0.1-0.6,0.1-0.9,0l-2.2-1.1c-0.8-0.4-1.8-0.4-2.7,0l-1.3,0.7l-0.9-1.8l3.1-1.6
				C-12.8,18-12.6,18-12.4,18L-12.4,18L-12.4,18z M12.5,41h-20c-2.5,0-4.8-1.6-5.6-4h31.3C17.4,39.4,15.1,41,12.5,41z M19.5,35h-34
				c-1.7,0-3-1.3-3-3s1.3-3,3-3h0.3l16.7,5l16.7-5h0.3c1.7,0,3,1.3,3,3S21.2,35,19.5,35z"/>
		</g>
		<g>
			<path class="st1" d="M282.6,28v-6.7l0.2-0.1l-0.5-0.9l-1.2-2.3h3.7c-0.2-0.7-0.3-1.3-0.5-2c-2.5-7.8-8.9-13.7-16.9-15.4
				c-12.4-2.8-24.7,5-27.5,17.4h2.9l-0.6,0.3l-0.9,0.4l0.4,0.9l0.8,1.6V28c-1,0.8-1.7,1.9-1.9,3.2c-0.4,2.7,1.5,5.3,4.2,5.7l0,0.1
				c0.9,3.5,4.1,6,7.7,6h20c3.6,0,6.8-2.5,7.8-6l0-0.1c1.3-0.2,2.4-0.9,3.2-1.9C285.2,32.8,284.8,29.7,282.6,28z M242.7,16
				c3.9-10.9,15.9-16.7,26.8-12.8c6,2.1,10.7,6.8,12.8,12.8h-2.1l-0.1-0.1l-0.3,0.1h-32.3h0H242.7z M244.6,25v-1.2l0.3-0.2l1.4-0.7
				h2.6l1.4,0.7c0.8,0.4,1.8,0.4,2.7,0l1.4-0.7h2.6l1.4,0.7c0.8,0.4,1.8,0.4,2.7,0l1.4-0.7h2.6l1.4,0.7c0.8,0.4,1.7,0.4,2.6,0.1
				l1.7-0.7h3.2l1.7,0.7c0.8,0.4,1.8,0.3,2.6-0.1h0l1.4-0.7h1.3v2H244.6z M278.9,27l-16.4,4.9L246.2,27H278.9z M244,19.7l3.1-1.6
				c0.1-0.1,0.3-0.1,0.4-0.1h0c0.2,0,0.3,0,0.5,0.1l2.2,1.1c0.8,0.4,1.8,0.4,2.7,0l2.2-1.1c0.1-0.1,0.3-0.1,0.4-0.1h0
				c0.2,0,0.3,0,0.5,0.1l2.2,1.1c0.8,0.4,1.8,0.4,2.7,0l2.2-1.1c0.1-0.1,0.3-0.1,0.4-0.1h0c0.2,0,0.3,0,0.5,0.1l2.3,1.2
				c0.8,0.4,1.7,0.4,2.6,0.1l2.8-1.2c0.1-0.1,0.3-0.1,0.4-0.1h0c0.1,0,0.3,0,0.4,0.1l2.8,1.2c0.8,0.4,1.8,0.3,2.6-0.1l1.4-0.7
				l0.9,1.8l-3.1,1.5c-0.3,0.1-0.6,0.1-0.9,0l-2.9-1.3c-0.8-0.3-1.7-0.3-2.4,0l-2.9,1.3c-0.3,0.1-0.6,0.1-0.9,0l-2.2-1.1
				c-0.8-0.4-1.8-0.4-2.7,0l-2.2,1.1c-0.3,0.1-0.6,0.1-0.9,0l-2.2-1.1c-0.8-0.4-1.8-0.4-2.7,0l-2.2,1.1c-0.3,0.1-0.6,0.1-0.9,0
				l-2.2-1.1c-0.8-0.4-1.8-0.4-2.7,0l-1.3,0.7L244,19.7z M272.5,41h-20c-2.5,0-4.8-1.6-5.6-4h31.3C277.4,39.4,275.1,41,272.5,41z
				 M279.5,35h-34c-1.7,0-3-1.3-3-3s1.3-3,3-3h0.3l16.7,5l16.7-5h0.3c1.7,0,3,1.3,3,3S281.2,35,279.5,35z"/>
		</g>
		<g>
			<path class="st1" d="M165,26.5c-0.2-2.9-2.6-5.3-5.5-5.5c-1.3-3.6-4.7-6-8.5-6h-42c-3.8,0-7.2,2.4-8.5,6
				c-3.3,0.3-5.8,3.2-5.5,6.5c0.2,2.9,2.6,5.2,5.5,5.5c-1.7,4.7,0.8,9.8,5.4,11.5c1,0.3,2,0.5,3,0.5h42c5,0,9-4,9-9
				c0-1-0.2-2.1-0.5-3C162.8,32.7,165.2,29.8,165,26.5z M109,17h42c2.7,0,5.2,1.6,6.3,4h-54.7C103.8,18.6,106.3,17,109,17z M151,43
				h-9.3c2.1-1.7,3.3-4.3,3.3-7h-2c0,3.9-3.1,7-7,7h-4.3c2.1-1.7,3.3-4.3,3.3-7h-2c0,3.9-3.1,7-7,7h-4.3c2.1-1.7,3.3-4.3,3.3-7h-2
				c0,3.9-3.1,7-7,7h-7c-3.9,0-7-3.1-7-7s3.1-7,7-7h42c3.9,0,7,3.1,7,7S154.9,43,151,43z M159,31h-0.5c-1.7-2.5-4.5-4-7.5-4h-42
				c-3,0-5.8,1.5-7.5,4H101c-2.2,0-4-1.8-4-4s1.8-4,4-4h58c2.2,0,4,1.8,4,4S161.2,31,159,31z"/>
		</g>
		<g>
			<path class="st1" d="M39,115c4.4,0,8-3.6,8-8s-3.6-8-8-8s-8,3.6-8,8S34.6,115,39,115z M39,101c3.3,0,6,2.7,6,6s-2.7,6-6,6
				s-6-2.7-6-6S35.7,101,39,101z"/>
			<path class="st1" d="M57.3,88L56,84H42v-6v-2h8v-6H40c-2.2,0-4,1.8-4,4v10H22l-1.3,4L20,90h2.2l3.8,40h26l3.8-40H58L57.3,88z
				 M38,74c0-1.1,0.9-2,2-2h8v2h-8v10h-2V74z M50.2,128H27.8l-3.6-38h29.6L50.2,128z M22.8,88l0.7-2H40h14.6l0.7,2H22.8z"/>
		</g>
		<g>
			<path class="st1" d="M149,114v-14h-6v-4h-6v-4h-8h-6v4h-6v4h-6v14h-3l0.2,2l3.8,32h36l3.8-32l0.2-2H149z M143,102h4v12h-1v-8h-3
				V102z M144,108v6h-4v-6H144z M137,98h4v4v4h-1v-4h-3V98z M138,104v16c-1,1.4-2.4,2.5-4,3.2V104H138z M131,94h4v8h-1v-4h-3V94z
				 M132,100v23.8c-1.3,0.3-2.7,0.3-4,0V100H132z M125,94h4v4h-3v4h-1V94z M126,104v19.2c-1.6-0.7-3-1.8-4-3.2v-16H126z M119,98h4v4
				h-3v4h-1V98z M120,108v6h-4v-6H120z M113,102h4v4h-3v8h-1V102z M146.2,146h-32.4l-3.5-30h7.9c1,5.8,6,10,11.8,10
				c5.9,0,10.9-4.2,11.8-10h7.9L146.2,146z"/>
		</g>
		<g>
			<path class="st1" d="M220.8,197L220.8,197c0.3-0.5,0.7-1,1.1-1.4c-0.3-0.5-0.9-0.7-1.4-0.4c-0.5,0.3-0.7,0.9-0.4,1.4
				C220.3,196.7,220.5,196.9,220.8,197z"/>
			<path class="st1" d="M80.9,178.9c-2.2,0.5-4.3-0.9-4.8-3c-0.4,0.1-0.7,0.1-1.1,0.1c-2.8,0-5-2.2-5-5c-7.7,0-14,6.3-14,14v24
				c0,3.3,2.7,6,6,6h3v9c0,2.8,2.2,5,5,5s5-2.2,5-5v-9h3c3.3,0,6-2.7,6-6v-24c0-2.3-0.6-4.7-1.7-6.7
				C81.9,178.6,81.4,178.8,80.9,178.9z M73,224c0,1.7-1.3,3-3,3s-3-1.3-3-3v-9h6V224z M82,209c0,2.2-1.8,4-4,4H62c-2.2,0-4-1.8-4-4
				v-2.5c0.2,0.1,0.4,0.2,0.7,0.3c0.4,0.2,0.9,0.2,1.4,0.2c2.2,0,4-1.8,3.9-4v-12h-2v12c0,0.4-0.1,0.8-0.3,1.1
				c-0.5,0.8-1.6,1.1-2.4,0.7c-0.7-0.3-1.2-1-1.2-1.8v-12v-6c0-6,4.4-11,10.3-11.9c0.9,2.8,3.5,4.8,6.5,4.9c1.1,1.9,3.1,3,5.2,3
				c0.4,0,0.8-0.1,1.3-0.2c0.5,1.3,0.7,2.6,0.7,4.2V209z"/>
			<path class="st1" d="M76,197c0,1.1-0.9,2-2,2c0,0,0,0,0,0c-0.7,0-1.3-0.3-1.7-0.9c-0.2-0.3-0.3-0.7-0.3-1.1v-12h-2v12
				c0,2.2,1.8,4,4,4c1.2,0,2.3-0.5,3.1-1.4c0.6-0.7,0.9-1.6,0.9-2.5v-12h-2V197z"/>
			<g>
				<path class="st1" d="M278.7,205.6c0.9-1.9,0-4.2-1.9-5.2c0,0,0,0,0,0c0.8-2.7-0.8-5.4-3.4-6.2c-0.4-0.5-0.9-0.9-1.5-1
					c-0.1-0.7-0.4-1.4-0.8-2c-1.6-2.3-4.7-2.9-7-1.3c-5.1-3.7-11.4-5.9-18.2-5.9c-6.5,0-12.9,2-18.2,5.9c-0.6-0.4-1.3-0.7-2-0.8
					c-2.7-0.5-5.3,1.4-5.8,4.1c-0.6,0.2-1.1,0.6-1.5,1c0,0,0,0,0,0c-2.6,0.8-4.2,3.6-3.4,6.2c-1.9,0.9-2.7,3.2-1.9,5.2
					c-0.4,0.4-0.7,0.9-0.9,1.4c-1.1,2.5,0.1,5.5,2.6,6.6c0,0.5,0,0.9,0,1.4v1h62v-1c0-0.5,0-0.9,0-1.4c0.5-0.2,1-0.6,1.5-1
					C280.5,210.8,280.6,207.6,278.7,205.6z M273.9,196.7c1.3,1.1,1.4,3,0.4,4.2c-0.1,0.2-0.3,0.3-0.5,0.4c-0.5-0.9-1-1.8-1.5-2.7
					C273.1,198.3,273.7,197.6,273.9,196.7z M270.8,195c0.5-0.1,1.1,0.2,1.2,0.8c0.1,0.5-0.2,1.1-0.8,1.2c-0.4-0.5-0.7-1-1.1-1.4
					C270.3,195.3,270.5,195.1,270.8,195z M269.8,192.9c0,0.1,0.1,0.2,0.1,0.3c-0.4,0.2-0.8,0.4-1.1,0.8h0c-0.9-1-1.9-1.9-2.9-2.8
					C267.4,190.6,269.2,191.3,269.8,192.9z M225.8,191.1c0.1,0,0.2,0.1,0.3,0.1h0c-1,0.9-2,1.8-2.9,2.8c-0.3-0.3-0.7-0.6-1.1-0.8
					C222.5,191.6,224.2,190.7,225.8,191.1z M220.5,195.1c0.5-0.3,1.1-0.1,1.4,0.4c-0.4,0.5-0.8,1-1.1,1.5v0
					c-0.3-0.1-0.5-0.2-0.7-0.5C219.9,196,220,195.4,220.5,195.1z M217.6,197.1c0.1-0.2,0.3-0.3,0.4-0.5c0.2,0.9,0.8,1.6,1.6,2
					c-0.5,0.9-1,1.8-1.5,2.7C216.8,200.3,216.6,198.5,217.6,197.1z M215.2,211.4c-1.3-1-1.6-2.9-0.6-4.2c0,0,0,0,0,0
					c0.4,0.3,0.8,0.5,1.2,0.6C215.6,209,215.3,210.2,215.2,211.4z M215.1,203.4c0.2-0.5,0.6-0.9,1.1-1.2c0.3,0.4,0.7,0.8,1.2,1
					c-0.4,0.9-0.7,1.8-1,2.7C215.3,205.5,214.7,204.4,215.1,203.4z M275,214h-58c0.5-15.3,12.8-27.6,28.1-28.1
					C261.1,185.4,274.5,198,275,214L275,214z M274.7,203.2c0.4-0.3,0.8-0.6,1.2-1c1,0.5,1.4,1.7,1,2.7c-0.2,0.5-0.6,0.9-1.2,1
					C275.4,205,275,204.1,274.7,203.2z M276.8,211.4C276.8,211.4,276.8,211.4,276.8,211.4L276.8,211.4c-0.2-1.2-0.4-2.4-0.6-3.6
					c0.5-0.1,0.9-0.3,1.2-0.6C278.4,208.5,278.1,210.4,276.8,211.4z"/>
			</g>
			<path class="st1" d="M256,194h-2c-0.6,0-1,0.4-1,1s0.4,1,1,1h2c0.6,0,1-0.4,1-1S256.6,194,256,194z"/>
			<path class="st1" d="M225,206h-2c-0.6,0-1,0.4-1,1s0.4,1,1,1h2c0.6,0,1-0.4,1-1S225.6,206,225,206z"/>
			<path class="st1" d="M230,210h-2c-0.6,0-1,0.4-1,1s0.4,1,1,1h2c0.6,0,1-0.4,1-1S230.6,210,230,210z"/>
			<path class="st1" d="M236,195h-2c-0.6,0-1,0.4-1,1s0.4,1,1,1h2c0.6,0,1-0.4,1-1S236.6,195,236,195z"/>
			<path class="st1" d="M245,191h-2c-0.6,0-1,0.4-1,1s0.4,1,1,1h2c0.6,0,1-0.4,1-1S245.6,191,245,191z"/>
			<path class="st1" d="M255,210h-2c-0.6,0-1,0.4-1,1s0.4,1,1,1h2c0.6,0,1-0.4,1-1S255.6,210,255,210z"/>
			<path class="st1" d="M250,205h-2c-0.6,0-1,0.4-1,1s0.4,1,1,1h2c0.6,0,1-0.4,1-1S250.6,205,250,205z"/>
			<path class="st1" d="M243,199h-2c-0.6,0-1,0.4-1,1s0.4,1,1,1h2c0.6,0,1-0.4,1-1S243.6,199,243,199z"/>
			<path class="st1" d="M265,201c0.6,0,1-0.4,1-1s-0.4-1-1-1h-2c-0.6,0-1,0.4-1,1s0.4,1,1,1H265z"/>
			<path class="st1" d="M240,209h-2c-0.6,0-1,0.4-1,1s0.4,1,1,1h2c0.6,0,1-0.4,1-1S240.6,209,240,209z"/>
			<rect x="214" y="86" class="st1" width="2" height="2"/>
			<rect x="208" y="86" class="st1" width="4" height="2"/>
			<g>
				<circle class="st1" cx="154" cy="234" r="1"/>
				<circle class="st1" cx="149" cy="230" r="1"/>
				<circle class="st1" cx="144" cy="232" r="1"/>
				<circle class="st1" cx="142" cy="210" r="1"/>
				<circle class="st1" cx="158" cy="228" r="1"/>
				<circle class="st1" cx="164" cy="224" r="1"/>
				<circle class="st1" cx="140" cy="219" r="1"/>
				<path class="st1" d="M150,213c-3.9,0-7,3.1-7,7c0,3.9,3.1,7,7,7c3.9,0,7-3.1,7-7C157,216.1,153.9,213,150,213z M150,225
					c-2.8,0-5-2.2-5-5s2.2-5,5-5s5,2.2,5,5S152.8,225,150,225z"/>
				<circle class="st1" cx="160" cy="221" r="1"/>
				<circle class="st1" cx="164" cy="218" r="1"/>
				<circle class="st1" cx="135" cy="220" r="1"/>
				<circle class="st1" cx="159" cy="214" r="1"/>
				<circle class="st1" cx="159" cy="209" r="1"/>
				<circle class="st1" cx="148" cy="210" r="1"/>
				<circle class="st1" cx="145" cy="205" r="1"/>
				<circle class="st1" cx="140" cy="225" r="1"/>
				<circle class="st1" cx="153" cy="207" r="1"/>
				<circle class="st1" cx="137" cy="213" r="1"/>
				<path class="st1" d="M169.7,217.4l-1.4-1.7c-0.7-0.8-1.1-1.9-1-3l0.2-2.2c0.2-2-1.1-3.8-3.1-4.2l-2.1-0.5
					c-1.1-0.2-2-0.9-2.5-1.8l-1.1-1.9c-1-1.7-3.2-2.4-5-1.6l-2,0.9c-1,0.4-2.1,0.4-3.1,0l-2-0.9c-1.8-0.8-4-0.1-5,1.6l-1.1,1.9
					c-0.6,0.9-1.5,1.6-2.5,1.8l-2.1,0.5c-1.9,0.4-3.3,2.3-3.1,4.2l0.2,2.2c0.1,1.1-0.3,2.2-1,3l-1.5,1.7c-1.3,1.5-1.3,3.7,0,5.2
					l1.5,1.7c0.7,0.8,1.1,1.9,1,3l-0.2,2.2c-0.2,2,1.1,3.8,3.1,4.2l2.1,0.5c1.1,0.2,2,0.9,2.5,1.8l1.1,1.9c1,1.7,3.2,2.4,5,1.6
					l2-0.9c1-0.4,2.1-0.4,3.1,0l2,0.9c1.8,0.8,4,0.1,5-1.6l1.1-1.9c0.6-0.9,1.5-1.6,2.5-1.8l2.1-0.5c1.9-0.4,3.3-2.3,3.1-4.2
					l-0.2-2.2c-0.1-1.1,0.3-2.2,1-3l1.4-1.7C171,221.1,171,218.9,169.7,217.4z M168.2,221.3l-1.5,1.7c-1.1,1.2-1.6,2.8-1.5,4.5
					l0.2,2.2c0.1,1-0.6,1.9-1.5,2.1l-2.1,0.5c-1.6,0.4-3,1.4-3.8,2.8l-1.1,1.9c-0.5,0.9-1.6,1.2-2.5,0.8l-2-0.9
					c-1.5-0.6-3.2-0.6-4.7,0l-2,0.9v0c-0.9,0.4-2,0.1-2.5-0.8L142,235c-0.8-1.4-2.2-2.4-3.8-2.8l-2.2-0.5c-1-0.2-1.6-1.1-1.5-2.1
					l0.2-2.2c0.1-1.6-0.4-3.2-1.5-4.5l-1.5-1.7c-0.7-0.8-0.7-1.9,0-2.6l1.5-1.7c1.1-1.2,1.6-2.8,1.5-4.5l-0.2-2.2
					c-0.1-1,0.6-1.9,1.5-2.1l2.2-0.5c1.6-0.4,3-1.4,3.8-2.8l1.1-1.9c0.5-0.9,1.6-1.2,2.5-0.8l2,0.9c1.5,0.6,3.2,0.6,4.7,0l2-0.9
					c0.9-0.4,2-0.1,2.5,0.8l1.1,1.9c0.8,1.4,2.2,2.4,3.8,2.8l2.2,0.5c1,0.2,1.6,1.1,1.5,2.1l-0.2,2.2c-0.1,1.6,0.4,3.2,1.5,4.5
					l1.5,1.7C168.9,219.4,168.9,220.6,168.2,221.3z"/>
				<path class="st1" d="M150,196c-13.3,0-24,10.7-24,24s10.7,24,24,24s24-10.7,24-24S163.3,196,150,196z M150,242
					c-12.2,0-22-9.8-22-22s9.8-22,22-22s22,9.8,22,22S162.2,242,150,242z"/>
			</g>
			<path class="st1" d="M266,209h-2c-0.6,0-1,0.4-1,1s0.4,1,1,1h2c0.6,0,1-0.4,1-1S266.6,209,266,209z"/>
			<path class="st1" d="M214.4,126.5l7-24.5c0.9,0,1.7-0.6,2-1.5l1.1-4.5l0.1-0.2c2.6-0.9,4.1-3.7,3.2-6.3c-0.6-1.7-2-3-3.8-3.3V86
				c0-7.7-6.3-14-14-14s-14,6.3-14,14v0.1c-2.7,0.6-4.5,3.2-3.9,5.9c0.4,1.8,1.6,3.2,3.3,3.8l0.1,0.2l1.1,4.5c0.2,0.9,1,1.5,1.9,1.5
				h0l7,24.5c0.2,0.9,1,1.4,1.9,1.5h5C213.4,128,214.2,127.4,214.4,126.5z M197,94c-1.7,0-3-1.3-3-3s1.3-3,3-3h9v-2h-6h-2
				c0-6.6,5.4-12,12-12c6.6,0,12,5.4,12,12h-2v2h3c1.7,0,3,1.3,3,3s-1.3,3-3,3H197z M198.6,100l-1-4h24.9l-1,4H198.6z M200.7,102
				h18.7l-6.9,24h-5L200.7,102z"/>
		</g>
		<g>
			<path class="st1" d="M-24,195h-2c-0.6,0-1,0.4-1,1s0.4,1,1,1h2c0.6,0,1-0.4,1-1S-23.4,195-24,195z"/>
			<path class="st1" d="M-35,206h-2c-0.6,0-1,0.4-1,1s0.4,1,1,1h2c0.6,0,1-0.4,1-1S-34.4,206-35,206z"/>
			<path class="st1" d="M-30,210h-2c-0.6,0-1,0.4-1,1s0.4,1,1,1h2c0.6,0,1-0.4,1-1S-29.4,210-30,210z"/>
			<path class="st1" d="M-20,209h-2c-0.6,0-1,0.4-1,1s0.4,1,1,1h2c0.6,0,1-0.4,1-1S-19.4,209-20,209z"/>
			<path class="st1" d="M6,209H4c-0.6,0-1,0.4-1,1s0.4,1,1,1h2c0.6,0,1-0.4,1-1S6.6,209,6,209z"/>
			<path class="st1" d="M18.7,205.6c0.9-1.9,0-4.2-1.9-5.2c0,0,0,0,0,0c0.8-2.7-0.8-5.4-3.4-6.2c-0.4-0.5-0.9-0.9-1.5-1
				c-0.1-0.7-0.4-1.4-0.8-2c-1.6-2.3-4.7-2.9-7-1.3C-0.9,186.2-7.2,184-14,184c-6.5,0-12.9,2-18.2,5.9c-0.6-0.4-1.3-0.7-2-0.8
				c-2.7-0.5-5.3,1.4-5.8,4.1c-0.6,0.2-1.1,0.6-1.5,1c0,0,0,0,0,0c-2.6,0.8-4.2,3.6-3.4,6.2c-1.9,0.9-2.7,3.2-1.9,5.2
				c-0.4,0.4-0.7,0.9-0.9,1.4c-1.1,2.5,0.1,5.5,2.6,6.6c0,0.5,0,0.9,0,1.4v1h62v-1c0-0.5,0-0.9,0-1.4c0.5-0.2,1-0.6,1.5-1
				C20.5,210.8,20.6,207.6,18.7,205.6z M13.9,196.7c1.3,1.1,1.4,3,0.4,4.2c-0.1,0.2-0.3,0.3-0.5,0.4c-0.5-0.9-0.9-1.8-1.5-2.7
				C13.1,198.3,13.7,197.6,13.9,196.7z M10.8,195c0.5-0.1,1.1,0.2,1.2,0.8c0.1,0.5-0.2,1.1-0.8,1.2c-0.4-0.5-0.7-1-1.1-1.4
				C10.3,195.3,10.5,195.1,10.8,195z M9.8,192.9c0,0.1,0.1,0.2,0.1,0.3c-0.4,0.2-0.8,0.4-1.1,0.8h0c-0.9-1-1.9-1.9-2.9-2.8
				C7.4,190.6,9.2,191.3,9.8,192.9z M-34.2,191.1c0.1,0,0.2,0.1,0.3,0.1h0c-1,0.9-2,1.8-2.9,2.8c-0.3-0.3-0.7-0.6-1.1-0.8
				C-37.5,191.6-35.8,190.7-34.2,191.1z M-39.5,195.1c0.5-0.3,1.1-0.1,1.4,0.4c-0.4,0.5-0.8,1-1.1,1.5v0c-0.3-0.1-0.5-0.2-0.7-0.5
				C-40.1,196-40,195.4-39.5,195.1z M-42.4,197.1c0.1-0.2,0.3-0.3,0.4-0.5c0.2,0.9,0.8,1.6,1.6,2c-0.5,0.9-1,1.8-1.5,2.7
				C-43.2,200.3-43.4,198.5-42.4,197.1z M-44.8,211.4c-1.3-1-1.6-2.9-0.6-4.2c0,0,0,0,0,0c0.4,0.3,0.8,0.5,1.2,0.6
				C-44.4,209-44.7,210.2-44.8,211.4z M-44.9,203.4c0.2-0.5,0.6-0.9,1.1-1.2c0.3,0.4,0.7,0.8,1.2,1c-0.4,0.9-0.7,1.8-1,2.7
				C-44.7,205.5-45.3,204.4-44.9,203.4z M15,214h-58c0.5-15.3,12.8-27.6,28.1-28.1C1.1,185.4,14.5,198,15,214L15,214z M14.7,203.2
				c0.4-0.3,0.8-0.6,1.2-1c1,0.5,1.4,1.7,1,2.7c-0.2,0.5-0.6,0.9-1.2,1C15.4,205,15,204.1,14.7,203.2z M16.8,211.4
				C16.8,211.4,16.8,211.4,16.8,211.4L16.8,211.4c-0.2-1.2-0.4-2.4-0.6-3.6c0.5-0.1,0.9-0.3,1.2-0.6
				C18.4,208.5,18.1,210.4,16.8,211.4z"/>
			<path class="st1" d="M5,201c0.6,0,1-0.4,1-1s-0.4-1-1-1H3c-0.6,0-1,0.4-1,1s0.4,1,1,1H5z"/>
			<path class="st1" d="M-17,199h-2c-0.6,0-1,0.4-1,1s0.4,1,1,1h2c0.6,0,1-0.4,1-1S-16.4,199-17,199z"/>
			<path class="st1" d="M-15,191h-2c-0.6,0-1,0.4-1,1s0.4,1,1,1h2c0.6,0,1-0.4,1-1S-14.4,191-15,191z"/>
			<path class="st1" d="M-10,205h-2c-0.6,0-1,0.4-1,1s0.4,1,1,1h2c0.6,0,1-0.4,1-1S-9.4,205-10,205z"/>
			<path class="st1" d="M-5,210h-2c-0.6,0-1,0.4-1,1s0.4,1,1,1h2c0.6,0,1-0.4,1-1S-4.4,210-5,210z"/>
			<path class="st1" d="M-4,194h-2c-0.6,0-1,0.4-1,1s0.4,1,1,1h2c0.6,0,1-0.4,1-1S-3.4,194-4,194z"/>
		</g>
	</g>
</g>
</svg>
