<?xml version="1.0" encoding="utf-8"?>
<!-- Generator: Adobe Illustrator 21.1.0, SVG Export Plug-In . SVG Version: 6.00 Build 0)  -->
<svg version="1.1" id="Layer_1" xmlns="http://www.w3.org/2000/svg" xmlns:xlink="http://www.w3.org/1999/xlink" x="0px" y="0px"
	 viewBox="0 0 402 402" style="enable-background:new 0 0 402 402;" xml:space="preserve">
<style type="text/css">
	.st0{fill:#EA5645;}
	.st1{fill:#D03F2D;}
</style>
<rect class="st0" width="402" height="402"/>
<g id="_x36_VgcCG.tif">
	<g>
		<path class="st1" d="M69.2,343.3c2.2-2.7,2.1-5.1,2.9-7.3c0.7-1.9,1.3-3.9,3.4-4.7c4.4-1.9,4.4-4.7,2-8.3c-2-3.1-3.8-6.3-5.5-9.5
			c-1.4-2.5-3-3.2-5.7-1.7c-8.6,5.1-17.3,10-25.9,15.1c-3.4,2-1.2,4.2-0.2,6.4c0.5,1.2,2.5,2.8,0.6,3.7c-1.6,0.8-2.3-1.4-3.1-2.6
			c-3.7-6.1-3.4-7.2,2.9-10.8c8.4-4.8,16.8-9.6,25.1-14.6c3.7-2.2,6.1-1.7,8.1,2.1c2.6,4.8,5.4,9.6,8.1,14.3
			c1.3,2.2,1.2,4.5-1.2,5.5c-5.8,2.5-6.8,7.6-8,12.9c-0.4,1.6-0.1,4.1-2.5,4.4c-2,0.2-2.5-2-3.2-3.4c-1.2-2.2-2.2-4.3-5.3-2.7
			c-0.6,0.3-1.4,0.2-1.7-0.5c-0.5-0.9,0.2-1.5,0.9-2C65,336.7,67.3,339.1,69.2,343.3z"/>
		<path class="st1" d="M349.7,125.3c-6.3-1.7-12.5-3.4-18.8-5.2c-1-0.3-2.6-0.5-2-2.2c0.4-1,1.7-0.8,2.7-0.5
			c6.3,1.7,12.5,3.4,18.7,5.2c0.9,0.3,2.1,0.7,1.8,1.9C351.9,126,350.6,125.5,349.7,125.3z"/>
		<path class="st1" d="M60.7,329.9c-0.6,0.2-1,0.4-1.4,0.5c-0.1-0.4-0.3-0.8-0.3-1.2c0-0.1,0.6-0.5,0.7-0.4
			C60,329,60.3,329.4,60.7,329.9z"/>
		<path class="st1" d="M66.4,325.9c-0.2,0.5-0.4,1-0.5,1c-0.4-0.1-0.8-0.3-1.1-0.5c-0.1,0,0.2-0.8,0.4-0.7
			C65.5,325.6,65.9,325.8,66.4,325.9z"/>
		<path class="st1" d="M39,147c-1.1,1.2-2.1,2.4-3.3,3.6c-0.9,0.9-2,1.2-3,0.3c-1.2-1.1-1-2.3,0.1-3.4c1.1-1.1,2.8-1.7,3.3-3.5
			C37,145,38,146,39,147z"/>
		<path class="st1" d="M67.1,117.8c-1.6-0.2-1.9-1.6-2.2-3c-0.2-1-0.5-1.8-1.8-2c-4.7-0.8-12.6,7.3-11.6,12c0.4,1.7,1.8,3.5-0.2,5
			c-2.2,1.7-3.7-0.5-5.3-1.4c-9-5.1-20.4-3.9-27.9,2.9c-8.1,7.5-10.6,18.2-5.6,27.7c2.4,4.6,3.3,8.1-1.3,11.4
			c-0.5,0.4-0.5,1.2,0.2,1.7c0.9,0.2,1.7-0.2,2.2-0.9c2.6-4.1,5.2-3.5,9.1-1.2c5.9,3.5,12.8,4.5,19.2,1.6c5.4-2.4,10.1-6.2,14.8,2
			c0.5-0.6,1.1-1.3,1.6-1.9c-7.7-4.7-4.6-9.7-1.9-14.9c2.3-4.3,1.8-9.1,0.6-13.7c-0.7-2.8-2-5.3-3.5-7.7c-1.6-2.7-0.5-5.4,2.5-4.4
			c7.4,2.5,9.9-2.5,12.8-7.2C70.6,121.2,72,118.5,67.1,117.8z M35.9,141.3c-5.5-0.4-9.7,3.1-9.7,7.8c0,4,4,7.8,8.2,7.8
			c4.6-0.1,7.7-4.1,7.3-9.4c0-0.9-0.3-1.7-0.3-2.5c0-1.4,0.8-2.6,2.2-3c1.8-0.5,2.1,1.1,2.6,2.3c2.7,6.6-1.1,15.1-7.7,17.2
			c-7.5,2.5-15.5-1.9-17.2-9.3c-1.7-7.7,3.3-15.1,11-16.1c1.3-0.1,2.7-0.2,4,0c2.1,0.3,5,0.4,4.8,3.2
			C40.8,142.2,38.1,141.8,35.9,141.3z M36.2,153.5c-1.9,0.9-4,0.7-5.6-0.8c-1.8-1.7-1.9-3.9-1-6c1.3-2.8,3.9-2.7,6.4-2.7
			c0.5,1.5,0.8,3.2,3,3C40.1,150.1,38.9,152.2,36.2,153.5z M55.1,148.5c-0.1,10.5-5.8,18.4-14.8,20.9c-9.6,2.7-18.7-0.6-24-8.8
			c-5.3-8.1-4.5-18.4,2-25.9c5.5-6.2,16.6-8.6,24.4-5.1c1.2,0.5,2.3,1.3,3.3,2.1c0.8,0.6,1.3,1.5,0.7,2.6c-0.5,0.9-1.5,1.5-2.5,1.3
			c-1.6-0.4-3.1-1.1-4.7-1.6c-8.4-2.9-16,0.6-20.1,9.1c-3,6.4-0.7,14.6,5.3,18.6c7.6,5.1,15.8,4.1,21.6-2.5
			c4.1-4.8,4.6-10.1,2.6-15.9c-0.4-1.1-1.1-2.1-1.4-3.2c-0.4-1.6,0.1-3.1,1.5-3.9c2-1.1,2.7,0.8,3.4,2
			C54.5,141.5,55.3,145.2,55.1,148.5z M59.3,118.5c0.1-0.9,0.5-1.6,1.5-1.5c0.8,0.1,0.9,0.8,0.9,1.5c-0.2,0.8-0.5,1.6-1.6,1.5
			C59.3,119.9,59.2,119.1,59.3,118.5z M55.3,124.9c-1.1,0.1-1.2-1-1.1-1.8c0-1.1,0.1-2.6,1.4-2.8c1.4-0.3,1,1.2,1.4,1.7
			C56.8,123.4,56.9,124.8,55.3,124.9z M66.1,123c-1,2.9-2.9,5-5.8,5.8c-1.3-0.1-2.7-0.4-2.2-1.6c1.1-2.9,3.6-4.6,6.3-5.8
			C65.4,121,66.5,121.8,66.1,123z"/>
		<path class="st1" d="M177.8,380.5c-3.1-10.5-4.5-21.1-3.9-32c0.2-3.5,0.1-7,0-10.5c-0.2-6.1-2-8-8.2-8c-11.9,0-23.7,0-35.5,0
			c-8.8,0-10.2,1.3-10.2,10.1c-0.1,14.3,0.9,28.6-4.5,42.4c-1.9,5.1,0.9,8.4,6.5,8.5c8.4,0.1,16.7,0,25,0c7.5,0,15,0,22.5,0
			C178.2,391,180.2,388.7,177.8,380.5z M123,337.8c0-4,1.9-5.8,5.8-5.8c12.2,0,24.3,0,36.5,0c3.9,0,5.8,1.7,5.7,5.7
			c-0.1,7.2-0.1,14.3,0,21.5c0,3.4-1.4,4.8-4.8,4.8c-6.4,0-12.9,0-19.4,0c-6.3,0-12.7-0.1-19,0c-3.4,0.1-4.8-1.3-4.8-4.7
			C123.1,352.1,123.1,345,123,337.8z M174.5,387.5c-18.3,0-36.7,0-55,0c0-0.3,0-0.7,0-1c18.3,0,36.7,0,55,0
			C174.5,386.8,174.5,387.2,174.5,387.5z M164.9,382.9c-6.1,0.1-12.3,0.1-18.4,0.1c-7.6,0-15.3-0.1-22.9,0c-3.9,0.1-5.6-0.8-4.1-5.1
			c4-11.7,0.7-10.9,14.7-10.9c10.6,0,21.3,0.1,31.9-0.1c4-0.1,6,1.2,7,5.2C175.8,383,176,382.9,164.9,382.9z"/>
		<path class="st1" d="M151.2,152.4c1.7-4-0.4-5.8-3.1-7.2c-6-3.5-12-7.1-18.1-10.5c-6.8-3.9-14.5-1.4-19,5.2
			c-2.5,3.6-1.3,7.7-3,11.2c-5,10.1-9.7,20.4-14.9,30.4c-1.7,3.3-1.5,5,1.7,6.8c7.3,4,14.5,8.2,21.6,12.5c3.4,2,5.2,1.2,7.2-2
			c5.1-8,10.5-15.8,15.7-23.7c2.1-3.2,4.5-5.8,7.7-8.2C151.7,163.4,153.6,158,151.2,152.4z M121.9,196.5c-2.4,3.9-4.8,1.2-7.1-0.1
			c-5.5-3-11-6.1-16.4-9.3c-3.8-2.3-3.5-4.6,0-11.1c2.1-3.8,4.2-1.8,6.5-0.5c6.2,3.5,12.3,7.1,18.5,10.7c1.3,0.7,2.8,1.2,2.9,3.6
			C125,191.8,123.4,194.2,121.9,196.5z M129.2,184.8c-2.6,1.8-4.6-1.1-6.6-2.2c-5.9-3.2-11.5-6.6-17.3-10c-5.8-3.4-1-6.8,0-10.1
			c1.1-3.5,3.5-3.3,6.3-1.7c6.7,4,13.5,7.8,20.3,11.8c1.3,0.8,3.2,1.4,3.1,3.6C133.4,179.2,132.1,182.7,129.2,184.8z M140.6,168.2
			c-0.7,1.6-1.6,3.3-4.1,3.4c-1-0.4-2.3-0.9-3.4-1.5c-7.1-4-14.1-8.1-21.2-12.1c-2.3-1.3-3-2.8-1.8-5.2c1.4-2.7,3.2-3,5.7-1.5
			c7.6,4.4,15.3,8.8,22.9,13.1C140.2,165.3,141.8,166.1,140.6,168.2z M148,161.7c-1.3,2.3-2.9,2.9-5.3,1.5
			c-9.3-5.5-18.6-10.9-27.9-16.4c-1.5-0.9-2.8-1.9-2-3.9c0.5-1.5,1.3-3,3.4-3.2c1.1,0.5,2.2,0.9,3.2,1.4
			c8.9,5.1,17.8,10.3,26.8,15.4C148.4,157.8,149.4,159.2,148,161.7z M148.3,152.7c-0.8,1-1.9,0.5-2.7,0c-7.8-4.4-15.5-8.8-23.3-13.3
			c-1-0.6-2-1.4-1.4-2.8c0.7-1.2,1.8-1.9,3.5-2c0.7,0.4,1.6,0.8,2.4,1.3c6.2,3.6,12.3,7.1,18.5,10.7c1.3,0.7,2.8,1.3,3.3,2.8
			C149,150.5,149.1,151.7,148.3,152.7z"/>
		<path class="st1" d="M379.4,27c-1.6-1.8-3.5-3.4-5.3-5c0,0,0,0,0-0.1c-1.4-2.2-4.2-3.7-4-6.9c0.5,0.2,0.8,0.4,1.3,0.5
			c1.3,0.3,2.4,2.7,3.7,0.8c0.9-1.3-0.8-2.3-1.7-3.3c-7.2-7.7-17.8-10.1-26.9-5.8c-3.3,1.6-6.5,3.9-9.6-0.3
			c-0.3-0.4-1.3-0.5-1.8-0.2c-0.8,0.4-0.6,1.3-0.1,1.7c4.8,3.5,1.6,6.8,0,10.3c-4.9,10.9-0.2,24.5,9.7,28.2c1-1.8-2.8-3.5-0.5-4.7
			c1.8-1,2.9,1.7,4.2,2.8c2.9,2.5,5.4,5.5,8.4,7.8c7.5,5.5,17.4,4.2,23.4-2.7C386.1,43.3,385.8,33.8,379.4,27z M370.1,15
			c-0.1,0.1-0.1,0.1-0.2,0.2C369.9,15.1,370,15.1,370.1,15C370,15,370,15,370.1,15z M336.1,25.3c0.9-8,7.1-15.4,14.9-16.9
			c6.3-1.2,12.4-1,17.1,4.9c-8.5-3-16.8-4.9-24.1,2.2c-7.2,7-5.6,15.1-2,23.9C337.1,36.7,335.3,32,336.1,25.3z M342,31.9
			c-0.3-1.3-0.5-2.6-0.7-3.4c-0.1-10.7,10.9-18.1,20.3-14.1c2.8,1.2,3,2.6,0.8,4.6c-4.8,4.8-9.6,9.6-14.4,14.4
			C344.4,37.1,343.3,36.8,342,31.9z M376.7,41c-1.1,2.9,3.8,3.9,2.3,6.9c-2.2-0.2-2.4,1.6-3,3c-2.9,0.3-4.4-2.7-7-3.4
			c0.5,5.7-0.6,6.9-4.8,5.9c-4.9-1.1-5.5-3.2-2.2-7c0.9-1,3.1-2.2,1.8-3.5c-1.6-1.6-2.8,0.8-4,1.7c-1.3,0.9-1.9,2.8-4.3,2.3
			c0.1-4.1,5.1-5.2,5.5-8.9c-3.1,0.1-4.1,3-6.1,4.5c-0.9,0.7-1.7,2-2.9,1c-1.4-1.2-0.3-2.4,0.5-3.4c1.4-2,4.4-3,4.4-6.1c0,0,0,0,0,0
			c-2.6,0.6-4,2.8-5.9,4.4c-0.9,0.7-1.8,2.6-3.2,1c-0.9-1,0.4-2.1,1.2-2.9c4.9-4.9,9.8-9.8,14.7-14.8c0.8-0.9,1.5-1.8,2.2-2.7
			c0.1,0,0.1,0,0.2,0.1c1,3.1-2,3.9-3.3,5.6c-1,1.5-2.6,2.8-1,4.5c1.6,1.8,3.2,0.8,4.7-0.6c1.6-1.6,3-3.6,5.5-3.6
			c-1.6,1.5-3.2,2.9-4.7,4.4c-0.6,0.7-1.4,1.7-0.3,2.6c0.8,0.6,1.6-0.2,2.2-0.7c1.9-1.5,3.2-3.8,6.3-4.5c0,4.2-5,5.1-5.1,9.1
			c2.7,0.5,3.8-1.7,5.1-3.1c2.7-2.7,4.2-2.1,5.3,1.2c0.2,0.7,0.5,1.3,0.7,1.9c0.4,1.9,1.2,4.1-0.2,5.7C379.8,43.2,378.5,40,376.7,41
			z"/>
		<path class="st1" d="M376,51c0-0.2-0.1-0.3-0.1-0.5c-0.4-2.4-4.9-4.1-2.9-5.9c2.1-1.9,3.8,2.5,6.1,3.3C378,49,377,50,376,51z"/>
		<path class="st1" d="M391.9,351.1c-2.3-0.9-4.7-1.6-7.1-2.3c-3.6-1-8.8-0.7-10.6-3.1c-2.2-2.9,1.1-7.5,2-11.3
			c1.2-4.7-0.3-7.4-4.9-8.6c-3.5-0.9-6.7-1.5-10.6-0.8c-4.8,0.9-9.6-2.1-14.5-3.2c-1.7-0.4-3.7-1.4-4.9,0.7c-1.2,2-2.4,4.2-1.3,6.6
			c0.5,1,1.3,1.9,2.5,3.7c-4.9-0.4-5.2,3-6.1,5.9c-2.1,7.7-4,15.4-6.3,23.1c-1.2,4,0,5.7,4,6.6c4.7,1,10.1,1.2,13.6,4.4
			c3.1,2.9,6.5,3.7,10.1,4.7c4,1.1,6.5-0.5,7.7-4.3c1-3,1.8-6,2.6-9.1c0.7-2.8,2.2-3.9,5.1-2.4c4.5,2.3,9.5,3.3,14.4,4.1
			c4.2,0.7,7.7-1.1,8.9-5.4C397.7,356.2,396.1,352.8,391.9,351.1z M345.3,368.8c-2.7-0.9-5.4-1.5-8.1-2.3c-1.2-0.4-3.3-0.4-2.9-1.9
			c0.5-2,2.5-0.7,3.8-0.4c2.2,0.5,4.4,1.6,7.2,0.5c-2.8-3.4-7.3-2.4-10.4-5c3-3,6.3,1.5,9.4-0.7c-2.2-3.4-6.5-2.3-8.7-5.3
			c2.1-1.7,4.1,0.2,5.8-0.9c0-2.8-4.3-2.2-4.1-5c0.2-2.1,1-4.2,1.3-6.3c0.7-4.4,2.8-6.1,7.3-4.5c1.2,0.4,3.1,1.6,4-0.3
			c0.6-1.4-1.2-2.1-1.9-3.2c-1.7-2.5-6.9-4-4.4-7.8c2.1-3.2,5.8,0.1,8.6,0.8c10,2.4,9.1,0.8,6.6,10.9c-2.3,9.3-5.1,18.6-7.4,28
			C350.5,369.2,348.7,369.9,345.3,368.8z M394,359.7c-0.8,2.7-2.9,3.5-5.5,3.6c-5-1-9.9-2.3-14.7-4.4c-4.5-2-6.2-1.2-7.7,3.6
			c-0.8,2.7-1.3,5.5-2.2,8.2c-1.3,4.3-7.3,5.6-10.5,2.5c-1.2-1.2-0.8-2.4-0.4-3.7c3.4-12.9,6.9-25.7,10.2-38.6
			c0.7-2.7,1.9-4.1,4.9-3.2c3,0.9,6.2,1.5,5.5,5.6c-0.5,3.1-1.5,6.1-2.1,9.2c-1.1,5.1,0,6.7,5.1,7.4c5,0.6,9.8,1.7,14.5,3.7
			C393.8,354.7,394.8,356.9,394,359.7z"/>
		<path class="st1" d="M298.8,48.5c-14.4-3.9-28.9-7.8-43.4-11.6c-6.7-1.8-9.1-0.4-11,6.3c-2.6,9.7-5.2,19.3-7.7,29
			c-2.6,10.3-1.7,11.8,8.8,14.6c13.6,3.7,27.3,7.2,41,10.9c6.1,1.6,9.1,0.2,11-5.9c2-6.5,3.6-13.1,5.4-19.7
			c1.5-5.3,2.8-10.6,4.1-15.7C306.5,51.2,302.9,49.6,298.8,48.5z M300.7,70.1c-2,7-3.9,14.1-5.8,21.2c-0.7,2.6-2.1,4.4-5.4,4.4
			c-3.3-0.9-6.8-1.8-10.3-2.7c-11.9-3.2-23.8-6.5-35.7-9.6c-4.5-1.2-6.1-3.4-4.9-7.9c1.9-6.7,3.6-13.5,5.3-20.3
			c0.7-2.9,2-4.3,5.3-3.4c16.1,4.4,32.1,8.6,48.2,12.9C300.4,65.5,301.6,66.9,300.7,70.1z M303.9,56.5c-0.2,5.3-1.7,6.7-6.4,5.4
			c-15.6-4.1-31.2-8.3-46.8-12.4c-3-0.8-4.8-1.8-3.8-5.4c1-3.3,2.4-5.7,6.3-4.7c15.8,4.1,31.5,8.4,47.3,12.6
			C303.1,52.6,304.1,54.2,303.9,56.5z"/>
		<path class="st1" d="M278.3,359.9c-4.9-0.7-5.8-3.2-2.6-7c2.8-3.3,2-5.9-0.8-8.6c-2.8-2.7-5.4-3.6-8.8-0.9c-3.9,3.1-6.2,2.1-7-2.9
			c-0.7-4.5-3.4-5.5-7.4-5.6c-4.1,0-6,1.8-6.6,5.8c-0.8,5-3.2,6-7,2.8c-3.3-2.8-5.9-2.1-8.7,0.6c-3,2.8-3.8,5.5-0.8,9
			c3,3.6,2,6.1-2.6,6.8c-4.2,0.6-6.1,2.4-6.1,6.8c0,4.5,1.6,6.7,6.2,7.3c4.6,0.6,5.5,3.3,2.5,6.8c-2.8,3.3-2.3,5.9,0.5,8.7
			c2.8,2.8,5.4,4,9,0.9c3.5-3,6.2-2.1,6.8,2.4c0.6,4.3,2.7,6.2,6.9,6.2c4.4,0.1,7-1.7,7.2-6.3c0.1-2.3,1.5-3.6,4.1-3.9
			c1.2-0.1,2.1,1,3.2,1.8c3.3,2.9,6.1,1.5,8.7-1.1c2.6-2.6,3.5-5.1,0.9-8.3c-3.4-4.3-2.7-6.4,2.6-7.3c4.1-0.6,5.6-2.9,5.6-6.8
			C284.2,363,282.7,360.6,278.3,359.9z M277,371.1c-5.9,0.9-8.2,6.7-4.4,11.1c1.7,2,2.1,3.5,0.1,5.5c-2.1,2.2-3.7,1.8-5.9-0.1
			c-4.2-3.7-10.1-1.4-10.9,4.1c-0.4,2.8-1.2,4.3-4.3,4.2c-2.8-0.1-3.5-1.6-3.9-4.1c-0.8-5.7-6.7-7.8-11.3-4
			c-2.2,1.8-3.6,1.6-5.5-0.2c-2-2-1.7-3.5,0-5.5c3.9-4.5,1.7-10.3-4.2-11.1c-2.6-0.4-4-1.2-4-4c0-2.7,1.1-3.8,3.8-4.2
			c6.2-0.9,8.1-6.4,4.2-11.5c-1-1.2-2-2.4-0.8-3.9c1.3-1.1,2.3-2.5,4.4-2.8c0.6,0.4,1.5,0.9,2.2,1.5c5,3.8,10.4,1.8,11.4-4.4
			c0.4-2.7,1.7-3.7,4.3-3.7c2.5,0.1,3.4,1.3,3.8,3.7c1,6.3,6.5,8.5,11.2,4.5c2.1-1.8,3.6-1.8,5.5,0.1c1.9,1.9,1.8,3.4,0,5.5
			c-3.8,4.5-1.7,10.3,4.2,11.2c2.6,0.4,3.9,1.3,4,4C280.9,369.7,279.7,370.7,277,371.1z"/>
		<path class="st1" d="M74.4,229.4c-16.4-4.4-32.8-8.8-49.3-13.1c-4.5-1.2-7.1,0.6-8.3,5.3c-2.9,11.5-6.1,22.8-9.2,34.3
			c-1.4,5.1-0.1,7.4,5,9.1c3.2,1,6.5,1.6,9.6,2.7c1.8,0.6,5.2,0.2,4.7,3.2c-0.5,3.4-3.5,2.7-6.1,2.1c-1.5-0.3-3.1-1.6-4.6,0.1
			c4,3,29.2,9.9,36.9,10.1c-1.3-2.4-3.3-2.3-4.9-3c-2.1-0.8-3.7-2.1-2.9-4.4s2.8-1.2,4.3-0.8c4,1,8,2.1,12.1,3.2
			c3.5,0.9,6.1-0.4,7-3.8c3.4-12.5,6.7-25.1,9.9-37.7C79.7,233,78,230.4,74.4,229.4z M41.6,276.1c-0.4,1.5-1.6,1.6-2.8,1.3
			c-2.3-0.5-4.5-1-6.8-1.7c-1.4-0.4-3.1-1-2.5-3c0.6-1.8,2.1-2.1,4.9-1.6c1.2,0.4,3.6,1.2,5.9,2.1C41.5,273.7,42,274.9,41.6,276.1z
			 M69.3,262.4c-0.5,2.1-1.2,4.2-1.7,6.3c-2,7.5-2.6,7.9-9.9,5.9c-13.9-3.8-27.9-7.5-41.9-11.3c-6.6-1.8-6.8-2.6-5-9.2
			c2.8-10.2,5.7-20.5,8.3-30.8c1.1-4.5,3.1-5.5,7.5-4.3c14.9,4.2,29.9,8.1,44.8,12.1c2.5,0.7,4.9,1.5,4.8,5.1
			C74,244.7,71.6,253.6,69.3,262.4z"/>
		<path class="st1" d="M289.7,207.3c-4.2-16.1-8.5-32.2-12.9-48.2c-1.1-4.2-4.3-5.8-8.5-4.7c-9.1,2.4-18,4.8-27,7.3
			c-3.3,1-5.4,3.2-5.3,6.9c0.1,0.5,0,1.1,0.1,1.4c4.4,16.4,8.6,32.8,13.2,49.1c1.2,4.3,4.7,5.3,8.8,4.2c8.7-2.3,17.3-4.6,26-7
			C288.7,215.1,290.9,211.9,289.7,207.3z M238.6,170c-0.8-2.9,0.5-4.9,3.2-5.8c5.2-1.6,10.5-2.9,15.8-4.3c3.7-1,7.3-2.1,11.1-2.8
			c3.2-0.5,5.6,0.6,6.1,4.1c-0.2,2.8-2.3,3.1-4.2,3.6c-8.8,2.4-17.6,4.8-26.4,7.2C241.8,172.7,239.5,173.3,238.6,170z M248.9,208.5
			c-2.6-9.8-5.3-19.6-8-29.4c-0.7-2.6,0.4-3.8,2.7-4.4c9.8-2.6,19.6-5.2,29.4-7.8c1.6-0.4,3.2-0.5,3.7,1.4
			c2.9,10.5,5.8,21.1,8.7,31.7c0,2-1.2,2.7-2.8,3.1c-9.8,2.6-19.6,5.3-29.4,8C250.7,211.8,249.5,210.8,248.9,208.5z M283.9,213.4
			c-8.8,2.4-17.7,4.8-26.5,7.1c-0.4,0.2-0.9,0.3-1.3,0.3c-2.7,0.1-4.2-1.3-4.7-3.7c-0.6-2.6,1.3-3.5,3.3-4.1c9-2.4,18-4.8,27-7.2
			c2.4-0.6,4.7-1.3,5.6,2C288.2,210.9,286.7,212.7,283.9,213.4z"/>
		<path class="st1" d="M167.2,241.5c-7.3-4.3-14.6-8.6-22-12.8c-1.7-1-3.4-3.3-5.2-2.3c-2,1.2-0.2,3.7,0,5.5c0.7,5-0.1,7.8-6,8.9
			c-8,1.5-13.2,6.9-14.3,15.3c-0.7,5.6-1.2,11.2-1.8,16.5c0.4,4.3,0.7,8.3,1.3,12.2c0.5,3.9,6.7,7.6,10.3,5.9
			c9.1-4.4,18-9.1,25.6-16.1c5.6-5.2,7-11.4,5.2-18.6c-1.8-7.1-1.7-7.1,5-9.9c0.6-0.2,1.2-0.4,1.8-0.7c0.8-0.5,2.1-1,2.3-1.7
			C169.8,242.3,168.1,242,167.2,241.5z M152.3,274.1c-6.8,5.1-13.9,9.8-21.7,13.2c-1.2,0.5-2.5,1.7-3.6,0.2
			c-0.8-1.1,0.3-2.2,0.9-3.2c3.1-5.5,6.3-11,9.3-16.5c1.1-2,2.8-2.5,4.8-3c4.2-1,6.7-4.8,5.3-8.1c-1.4-3.4-4-5.4-7.9-4.4
			c-3.8,0.9-5.6,5-3.9,9.2c0.7,1.7,0.8,3.1-0.2,4.7c-3.3,5.6-6.5,11.2-9.8,16.8c-0.6,1-1.1,2.3-2.5,2.1c-1.8-0.2-1.8-1.8-1.8-3.1
			c-0.2-2.9-0.1-5.9-0.1-8.9c-0.5-5.4,0.5-10.6,1-15.9c0.8-10.7,15.3-18.5,24.6-12.7c6.9,4.4,11.8,8.7,11.5,17.5
			C158,267.1,156.2,271.1,152.3,274.1z M137.4,258.3c0.1-2.3,1.7-3.5,3.9-3.5c2.4,0,3.6,1.6,3.5,3.9c-0.1,2.4-1.7,3.3-4,3.5
			C138.5,262,137.3,260.5,137.4,258.3z M161.3,244.9c-2.9,1.7-5.6,2.4-8.8,0.2c-5-3.5-11.8-5.4-9.1-14.5c6.2,3.6,12.2,7.1,18.2,10.7
			C163.9,242.7,163.2,243.8,161.3,244.9z"/>
		<path class="st1" d="M197.9,71c-0.5-3.6-1.2-7.5-6.1-7.9c-11.3-1-22.5-1.9-33.8-2.9c-1.6-0.2-2.8,0.4-3.8,1.8
			c-3.7,5.4-8.9,5.7-14.6,4c-5-1.4-8.2,0.9-7.2,5.9c0.9,4.8,2.4,9.4,3.8,14c0.6,2.2,2.2,3.3,5.5,2.9c0.8-0.2,2.6-0.6,4.3-1.1
			c15.6-4.2,31.2-8.4,46.8-12.7C194.9,74.4,198.5,74.8,197.9,71z M192.1,66.8c-8.3,2.7-15.9,4.9-25.1,6.7
			C173.1,66.9,184.8,63.9,192.1,66.8z M135.7,72.3c-0.8-0.4-0.7-1.8-0.2-2.8c0.6-1.1,1.6-1.1,2.6-0.8c6.9,2.6,12.7,0.2,18-4.1
			c0.5-0.4,1.1-0.7,1.7-1c2,3.4,5.8-0.1,8.1,2.1c1.1,1,1.8,0.1,2.6-0.4c2.1-1.7,4.5-1.4,7.7-0.7c-2.2,2-4.1,2.1-5.8,2.6
			c-1.6,0.5-3.6,1-4.2,2.5c-3.4,8.8-12,7.4-18.6,8.7C143.5,79.2,139.7,74.4,135.7,72.3z M136.9,78.2c-0.1-0.9,0.4-1.7,1.4-1.6
			c1.6,0.4,2.9,1.2,3.7,2.7c-0.3,1.5-1.5,1.7-2.6,1.8C137.4,81.2,137,79.8,136.9,78.2z M191.5,72.6c-16.2,4.4-32.4,8.8-48.6,13.1
			c-1.1,0.3-2.9,1.2-3.3-0.7c-0.2-1.3,1.4-1.6,2.5-1.9c15.7-4.3,31.4-8.6,47.1-12.8c1.8-0.4,3.8-1.6,5.7-0.1
			C194.6,72.3,192.8,72.3,191.5,72.6z"/>
		<path class="st1" d="M186.2,26.1c-0.9-3.4-2.8-3.9-6-3c-7.5,2.2-15.1,4.1-22.6,6.1c-9.7,2.6-19.5,5.3-29.3,7.9
			c-3.5,0.9-4.5,2.7-3.5,6.2c1,3.6,3.2,5.3,6.7,5.6c10.8,0.8,21.5,1.5,32.3,2.3c1.6,0.2,3,0.1,4.1-1.2c4.5-5.2,9.9-6,16.2-3.9
			c3.4,1.2,5.9-1,5.8-5.5C188.8,36.3,187.4,31.2,186.2,26.1z M185.5,33.2c-0.2,1.3-1,1.6-2.1,1.5c-1.2-0.2-2.4-0.8-2.5-2.1
			c-0.1-1.6,1.4-1.7,2.5-1.7C184.8,30.9,185.5,31.8,185.5,33.2z M128,41.9c-0.7-1.9,1.3-2.1,2.4-2.4c16.4-4.5,32.8-8.9,49.2-13.3
			c1.1-0.4,2.8-1.3,3.6,0.8c-0.6,1.5-1.8,1.7-2.9,2c-16.4,4.4-32.8,8.8-49.2,13.2C130,42.5,128.5,43.2,128,41.9z M129.7,44.9
			c8.8-2.1,16.4-4.9,25.3-6.2C149.4,44.9,137.6,47.8,129.7,44.9z M187.4,42c-0.6,1.7-2,1.4-3.4,1c-6.8-1.9-12.8-0.7-17.9,4.4
			c-1.1,1.1-2.6,2.1-3.6,0c-0.9-2.1-2.2-0.7-3.1-1c-4-1.1-7.8,2.8-12.7-0.2c5.6-1.4,9.9-2.9,12.1-8.1c1.2-2.7,5.5-1.8,8.1-3.2
			c7.6-4.3,13.2,0.7,19.2,3.7C187.4,39.2,187.9,40.6,187.4,42z"/>
		<path class="st1" d="M213.5,120.5c-7.6-4.4-15.8-1.7-18.2,5.5c-1.9,5.5-3.2,11.2-4.7,16.8c-0.3,1.1-1,2.6,0.4,3.1
			c1.6,0.6,1.6-1.2,2-2.2c0.7-1.9,1.3-3.8,1.9-5.7c1.2-4.8,1.5-9.9,4.9-14c0.7,4.8-0.9,9.3-2.6,13.6c0,0.1,0,0.2,0,0.3
			c-3,12.1-6.1,24.2-9,36.3c-0.3,1.4-0.3,3-1.3,4.2c-4.7,5.8-2.7,11.6-0.3,17.4c0.9,2.3,2.3,2.8,4.2,1.3c4.9-4,10.2-7.9,8.7-15.5
			c-0.3-1.4,0.5-2.5,0.8-3.8c4.8-17.4,9.6-34.9,14.3-52.4C215.1,123.7,215.5,121.7,213.5,120.5z M192,192.1
			c-0.8-1.8,0.5-3.4-0.7-4.9c-2.1,0-1.4,2.7-2.9,3.3c-2.3-3.8-2-8.7,0.8-10.4c2.6-1.6,4.8-0.9,6.6,1.4
			C198.1,184.4,196.9,187.8,192,192.1z M206.3,146.1c-2.4,9-4.8,18-7.3,27c-0.7,2.6-2.7,3.1-5.1,2.4c-2.3-0.7-3.2-2.3-2.6-4.6
			c2.3-8.8,4.7-17.7,7.1-26.5c0.7-2.6,2.2-3,4.5-2.3C205.1,142.6,206.9,143.3,206.3,146.1z M211.7,125.6c-0.9,4-2,8.1-3.2,12
			c-0.8,2.5-2.8,2.5-4.9,1.8c-2.1-0.7-3.2-1.8-2.7-4.1c1.1-3.8,2.1-7.7,3.2-11.5c0.6-2.1,2.2-2.8,4.3-2.3
			C210.6,122,212.3,123.1,211.7,125.6z"/>
		<path class="st1" d="M257.8,279.9c-4.6-2.8-8.3-6.1-10.1-11.7c-2.5-7.7-12.3-13.9-20.4-13.8c-13.5,0.1-24,11.5-22.1,24.8
			c0.7,5.5-1,10.2-2.9,14.8c-2.5,6.1-2.6,7.8,3,11.4c1.3,0.8,2.4,1.8,3.3,3c2.4,3.1,5.4,2.9,8.5,1.3c2.8-1.4,4.1-3.8,3.2-7
			c-1.2-4.5-2.4-9-3.7-13.5c-0.7-2.3-2.2-4.5-4.8-4.5c-3.5,0-4-2.4-4.4-4.9c-1.8-9.7,5.4-19.8,15.7-22.4c9.3-2.3,20.3,4,23.1,13.2
			c0.7,2.2,0.4,3.8-1.4,5.3s-2.9,3.5-2.4,5.8c1,4.7,2.1,9.4,3.7,14c1,2.9,3.4,4.4,6.7,4.3c3.3-0.1,5.1-2.1,5.9-5.1
			c0.5-1.8,1.2-3.4,2.1-5C263.1,285.6,262.1,282.6,257.8,279.9z M205.3,301.7c-0.1,0.2-1,0.2-1.2,0c-1.4-1.3-1.2-2.8-0.1-4.9
			C205.5,298.7,206.3,300,205.3,301.7z M209.5,287.5c2-0.6,3.7,0,4.3,2.1c1.3,4.6,2.6,9.2,3.7,13.9c0.5,2-0.4,3.7-2.5,4.2
			c-2,0.5-4.2,0.5-4.9-2c-1.4-4.5-2.6-9.2-3.7-13C206,289.4,207.4,288.1,209.5,287.5z M252.8,297.5c-2.3,0.4-3.8-1.2-4.4-3.2
			c-1.1-3.8-2.2-7.6-3.1-11.5c-0.6-2.5,0.3-4.8,3.1-5.3c2.6-0.5,3.9,1.3,4.6,3.6c1,3.7,2,7.6,2.9,11
			C255.9,294.9,255.4,297.1,252.8,297.5z M259.5,286.5c-0.1,0.7-0.7,1.5-1.4,1c-1.5-1-1.5-2.7-1.2-4.8
			C259.4,283.3,259.9,284.7,259.5,286.5z"/>
		<path class="st1" d="M365.9,104.6c-3.1-3-3.9-2.2-4.8,1.1c-1.7,6-3.5,11.9-4.7,17.9c-0.9,4.7-3.1,5.6-7.4,4.2
			c-6.5-2.1-13.1-3.8-19.7-5.5c-4.8-1.2-6.2-0.1-6.2,4.7c-0.1,3.4,0.9,6.6,2.9,9.4c1.9,2.6,1.7,5,0.5,7.9c-1.6,3.7-4.1,7.1-4.1,11.5
			c2.3-0.3,2.9-2,3.4-3.3c1.4-6.1,5.3-5,9.6-3.7c2.5,0.8,3.3,1.5,1.6,4.1c-2.3,3.5-1,7,2.5,7.8c2.1,0.5,4-0.1,5.4-1.7
			c1.6-2,1-4,0-6.1c-2.9-6.2-2.3-7.9,3.7-11c2.4-1.2,4.5-3,5.8-5.3c1.5-2.6,3.6-3.5,6.4-4c7-1.3,11.8-6,12.8-12.3
			C374.8,113.2,370.6,109,365.9,104.6z M337.2,146.8c-2.2-0.8-4.9-0.6-6.8-2.5c-0.2-0.2-0.2-1.2,0-1.3c2.6-1.6,4.7,0.7,7.1,0.9
			c1.1,0.1,2.7,0.2,2.6,1.7S338.5,146.8,337.2,146.8z M342.7,156.1c-0.1,1.1-0.7,1.9-1.8,2c-1.4,0.1-2.2-0.7-2.3-2c0-1.4,1-2,2-2.4
			C342.2,153.9,342.8,154.7,342.7,156.1z M351.8,135.6c-2.9,3.6-6.3,6-10.6,5.4c-7.8,0-13.8-4.4-15-10.6c-0.8-4.2,0.6-5.7,4.7-4.7
			c6.5,1.6,12.8,3.4,19.3,5C353.6,131.5,353.8,133.1,351.8,135.6z M371,117.5c-0.1,5.7-3.8,10.7-8.3,12c-3.2,0.9-5,0-4.1-3.7
			c1.3-5.1,2.7-10.2,4.1-15.3c1-3.5,2.9-3.2,4.9-0.8C369.7,112.1,371.3,114.8,371,117.5z"/>
		<path class="st1" d="M82.4,368.7c-2.4-4.3-6-5.5-13.1-4c-6.3,1.3-7.5,0.4-7.3-7.7c-0.2-5-2.5-10.5-9.1-13.7
			c-8.1-3.8-16.2,1.4-15.7,10.3c0.3,6.2,3.2,11.1,9.1,13.9c6.3,2.9,6.4,3.6,2.3,8.9c-1,1.3-2.2,2.5-3.1,3.9c-2,3.3-2,6.6,0,9.9
			c1.3,2,2.8,2.8,5,1.5c10.2-5.9,20.4-11.8,30.7-17.6C83.7,372.7,83.7,371,82.4,368.7z M41.1,355.8c-2.5-1.4-1.2-4.8,0.1-7.2
			c1.6-2.6,4-3.9,7.2-3.7c1,0.2,2,0.2,2.9,0.5c1.6,0.6,4.1,1.2,3.5,3.4c-0.5,2-2.9,1.2-4.3,0.7c-2.3-0.8-3.1-0.1-3.9,2.1
			C45.8,354,44,357.4,41.1,355.8z M43.4,362.1c-0.6-0.6-0.9-1.4-0.5-2.3c1.1-2.8,10.4-7.9,13.4-7.4c2.1,0.4,2.7,1.6,2.7,5.1
			c0.2,4-1.6,6.9-5.3,8.1C49.6,366.9,46.2,365.1,43.4,362.1z M76.8,373.3c-8.3,4.8-16.7,9.6-25,14.4c-1.3,0.7-2.7,1.7-4.1,0.3
			c-1.5-1.4-1.7-3.3-0.6-5c1.4-2.2,3.1-4.3,4.8-6.3c1.4-1.8,2.8-3.3,2.6-6.1c-0.2-3.1,4-5.4,6.5-3.5c2,1.5,3.7,0.8,5.6,0.6
			c2.8-0.3,5.6-0.9,8.4-1c2.1,0.1,3.9,1.1,4.5,3.3C79.5,371.9,78.1,372.6,76.8,373.3z"/>
		<path class="st1" d="M50.8,72.9c17.8-0.2,31.3-14.3,30.1-31.6c-0.3-3.6-1.6-7.1-2.4-10.7c-0.2-1,0.8-2.6-0.9-2.9
			c-1.5-0.3-3,0.6-4,1.7c-1.5,1.7,0.5,2.1,1.4,2.9c1.7,1.4,2.2,3.3,2.6,5.3c1.8,10.5-0.8,19.6-9.3,26.4c-7.9,6.3-17,7.9-26.3,4.1
			c-5.2-2.1-11.1-4.4-11.6-11.6c-0.1-1.1-1-1.3-1.9-1.1c-1.3,0.3-2.5,1-3.3,2.1c-0.8,1.2,0,1.7,0.9,2.3c4.2,3.2,7.7,7.3,12.5,9.8
			c1,0.5,2.2,1.3,1.8,2.7c-0.4,1.5-1.8,1.1-2.9,1.1c-4.6,0-9.1,0.3-14,3.6c12.3,3.3,23.6,6.3,36,9.7c-2.3-5.3-5.9-7.6-9.5-9.9
			c-1.3-0.8-3.8-0.8-3.1-3.2C47.4,72,49.4,73,50.8,72.9z M49.7,81.3c-5.1-1.2-10.1-2.5-15.2-3.7c0.1-0.5,0.2-1,0.4-1.4
			C40.2,76.1,45.4,76.9,49.7,81.3z"/>
		<path class="st1" d="M354.9,227.3c6.4-1.7,9-7.4,5.9-13.2c-1.5-2.7-3.2-4-5.5-0.6c-1.3,2-2.1,5.7-5.1,0.9c-1.4-2.3-3.7-0.2-5,1.2
			c-5.5,5.7-9.6,12.3-11.2,20.2c-0.5,2.4-1.4,4.9-0.3,7.3c1.3,3,1.9,5.9,0.5,9.7c3-4.3,8.1-3.7,11.9-6.2c2.8-1.8,5.3-4,7-6.9
			c0.5-0.9,0.9-1.9,0.1-2.8c-0.6-0.7-1.5-0.4-2.3-0.3c-1.8,0.2-3.5,1.8-5.8,0.5c3-4.4,8.9-2.5,12.3-6.2c-3-1.6-5.7,1.3-8.4-0.1
			C351.3,228.3,351.3,228.3,354.9,227.3z M353.1,223.2c0.9-2.6,1.8-5.6,4.3-6.8c1.7-0.8,1.3,1.6,1.5,2.4c0.3,3.5-1.3,5.2-4.4,5.7
			C353.5,224.7,352.7,224.2,353.1,223.2z M348.9,241.3c-1.7,1.3-2.7,2.1-3.8,2.8c-1.1,0.7-2.1,1.6-3.5,1.3c-0.3-0.1-0.8-0.7-0.7-1
			c0.3-1.6,1.6-2.5,3-3C345,241,346.2,240.3,348.9,241.3z M348.4,225.7c-2.8,4.7-5.5,9.5-8.3,14.2c-0.7,1.2-0.9,3.4-2.8,2.8
			c-1.8-0.6-1.1-2.6-1.3-4.2c1.1-7.3,4.4-13.7,9.4-19.3c2.1-2.3,3.3-1.4,4,1.3C349.9,222.5,349.3,224,348.4,225.7z"/>
		<path class="st1" d="M51.6,21C39,21,29,30.9,29,43.4S39,66,51.4,66C64.3,66.1,74,56.3,74,43.3C74.1,30.5,64.4,21,51.6,21z
			 M51.6,63C40.2,63,32,55.1,32,43.8c-0.1-11.4,8.2-20.1,19-20c11.7,0.1,20.5,8.3,20.7,19.2C71.9,54.3,63.2,63,51.6,63z"/>
		<path class="st1" d="M354.6,273.9c-2-5.2-5.9-7.8-11.2-8.8c-1.4-0.3-3.2,0.6-3.3-2.4c-0.2-7.4-0.7-7.6-7.9-5.7
			c-1.1,0.3-2.3,0.6-3.4,0.9c-4.8,1.3-6.2,4.2-3.2,7.9c1.8,2.1,1.2,2.6-0.5,3.9c-3.7,2.8-6.5,6.3-6.2,10.5c0.2,3.4,0.1,6.3,4.1,5.3
			c10-2.5,19.9-5.3,29.9-7.9C354.9,277.1,355.4,275.9,354.6,273.9z M348.9,275.8c-8.2,2.2-16.4,4.3-24.6,6.4c-2.6,0.7-3.3-0.7-2.7-3
			c0.9-3.7,3.4-6.1,6.4-7.9c3.4-2,3.8-4.4,1.5-7.4c-0.6-0.9-2.4-1.6-1.2-2.7c1.8-1.6,4.2-2,6.5-1.8c2.2,0.1,1.2,1.8,1,3
			c-0.2,3.6,1,5.5,5.2,5.3c3.4-0.2,6.5,1.1,8.9,3.8C351.8,273.5,351.7,275.1,348.9,275.8z"/>
		<path class="st1" d="M122.7,174.3c-0.6,0.6-0.7,0.8-0.8,0.8c-3.1,0.1-5.2-1.7-7.1-3.8c-0.5-0.6,0.1-1.5,0.8-1.4
			C118.7,170.4,120.7,172.3,122.7,174.3z"/>
		<path class="st1" d="M389.3,356.3c1.3,0.2,2.2,0.9,2.2,2.2c0,1.3-0.9,2.1-2.3,2c-1.3-0.2-2-1.1-1.9-2.4
			C387.4,356.9,388.2,356.4,389.3,356.3z"/>
		<path class="st1" d="M264.7,47.1c-0.1,1.3-0.6,2.3-2,2.4c-1.6,0.1-2.4-0.9-2.4-2.4c0-1.4,0.9-2.2,2.2-2.2
			C263.8,44.9,264.6,45.7,264.7,47.1z"/>
		<path class="st1" d="M257.2,44.9c-0.2,1.4-0.8,2.5-2.4,2.4c-1.2-0.1-2.1-0.9-2.1-2.3c0-1.4,1-2,2.2-2.1
			C256.3,42.7,257,43.5,257.2,44.9z"/>
		<path class="st1" d="M272.6,49.5c-0.2,1.3-1,2.1-2.3,2c-1.3-0.2-2-1.1-1.9-2.4c0.1-1.2,0.9-1.7,2-1.7
			C271.7,47.4,272.4,48.2,272.6,49.5z"/>
		<path class="st1" d="M40.5,265.5c-0.2,1.2-1,1.7-2,1.6c-1.3-0.1-2.1-0.8-2-2.2c0.1-1.2,0.9-1.7,2-1.6S40.5,264.1,40.5,265.5z"/>
		<path class="st1" d="M269.7,211.4c1.3,0.3,2,1.1,1.8,2.5c-0.2,1.1-1,1.8-2.1,1.6c-1.4-0.2-2.1-1-1.8-2.4
			C267.7,212,268.5,211.5,269.7,211.4z"/>
		<path class="st1" d="M262.8,162.9c-3.4,2.9-7.7,3.1-11.7,4.2c-0.3,0.1-1-0.3-1.1-0.7c-0.1-0.3,0.1-1.2,0.4-1.2
			C254.3,163.7,258.3,161.5,262.8,162.9z"/>
		<path class="st1" d="M335.2,130.7c3.1-0.5,5,0,6.9,1.5C339,133.6,339,133.6,335.2,130.7z"/>
		<path class="st1" d="M155.2,372.3c-5.5-0.3-11-0.3-16.4,0c-3,0.2-3.3,3.1-3.3,5.4c0.1,2.7,2.5,2.2,4.2,2.3c2.4,0.1,4.7,0,7,0
			c2.7,0,5.3,0.1,8-0.1c1.6-0.1,3.7,0.2,3.7-2.2C158.4,375.5,158.1,372.5,155.2,372.3z M146.5,378.1c-2.4-0.8-6.9,1.1-6.9-1.4
			c0-2.8,4.4-1.6,6.8-1.5c2.8,0.1,7.9-1.4,7.9,1.3C154.1,379.5,149.2,377.2,146.5,378.1z"/>
		<path class="st1" d="M167.9,339.1c0.1-3-1.4-4.2-4.3-4.2c-11.2,0-22.3,0-33.5,0c-2.9,0-4.2,1.4-4.2,4.3c0.1,6,0.1,12,0,18
			c0,3.5,1.6,4.8,4.9,4.7c5.3-0.1,10.7,0,16,0c5.5,0,11,0,16.4,0c3,0,4.7-1,4.7-4.3C167.8,351.4,167.9,345.3,167.9,339.1z M151,359
			c-1.3,0-2.7,0-4,0c-4.8,0-9.7-0.1-14.5,0c-3.2,0.1-4.5-1.4-4.5-4.5c0.3-20.1-2.9-16.1,15.5-16.5c5.8-0.1,11.7,0.1,17.5-0.1
			c3.7-0.1,5.1,1.5,5,5.1C165.6,362.2,168.7,358.6,151,359z"/>
		<g>
			<path class="st1" d="M252.1,354c-7.6,0-13.1,5.4-13.1,12.7c0,7.9,5.3,13.3,13,13.3c7.3-0.1,13-5.8,13-13
				C265.1,359.8,259.3,354,252.1,354z M251.7,377.6c-5.2,0-10.2-4.9-10.4-10.2c-0.3-5.4,4.8-10.9,10.1-11
				c5.8-0.2,11.2,4.8,11.3,10.4C262.8,372.4,257.5,377.6,251.7,377.6z"/>
		</g>
		<path class="st1" d="M69.7,233.7c-14.4-3.9-28.9-7.7-43.3-11.7c-3-0.8-4.3,0.1-5,2.9c-2.2,8.5-4.5,17-6.8,25.5
			c-0.8,2.8,0.2,4.5,3,5.2c14.5,3.9,28.9,7.7,43.4,11.6c2.5,0.7,4.3,0.3,5.1-2.4c2.5-9,4.9-17.9,7.4-26.9
			C74,234.7,71.8,234.2,69.7,233.7z M69.8,239.8c-2,7.3-3.9,14.5-5.9,21.7c-0.6,2.5-2.1,3.1-4.5,2.4c-12.9-3.5-25.7-6.9-38.6-10.3
			c-2.7-0.7-3.9-2-3-5c1.9-6.5,3.7-13.1,5.4-19.7c0.8-3.2,2.6-4.3,5.9-3.4c12.4,3.4,24.7,6.7,37.1,10
			C68.4,236.1,70.3,237,69.8,239.8z"/>
	</g>
</g>
</svg>
