<?xml version="1.0" encoding="utf-8"?>
<!-- Generator: Adobe Illustrator 21.1.0, SVG Export Plug-In . SVG Version: 6.00 Build 0)  -->
<svg version="1.0" id="Layer_1" xmlns="http://www.w3.org/2000/svg" xmlns:xlink="http://www.w3.org/1999/xlink" x="0px" y="0px"
	 viewBox="0 0 360 360" style="enable-background:new 0 0 360 360;" xml:space="preserve">
<style type="text/css">
	.st0{fill:#AF6D6D;}
	.st1{fill:#353535;}
</style>
<rect class="st0" width="360" height="360"/>
<g>
	<polygon class="st1" points="140,0 140,0 140,0 	"/>
	<polygon class="st1" points="360,159.6 360,159.6 360,159.6 	"/>
	<line class="st1" x1="137.1" y1="27" x2="137.2" y2="27"/>
	<line class="st1" x1="360" y1="29.6" x2="360" y2="50.4"/>
	<line class="st1" x1="0" y1="50.4" x2="0" y2="29.6"/>
	<line class="st1" x1="357.6" y1="0" x2="358.8" y2="0"/>
	<line class="st1" x1="140" y1="0" x2="140" y2="0"/>
	<line class="st1" x1="0" y1="144.8" x2="0" y2="153.1"/>
	<line class="st1" x1="360" y1="265.8" x2="360" y2="265.8"/>
	<line class="st1" x1="0" y1="141.3" x2="0" y2="141.9"/>
	<line class="st1" x1="0" y1="133.4" x2="0" y2="139.1"/>
	<polyline class="st1" points="360,259 360,259 360,263.7 	"/>
	<line class="st1" x1="0" y1="170.5" x2="0" y2="182.7"/>
	<line class="st1" x1="0" y1="161.8" x2="0" y2="168.5"/>
	<line class="st1" x1="0" y1="190.7" x2="0" y2="184.9"/>
	<polyline class="st1" points="0,248.4 0,244.5 0,244.5 	"/>
	<line class="st1" x1="0" y1="291.5" x2="0" y2="287.6"/>
	<line class="st1" x1="0" y1="272.3" x2="0" y2="277"/>
	<line class="st1" x1="0" y1="242.6" x2="0" y2="242.6"/>
	<line class="st1" x1="360" y1="287.6" x2="360" y2="291.5"/>
	<line class="st1" x1="0" y1="263.7" x2="0" y2="259"/>
	<line class="st1" x1="360" y1="159.6" x2="360" y2="159.6"/>
	<line class="st1" x1="360" y1="272.3" x2="360" y2="277"/>
	<line class="st1" x1="0" y1="355" x2="0" y2="357.5"/>
	<path class="st1" d="M121,108c2.8,0,5-2.2,5-5s-2.2-5-5-5s-5,2.2-5,5S118.2,108,121,108z M121,100c1.7,0,3,1.3,3,3s-1.3,3-3,3
		s-3-1.3-3-3S119.3,100,121,100z"/>
	<path class="st1" d="M121,128c4.4,0,8-3.6,8-8s-3.6-8-8-8s-8,3.6-8,8S116.6,128,121,128z M121,114c3.3,0,6,2.7,6,6s-2.7,6-6,6
		s-6-2.7-6-6S117.7,114,121,114z"/>
	<path class="st1" d="M136.6,111.4c1.9-2,1.9-5.2-0.1-7.1s-5.2-1.9-7.1,0.1s-1.9,5.2,0.1,7.1S134.6,113.4,136.6,111.4z M131,105.9
		c1.2-1.1,3.1-1.1,4.2,0.2c1.1,1.2,1.1,3.1-0.1,4.2c-1.2,1.1-3.1,1.1-4.2-0.2C129.8,108.9,129.8,107,131,105.9z"/>
	<path class="st1" d="M121,132c-2.8,0-5,2.2-5,5s2.2,5,5,5s5-2.2,5-5S123.8,132,121,132z M121,140c-1.7,0-3-1.3-3-3s1.3-3,3-3
		s3,1.3,3,3S122.7,140,121,140z"/>
	<path class="st1" d="M129.5,128.5c-1.9,2-1.9,5.2,0.1,7.1s5.2,1.9,7.1-0.1s1.9-5.2-0.1-7.1S131.4,126.5,129.5,128.5z M135,134.3
		c-1.2,1.1-3.1,1.1-4.2-0.1c-1.1-1.2-1.1-3.1,0.2-4.2c1.2-1.1,3.1-1.1,4.2,0.2C136.3,131.3,136.2,133.2,135,134.3z"/>
	<path class="st1" d="M133,120c0,2.8,2.2,5,5,5s5-2.2,5-5s-2.2-5-5-5S133,117.2,133,120z M138,117c1.7,0,3,1.3,3,3s-1.3,3-3,3
		s-3-1.3-3-3S136.3,117,138,117z"/>
	<path class="st1" d="M112.5,111.5c1.9-2,1.9-5.2-0.1-7.1s-5.2-1.9-7.1,0.1s-1.9,5.2,0.1,7.1S110.6,113.5,112.5,111.5z M107,105.7
		c1.2-1.1,3.1-1.1,4.2,0.1s1.1,3.1-0.2,4.2c-1.2,1.1-3.1,1.1-4.2-0.1C105.7,108.7,105.8,106.8,107,105.7z"/>
	<path class="st1" d="M128.9,293.4c1.4-0.5,2.9-0.5,4.2,0l3-5.2c-3.2-1.5-7-1.5-10.2,0L128.9,293.4z M133.2,289.2l-1,1.8
		c-0.7-0.1-1.5-0.1-2.2,0l-1.1-1.8C130.3,288.9,131.7,288.9,133.2,289.2z"/>
	<path class="st1" d="M127.2,294.4l-3-5.2c-2.9,2-4.8,5.3-5.1,8.9h6C125.3,296.6,126.1,295.3,127.2,294.4z M123.6,296h-2.1
		c0.4-1.4,1.2-2.7,2.2-3.8l1.1,1.8C124.2,294.6,123.8,295.3,123.6,296z"/>
	<path class="st1" d="M124.2,308.9l3-5.2c-1.1-0.9-1.9-2.2-2.1-3.6h-6h0C119.3,303.6,121.2,306.8,124.2,308.9z M123.6,302
		c0.3,0.7,0.7,1.3,1.1,1.9l-1.1,1.8c-1-1.1-1.7-2.4-2.2-3.8H123.6z"/>
	<path class="st1" d="M112.5,128.5c-2-1.9-5.2-1.9-7.1,0.1s-1.9,5.2,0.1,7.1s5.2,1.9,7.1-0.1S114.5,130.4,112.5,128.5z M111,134.1
		c-1.2,1.1-3.1,1.1-4.2-0.2c-1.1-1.2-1.1-3.1,0.1-4.2c1.2-1.1,3.1-1.1,4.2,0.1C112.2,131.1,112.2,133,111,134.1z"/>
	<path class="st1" d="M109,120c0-2.8-2.2-5-5-5s-5,2.2-5,5s2.2,5,5,5S109,122.8,109,120z M104,123c-1.7,0-3-1.3-3-3s1.3-3,3-3
		s3,1.3,3,3S105.7,123,104,123z"/>
	<path class="st1" d="M107.5,146.8l-1.6,6l5.7,2.1l2.6-5.6c1.1,0.3,2.2,0.4,3.3,0.6l0.5,6.2h6l0.5-6.2c1.1-0.1,2.2-0.3,3.3-0.6
		l2.6,5.6l5.7-2.1l-1.6-6c1-0.5,2-1.1,2.9-1.7l4.4,4.4l4.6-3.9l-3.5-5c0.8-0.8,1.5-1.7,2.2-2.6l5.5,2.6l3-5.2l-5-3.5
		c0.5-1,0.9-2.1,1.2-3.2l6,0.5l1.1-5.9l-5.8-1.5c0.1-1.2,0.1-2.3,0-3.5l5.8-1.5l-1.1-5.9l-6,0.5c-0.3-1.1-0.7-2.2-1.2-3.2l5-3.5
		l-3-5.2l-5.5,2.6c-0.7-0.9-1.4-1.8-2.2-2.6l3.5-5l-4.6-3.9l-4.4,4.4c-0.9-0.6-1.9-1.2-2.9-1.7l1.6-6l-5.7-2.1l-2.6,5.6
		c-1.1-0.2-2.2-0.4-3.3-0.6L124,84h-6l-0.5,6.2c-1.1,0.1-2.2,0.3-3.3,0.6l-2.6-5.6l-5.7,2.1l1.6,6c-1,0.5-2,1.1-3,1.7l-4.3-4.4
		l-4.6,3.9l3.5,5c-0.8,0.8-1.5,1.7-2.2,2.6l-5.5-2.6l-3,5.2l5,3.5c-0.5,1-0.9,2.2-1.2,3.2l-6-0.5l-1,5.9l5.8,1.5
		c-0.1,1.2-0.1,2.3,0,3.5l-5.8,1.5l1,5.9l6-0.5c0.3,1.1,0.7,2.2,1.2,3.2l-5,3.5l3,5.2l5.5-2.6c0.7,0.9,1.4,1.8,2.2,2.6l-3.5,5
		l4.6,3.9l4.4-4.4C105.5,145.8,106.5,146.3,107.5,146.8z M100,146.8l-1.8-1.5l3.5-5c-1.6-1.5-2.9-3.1-4.1-4.9l-5.5,2.6l-1.2-2l5-3.5
		c-1-1.9-1.7-3.9-2.2-6l-6,0.6l-0.4-2.3l5.9-1.6c-0.2-2.1-0.2-4.3,0-6.4l-5.9-1.5l0.4-2.3l6,0.6c0.5-2.1,1.2-4.1,2.2-6l-5-3.5l1.2-2
		l5.5,2.6c1.2-1.8,2.6-3.4,4.1-4.9l-3.5-5l1.8-1.5l4.3,4.3c1.7-1.3,3.6-2.4,5.6-3.2l-1.6-5.8l2.2-0.8l2.5,5.5c2-0.6,4.1-1,6.3-1.1
		l0.5-6h2.3l0.5,6l0,0c2.2,0.1,4.3,0.5,6.3,1.1l2.5-5.5l2.2,0.8l-1.6,5.8c2,0.9,3.8,1.9,5.6,3.2l4.3-4.3l1.8,1.5l-3.5,5
		c1.6,1.5,2.9,3.1,4.1,4.9l5.5-2.6l1.2,2l-5,3.5c1,1.9,1.7,3.9,2.2,6l6-0.6l0.4,2.3l-5.9,1.5c0.2,2.1,0.2,4.3,0,6.4l5.9,1.5
		l-0.4,2.3l-6-0.5c-0.5,2.1-1.2,4.1-2.2,6l5,3.5l-1.2,2l-5.5-2.6c-1.2,1.8-2.6,3.4-4.1,4.9l3.5,4.9l-1.8,1.5l-4.3-4.3
		c-1.7,1.3-3.6,2.4-5.6,3.2l1.6,5.8l-2.2,0.8l-2.5-5.5c-2,0.6-4.1,1-6.3,1.1l-0.5,6h-2.3l-0.5-6c-2.2-0.1-4.3-0.5-6.3-1.1l-2.5,5.5
		l-2.2-0.8l1.6-5.8c-2-0.9-3.8-1.9-5.6-3.2L100,146.8z"/>
	<path class="st1" d="M137.8,289.1l-3,5.2c1.1,0.9,1.9,2.2,2.1,3.6h6C142.7,294.4,140.8,291.2,137.8,289.1L137.8,289.1L137.8,289.1z
		 M138.4,292.2c1,1.1,1.7,2.4,2.2,3.8h-2.1c-0.3-0.7-0.7-1.4-1.1-1.9L138.4,292.2z"/>
	<path class="st1" d="M42.9,274.5c-4.5,4.9-4.1,12.5,0.8,17s12.5,4.1,17-0.8c4.5-4.9,4.1-12.5-0.8-17
		C54.9,269.2,47.4,269.6,42.9,274.5z M59,289.5c-4,3.8-10.3,3.7-14.1-0.2s-3.7-10.3,0.2-14.1s10.3-3.7,14.1,0.2S62.9,285.6,59,289.5
		z"/>
	<path class="st1" d="M62,268c0,2.2,1.8,4,4,4s4-1.8,4-4c0-2.2-1.8-4-4-4S62,265.8,62,268z M66,266c1.1,0,2,0.9,2,2c0,1.1-0.9,2-2,2
		s-2-0.9-2-2C64,266.9,64.9,266,66,266z"/>
	<path class="st1" d="M38,292c-2.2,0-4,1.8-4,4c0,2.2,1.8,4,4,4s4-1.8,4-4C42,293.8,40.2,292,38,292z M38,298c-1.1,0-2-0.9-2-2
		c0-1.1,0.9-2,2-2s2,0.9,2,2C40,297.1,39.1,298,38,298z"/>
	<path class="st1" d="M31.5,272.9c-4.9-4.5-12.5-4.1-17,0.8s-4.1,12.5,0.8,17s12.5,4.1,17-0.8C36.8,284.9,36.4,277.4,31.5,272.9z
		 M30.7,289.2c-4,3.8-10.3,3.7-14.1-0.2s-3.7-10.3,0.2-14.1c4-3.8,10.3-3.7,14.1,0.2S34.7,285.4,30.7,289.2z"/>
	<path class="st1" d="M91.3,183.4l1.6-1.5l-1-1.7l-2.1,0.6c-0.4-0.6-1-1.1-1.5-1.5l0.6-2.1l-1.7-1l-1.5,1.6
		c-0.7-0.2-1.4-0.5-2.1-0.5L83,175h-2l-0.5,2.1c-0.7,0.1-1.4,0.3-2.1,0.5l-1.5-1.6l-1.7,1l0.6,2.1v0c-0.6,0.4-1.1,1-1.5,1.5
		l-2.1-0.6l-1,1.7l1.6,1.5c-0.2,0.7-0.4,1.4-0.5,2.1L70,186v2l2.1,0.5c0.1,0.7,0.3,1.4,0.5,2.1l-1.6,1.5l1,1.7l2.1-0.6
		c0.5,0.6,1,1.1,1.5,1.5l-0.6,2.1l1.7,1l1.5-1.6c0.7,0.2,1.4,0.4,2.1,0.5L81,199h2l0.5-2.1c0.7-0.1,1.4-0.3,2.1-0.5l1.5,1.6l1.7-1
		l-0.6-2.1c0.6-0.5,1.1-1,1.5-1.5l2.1,0.6l1-1.7l-1.6-1.5c0.3-0.7,0.4-1.4,0.5-2.1L94,188v-2l-2.1-0.5
		C91.8,184.8,91.6,184,91.3,183.4z M89,190.9l-0.1,0.2c-0.7,1.1-1.6,2.1-2.7,2.7l-0.2,0.1c-2.4,1.3-5.3,1.3-7.7,0l-0.2-0.1
		c-1.1-0.7-2.1-1.6-2.7-2.7l-0.1-0.2c-1.3-2.4-1.3-5.3,0-7.7l0.1-0.2c0.7-1.1,1.6-2.1,2.7-2.7l0.2-0.1c2.4-1.3,5.3-1.3,7.7,0
		l0.2,0.1c1.1,0.7,2.1,1.6,2.7,2.7l0.1,0.2C90.3,185.5,90.3,188.5,89,190.9z"/>
	<path class="st1" d="M42,268c0-2.2-1.8-4-4-4s-4,1.8-4,4c0,2.2,1.8,4,4,4S42,270.2,42,268z M36,268c0-1.1,0.9-2,2-2s2,0.9,2,2
		c0,1.1-0.9,2-2,2S36,269.1,36,268z"/>
	<path class="st1" d="M44.5,263.1c4.9,4.5,12.5,4.1,17-0.8c4.5-4.9,4.1-12.5-0.8-17c-4.9-4.5-12.5-4.1-17,0.8
		C39.2,251.1,39.6,258.6,44.5,263.1z M45.3,246.8c4-3.8,10.3-3.7,14.1,0.2s3.7,10.3-0.2,14.1c-4,3.8-10.3,3.7-14.1-0.2
		S41.3,250.6,45.3,246.8z"/>
	<path class="st1" d="M82,181c-3.3,0-6,2.7-6,6s2.7,6,6,6s6-2.7,6-6S85.3,181,82,181z M82,191c-2.2,0-4-1.8-4-4c0-2.2,1.8-4,4-4
		c2.2,0,4,1.8,4,4C86,189.2,84.2,191,82,191z"/>
	<path class="st1" d="M85.6,261.6l-0.7-3.9l-5.3-1.1l-5.2,0.5c-0.4-1.4-0.9-2.8-1.5-4.2l4.3-3l3.3-4.2l-2-3.5l-5.3,0.8l-4.8,2.3
		c-0.9-1.2-1.8-2.3-2.8-3.4l3.1-4.3l1.7-5.1l-3.1-2.6l-4.7,2.5l-3.7,3.8c-1.2-0.8-2.5-1.5-3.8-2.2l1.4-5.1l-0.2-5.4l-3.8-1.4l-3.6,4
		l-2.2,4.8c-1.4-0.3-2.9-0.6-4.4-0.8L42,225l-2-5h-4l-2,5l-0.4,5.2c-1.5,0.2-2.9,0.4-4.4,0.8l-2.2-4.8l-3.6-4l-3.8,1.4l-0.2,5.4
		L21,234c-1.3,0.7-2.6,1.4-3.8,2.2l-3.7-3.8l-4.7-2.5l-3.1,2.6l1.7,5.1l3.1,4.3c-1,1.1-2,2.2-2.8,3.4L2.8,243L0,242.6v1.9l1.8,0.3
		l6.4,3.1c1.4-2.1,3-4,4.8-5.7l-4.1-5.8l-1-3.1l1.2-1l2.9,1.5l5,5.1c2-1.5,4.2-2.7,6.5-3.7l-1.9-6.8l0.1-3.2l1.5-0.5l2.1,2.4
		l2.9,6.5c2.4-0.7,4.9-1.1,7.3-1.3L36,225l1.2-3h1.6l1.2,3l0.5,7.1c2.5,0.2,4.9,0.6,7.3,1.3l2.9-6.5l2.2-2.4l1.5,0.5l0.1,3.2
		l-1.9,6.8c2.3,1,4.5,2.3,6.5,3.7l5-5.1l2.9-1.5l1.2,1l-1,3.1l-4.1,5.8c1.8,1.7,3.4,3.7,4.8,5.7l6.4-3.1l3.2-0.5l0.8,1.4l-2,2.5
		l-5.9,4c1.1,2.2,1.9,4.6,2.5,7l7.1-0.7l3.2,0.7l0.3,1.6l-2.8,1.7l-6.9,1.8c0.3,2.5,0.3,5,0,7.5l6.9,1.8l2.8,1.7l-0.3,1.6l-3.2,0.7
		l-7.1-0.7c-0.6,2.4-1.5,4.8-2.5,7l5.8,4l2,2.5l-0.8,1.4l-3.2-0.5l-6.4-3.1c-1.4,2.1-3,4-4.8,5.7l4.1,5.8l1,3.1l-1.2,1l-2.9-1.5
		l-5-5.1c-2,1.5-4.2,2.7-6.5,3.7l1.9,6.8l-0.1,3.2l-1.5,0.5l-2.1-2.4l-2.9-6.5c-2.4,0.7-4.9,1.1-7.3,1.3L40,311l-1.2,3h-1.6l-1.2-3
		l-0.5-7.1c-2.5-0.2-4.9-0.6-7.3-1.3l-2.9,6.5l-2.1,2.4l-1.5-0.5l-0.1-3.2l1.9-6.8c-2.3-1-4.5-2.3-6.5-3.7l-5,5.1L9,303.8l-1.2-1
		l1-3.1l4.1-5.8c-1.8-1.7-3.4-3.7-4.8-5.7l-6.4,3.1L0,291.5v1.9l2.8-0.4l4.8-2.3c0.9,1.2,1.8,2.3,2.8,3.4l-3.1,4.3l-1.7,5.1l3.1,2.6
		l4.7-2.5l3.7-3.8c1.2,0.8,2.5,1.6,3.8,2.2l-1.4,5.1l0.2,5.4l3.8,1.4l3.6-4l2.2-4.8c1.4,0.3,2.9,0.6,4.4,0.8L34,311l2,5h4l2-5
		l0.4-5.2c1.5-0.2,2.9-0.4,4.4-0.8l2.2,4.8l3.6,4l3.8-1.4l0.2-5.4L55,302c1.3-0.7,2.6-1.4,3.8-2.2l3.7,3.8l4.7,2.5l3.1-2.6l-1.7-5.1
		l-3.1-4.3c1-1.1,2-2.2,2.8-3.4l4.8,2.3l5.3,0.8l2-3.5l-3.3-4.2l-4.3-3c0.6-1.4,1.1-2.7,1.5-4.2l5.2,0.5l5.3-1.1l0.7-3.9l-4.6-2.8
		l-5.1-1.3c0.1-1.5,0.1-3,0-4.4l5.1-1.3L85.6,261.6z"/>
	<path class="st1" d="M38,244c2.2,0,4-1.8,4-4c0-2.2-1.8-4-4-4s-4,1.8-4,4C34,242.2,35.8,244,38,244z M38,238c1.1,0,2,0.9,2,2
		s-0.9,2-2,2s-2-0.9-2-2S36.9,238,38,238z"/>
	<path class="st1" d="M10,272c2.2,0,4-1.8,4-4c0-2.2-1.8-4-4-4s-4,1.8-4,4C6,270.2,7.8,272,10,272z M10,266c1.1,0,2,0.9,2,2
		c0,1.1-0.9,2-2,2s-2-0.9-2-2C8,266.9,8.9,266,10,266z"/>
	<path class="st1" d="M33.1,261.5c4.5-4.9,4.1-12.5-0.8-17c-4.9-4.5-12.5-4.1-17,0.8c-4.5,4.9-4.1,12.5,0.8,17
		C21.1,266.8,28.6,266.4,33.1,261.5z M17,246.5c4-3.8,10.3-3.7,14.1,0.2s3.7,10.3-0.2,14.1s-10.3,3.7-14.1-0.2S13.1,250.4,17,246.5z
		"/>
	<path class="st1" d="M355.4,245.7l3.3,4.2l1.2,0.9l0,0v-8.2l-2.6-0.4L355.4,245.7z M358.6,244.3l1.4,0.2v3.9l-0.2-0.2l-2-2.5
		L358.6,244.3z"/>
	<path class="st1" d="M275,275.8c1.3,3.3,1.3,7.1,0,10.4l33.9,19.5c3.9-7.4,6.1-15.8,6.1-24.8c0-8.6-2.1-17.1-6.1-24.8L275,275.8z
		 M308,303L308,303l-30.6-17.7c0.8-2.8,0.8-5.8,0-8.6L308,259c3.3,6.9,5,14.4,5,22C313,288.6,311.3,296.1,308,303z"/>
	<path class="st1" d="M264,294.9V334c17.5-0.7,33.5-9.9,42.9-24.7L273,289.7C270.8,292.5,267.6,294.3,264,294.9z M304,309.9
		c-8.7,12.7-22.7,20.8-38,22v-35.3c2.8-0.7,5.4-2.2,7.4-4.3L304,309.9z"/>
	<path class="st1" d="M320.9,269.7l7.5-3.4l-1.5-5.8l-8.2,0.8c-0.8-2.2-1.7-4.4-2.7-6.5l6.4-5.2l-3-5.2l-7.7,2.9
		c-1.3-1.9-2.7-3.8-4.2-5.5l4.8-6.7l-4.2-4.2l-6.7,4.8c-1.8-1.5-3.6-2.9-5.5-4.2l2.9-7.7l-5.2-3l-5.2,6.4c-2.1-1-4.2-1.9-6.5-2.7
		l0.8-8.2l-5.8-1.5l-3.4,7.5c-2.3-0.4-4.6-0.7-6.9-0.9L265,213h-6l-1.4,8.2c-2.3,0.2-4.7,0.5-6.9,0.9l-3.4-7.5l-5.8,1.6l0.8,8.2
		c-2.2,0.8-4.4,1.7-6.5,2.7l-5.2-6.4l-5.2,3l2.9,7.7c-1.9,1.3-3.8,2.7-5.5,4.2l-6.7-4.8l-4.2,4.2l4.8,6.7c-1.5,1.8-2.9,3.6-4.2,5.5
		l-7.7-2.9l-3,5.2l6.4,5.2c-1,2.1-1.9,4.2-2.7,6.5l-8.2-0.8l-1.6,5.8l7.5,3.4c-0.4,2.3-0.7,4.6-0.9,6.9L194,278v6l8.2,1.4
		c0.2,2.3,0.5,4.6,0.9,6.9l-7.5,3.4l1.5,5.8l8.2-0.8c0.8,2.2,1.7,4.4,2.7,6.5l-6.4,5.2l3,5.2l7.7-2.9c1.3,1.9,2.7,3.8,4.2,5.5
		l-4.8,6.7l4.2,4.2l6.7-4.8c1.8,1.5,3.6,2.9,5.5,4.2l-2.9,7.7l5.2,3l5.2-6.4c2.1,1,4.2,1.9,6.5,2.7l-0.8,8.2l5.8,1.5l3.4-7.5
		c2.3,0.4,4.6,0.7,6.9,0.9l1.4,8.2h6l1.4-8.2c2.3-0.2,4.7-0.5,6.9-0.9l3.4,7.5l5.8-1.5l-0.8-8.2c2.2-0.8,4.4-1.7,6.5-2.7l5.2,6.4
		l5.2-3l-2.9-7.7c1.9-1.3,3.8-2.7,5.5-4.2l6.7,4.8l4.2-4.2l-4.8-6.7c1.5-1.8,2.9-3.6,4.2-5.5l7.7,2.9l3-5.2l-6.4-5.2
		c1-2.1,1.9-4.2,2.7-6.5l8.2,0.8l1.5-5.8l-7.5-3.4c0.4-2.3,0.7-4.6,0.9-6.9l8.2-1.4v-6l-8.2-1.4C321.7,274.3,321.4,272,320.9,269.7z
		 M328,282.3l-8.1,1.3c-0.1,3.3-0.6,6.5-1.3,9.7l7.4,3.4l-0.7,2.6l-8.1-0.8c-1,3.1-2.3,6.2-3.8,9.1l6.3,5.2l-1.3,2.3l-7.7-2.9
		c-1.8,2.8-3.8,5.4-6,7.8l4.8,6.7l-1.9,1.9l-6.7-4.8c-2.4,2.2-5,4.2-7.8,6l2.9,7.7l-2.3,1.3l-5.2-6.3c-2.9,1.5-5.9,2.8-9.1,3.8
		l0.8,8.1l-2.6,0.7l-3.4-7.4c-3.2,0.7-6.4,1.1-9.7,1.3l-1.4,8.1h-2.7l-1.4-8.1c-3.3-0.1-6.6-0.6-9.7-1.3l-3.4,7.4l-2.6-0.7l0.8-8.1
		c-3.1-1-6.2-2.3-9.1-3.8l-5.2,6.3l-2.3-1.3l2.9-7.7c-2.8-1.8-5.4-3.8-7.8-6l-6.6,4.8l-1.9-1.9l4.8-6.7c-2.2-2.4-4.2-5-6-7.8
		l-7.7,2.9l-1.3-2.3l6.3-5.2c-1.5-2.9-2.8-5.9-3.8-9.1l-8.1,0.8l-0.7-2.6l7.4-3.4c-0.7-3.2-1.1-6.4-1.3-9.7l-8.1-1.4v-2.7l8.1-1.4
		c0.1-3.3,0.6-6.5,1.3-9.7l-7.4-3.4l0.7-2.6l8.1,0.8c1-3.1,2.3-6.2,3.8-9.1l-6.3-5.2l1.3-2.3l7.7,2.9c1.8-2.8,3.8-5.4,6-7.8
		l-4.8-6.6l1.9-1.9l6.6,4.8c2.4-2.2,5-4.2,7.8-6l-2.9-7.6l2.3-1.3l5.2,6.3c2.9-1.5,5.9-2.8,9.1-3.8v0l-0.8-8.1l2.6-0.7l3.4,7.4
		c3.2-0.7,6.4-1.1,9.7-1.3l1.3-8.1h2.7l1.3,8.1c3.3,0.1,6.5,0.6,9.7,1.3l3.4-7.4l2.6,0.7l-0.8,8.1c3.1,1,6.2,2.3,9.1,3.8l5.2-6.3
		l2.3,1.3l-2.9,7.7c2.8,1.8,5.4,3.8,7.8,6l6.7-4.8l1.9,1.9l-4.8,6.6c2.2,2.4,4.2,5,6,7.8l7.7-2.9l1.3,2.3l-6.3,5.2
		c1.5,2.9,2.8,5.9,3.8,9.1l8.1-0.8l0.7,2.6l-7.4,3.4c0.7,3.2,1.1,6.5,1.3,9.7l8.1,1.3V282.3z"/>
	<path class="st1" d="M251,289.7l-33.9,19.6c9.3,14.8,25.4,24.1,42.9,24.7v-39.1C256.4,294.3,253.2,292.5,251,289.7z M258,331.8
		c-15.3-1.2-29.3-9.3-38-22v0l30.6-17.7c2,2.1,4.6,3.6,7.4,4.3V331.8z"/>
	<path class="st1" d="M341.1,50.6l-9.1,5.1l1.8,5.7l10.4-1.2c0.8,1.7,1.6,3.4,2.5,5l-7.1,7.7l3.5,4.8l9.5-4.4c1.2,1.4,2.6,2.7,4,4
		l-4.4,9.5l4.8,3.5l2.8-2.6V85l-3,2.7l-2.3-1.7l4.3-9.4c-2.1-1.8-4-3.7-5.8-5.8l-9.4,4.3l-1.6-2.3l7-7.6c-1.5-2.3-2.7-4.8-3.7-7.3
		l-10.2,1.2l-0.9-2.7l9-5c-0.7-2.6-1.1-5.3-1.3-8.1l-10.1-2v-2.8l10.1-2c0.2-2.7,0.6-5.5,1.3-8.1l-9-5.1l0.9-2.7l10.2,1.2
		c1-2.5,2.3-5,3.7-7.3l-7-7.6l1.6-2.3l9.4,4.3c1.8-2.1,3.7-4,5.8-5.8L357.6,0h-2.2l1.2,2.7c-1.4,1.2-2.7,2.6-4,4l-9.5-4.4l-3.5,4.8
		l7.1,7.7c-0.9,1.6-1.8,3.3-2.5,5l-10.4-1.2l-1.9,5.7l9.1,5.1c-0.4,1.8-0.7,3.7-0.9,5.5L330,37v6l10.2,2
		C340.4,46.9,340.7,48.7,341.1,50.6z"/>
	<path class="st1" d="M271,281c0-5-4-9-9-9c-5,0-9,4-9,9c0,5,4,9,9,9C267,290,271,286,271,281z M262,288c-3.9,0-7-3.1-7-7
		c0-3.9,3.1-7,7-7c3.9,0,7,3.1,7,7C269,284.9,265.9,288,262,288z"/>
	<path class="st1" d="M249,275.8L249,275.8l-33.9-19.6c-3.9,7.4-6.1,15.8-6.1,24.8c0,8.6,2.1,17.1,6.1,24.8l33.9-19.5
		C247.7,282.9,247.7,279.1,249,275.8z M246.6,285.3L216,303c-3.3-6.9-5-14.4-5-22c0-7.6,1.7-15.1,5-22v0l30.6,17.7
		C245.8,279.5,245.8,282.5,246.6,285.3z"/>
	<rect x="360" y="352.3" transform="matrix(0.7071 -0.7071 0.7071 0.7071 -143.6828 357.7491)" class="st1" width="0" height="0"/>
	<polygon class="st1" points="355.3,262.5 352.6,260.8 352.8,259.2 356,258.6 360,259 360,257 356.4,256.6 351.1,257.7 350.4,261.6 
		355,264.5 360,265.8 360,263.7 	"/>
	<path class="st1" d="M356.2,124.2l-7.2,3.5l2.6,8.1c-1.1,0.8-2.1,1.6-3.1,2.5l-7.3-4.4l-5,6.2l5.8,6.3c-0.6,1.1-1.2,2.3-1.7,3.5
		l-8.5-0.7l-1.8,7.8l8,3.1c-0.1,1.3-0.1,2.6,0,3.9l-8,3.1l1.8,7.8l8.5-0.7c0.5,1.2,1.1,2.4,1.7,3.5l-5.8,6.3l5,6.2l7.3-4.4
		c1,0.9,2,1.7,3.1,2.5l-2.6,8.1l7.2,3.5l3.8-5.6h0v-34.6h0l-12.7,6c-1.1-7.2,1.3-14.6,6.4-19.8l6.3,11.4v2.3h0v-29.7L356.2,124.2z
		 M360,182.7c-4.5-2.2-8.2-5.8-10.5-10.2l10.5-2V182.7z M360,141.9l-0.4-0.4l0.4-0.2V141.9z M360,139.1c-1.2,0.5-2.4,1.2-3.6,1.9
		l3.6,3.8v8.3l-5.8-10.5c-7.6,6.2-10.9,16.3-8.4,25.8l14.2-6.6v6.7l-13.3,2.5c2.4,6.2,7.2,11.2,13.3,13.9v5.7l-4.5,6.6l-4.1-2
		l2.5-7.9c-1.9-1.2-3.6-2.5-5.1-4.1l-7.1,4.2l-2.9-3.5l5.7-6.1c-1.2-1.8-2.1-3.8-2.8-5.9l-8.2,0.7l-1-4.5l7.7-3
		c-0.2-2.2-0.2-4.3,0-6.5l-7.7-3l1-4.5l8.2,0.7c0.7-2.1,1.7-4,2.8-5.9l-5.7-6.1l2.9-3.5l7.1,4.2c1.6-1.5,3.3-2.9,5.1-4.1l-2.5-7.9
		l4.1-2l4.5,6.6V139.1z"/>
	<path class="st1" d="M3.1,276.7L0,277v2l1.6-0.2c0.4,1.4,0.9,2.8,1.5,4.2L0,285.2v2.4l5.6-3.8C4.5,281.5,3.7,279.2,3.1,276.7z"/>
	<path class="st1" d="M131,303c2.2,0,4-1.8,4-4c0-2.2-1.8-4-4-4c-2.2,0-4,1.8-4,4C127,301.2,128.8,303,131,303z M131,297
		c1.1,0,2,0.9,2,2c0,1.1-0.9,2-2,2s-2-0.9-2-2C129,297.9,129.9,297,131,297z"/>
	<polygon class="st1" points="352.3,353.2 355.4,360 357.6,360 354.8,353.9 357,352.2 360,355 360,352.3 357.2,349.7 	"/>
	<polygon class="st1" points="357.4,293.7 360,293.4 360,291.5 358.6,291.7 357.8,290.3 359.8,287.8 360,287.6 360,285.2 358.8,286 
		355.4,290.3 	"/>
	<path class="st1" d="M260,267.1V228c-17.5,0.7-33.5,9.9-42.9,24.7l33.9,19.6C253.2,269.5,256.4,267.7,260,267.1z M220,252.1
		L220,252.1c8.7-12.7,22.7-20.8,38-22v35.3c-2.8,0.7-5.4,2.2-7.4,4.3L220,252.1z"/>
	<path class="st1" d="M114,295c-2.2,0-4,1.8-4,4c0,2.2,1.8,4,4,4c2.2,0,4-1.8,4-4C118,296.8,116.2,295,114,295z M114,301
		c-1.1,0-2-0.9-2-2c0-1.1,0.9-2,2-2s2,0.9,2,2C116,300.1,115.1,301,114,301z"/>
	<path class="st1" d="M133.1,304.6c-1.4,0.5-2.9,0.5-4.2,0l-3,5.2c3.2,1.5,7,1.5,10.2,0L133.1,304.6z M128.8,308.8l1-1.8
		c0.7,0.1,1.5,0.1,2.2,0l1,1.8C131.7,309.1,130.3,309.1,128.8,308.8z"/>
	<path class="st1" d="M124.5,310.3c-1.9-1.1-4.4-0.4-5.5,1.5c-1.1,1.9-0.4,4.4,1.5,5.5c1.9,1.1,4.4,0.4,5.5-1.5
		C127.1,313.8,126.4,311.4,124.5,310.3z M124.1,314.8c-0.6,0.9-1.8,1.2-2.8,0.6c-0.9-0.6-1.2-1.8-0.6-2.8c0.6-0.9,1.8-1.2,2.8-0.6
		C124.4,312.6,124.7,313.8,124.1,314.8z"/>
	<path class="st1" d="M124.5,287.7c1.9-1.1,2.6-3.6,1.5-5.5c-1.1-1.9-3.6-2.6-5.5-1.5c-1.9,1.1-2.6,3.6-1.5,5.5
		C120.1,288.2,122.6,288.8,124.5,287.7z M121.8,282.4c1-0.5,2.2,0,2.6,1c0.5,1,0,2.2-1,2.7c-1,0.5-2.2,0-2.7-1
		C120.4,284,120.8,282.8,121.8,282.4z"/>
	<path class="st1" d="M137.9,308.9c2.9-2,4.8-5.3,5.1-8.9h-6c-0.2,1.4-1,2.7-2.1,3.6L137.9,308.9L137.9,308.9z M138.4,302h2.1
		c-0.4,1.4-1.2,2.7-2.2,3.8l-1.1-1.8C137.8,303.3,138.2,302.7,138.4,302z"/>
	<path class="st1" d="M137.5,310.3c-1.9,1.1-2.6,3.6-1.5,5.5c1.1,1.9,3.6,2.6,5.5,1.5c1.9-1.1,2.6-3.6,1.5-5.5
		C141.9,309.8,139.4,309.2,137.5,310.3z M140.2,315.6c-1,0.5-2.2,0-2.7-1c-0.5-1,0-2.2,1-2.6c1-0.5,2.2,0,2.7,1
		C141.6,314,141.2,315.2,140.2,315.6z"/>
	<path class="st1" d="M189,356.3c-0.7-0.6-1.4-1.1-2.1-1.6l2.9-7.8l-3.5-2l-5.2,6.4c-0.8-0.4-1.7-0.7-2.5-1l0.8-8.2l-3.9-1l-3.4,7.5
		c-0.9-0.2-1.8-0.3-2.7-0.4L168,340h-4l-1.4,8.1c-0.9,0.1-1.8,0.2-2.7,0.3l-3.4-7.5l-3.9,1l0.8,8.2c-0.8,0.3-1.7,0.7-2.5,1l-5.2-6.4
		l-3.5,2l2.9,7.8c-0.7,0.5-1.4,1.1-2.1,1.6l-6.7-4.8l-2.8,2.8l4.1,5.7v0h56.9l4.1-5.7l-2.8-2.8L189,356.3z M153.6,360
		c2.3-1.2,4.8-2.1,7.4-2.5v2.5H153.6z M171,360v-2.5c2.6,0.5,5.1,1.3,7.4,2.5H171z M192,360h-9.7c-3.9-2.6-8.4-4.4-13.3-4.9v4.9h-6
		v-4.9c-4.8,0.5-9.3,2.2-13.3,4.9H140l-3.9-5.5l0.5-0.5l6.6,4.7c1.4-1.2,2.8-2.4,4.4-3.4l-2.9-7.6l0.6-0.3l5.2,6.3
		c1.6-0.8,3.4-1.6,5.1-2.1l-0.8-8.1l0.6-0.2l3.4,7.4c1.8-0.4,3.6-0.6,5.5-0.7l1.3-8h0.7l1.3,8c1.8,0.1,3.7,0.3,5.5,0.7l3.4-7.4
		l0.6,0.2l-0.8,8.1c1.8,0.6,3.5,1.3,5.1,2.1l5.2-6.3l0.6,0.3l-2.9,7.6c1.6,1,3,2.1,4.4,3.4l6.6-4.7l0.5,0.5L192,360z"/>
	<path class="st1" d="M273,272.3L273,272.3l33.9-19.6c-9.3-14.8-25.4-24.1-42.9-24.7v39.1C267.6,267.7,270.8,269.5,273,272.3z
		 M266,230.1c15.3,1.2,29.3,9.3,38,22l-30.6,17.7c-2-2-4.6-3.5-7.4-4.3V230.1z"/>
	<path class="st1" d="M137.3,326.3l1.9-0.5l0.1-4.3c0.6-0.2,1.2-0.5,1.8-0.7l3,3l1.7-1l-1-4.1c0.5-0.4,1-0.8,1.5-1.2l3.7,2.1
		l1.4-1.4l-2.1-3.7c0.4-0.5,0.8-1,1.2-1.5l4.1,1l1-1.7l-3-3c0.3-0.6,0.5-1.2,0.7-1.8l4.3-0.1l0.5-1.9l-3.6-2.2
		c0.1-0.6,0.2-1.3,0.2-1.9l4.1-1.2v-2l-4.1-1.2c-0.1-0.7-0.1-1.3-0.2-1.9l3.6-2.2l-0.5-1.9l-4.3-0.1c-0.2-0.6-0.5-1.2-0.7-1.8l3-3
		l-1-1.7l-4.1,1c-0.4-0.5-0.8-1-1.2-1.5l2.1-3.7l-1.4-1.4l-3.7,2.1c-0.5-0.4-1-0.8-1.5-1.2l1-4.1l-1.7-1l-3,3
		c-0.6-0.3-1.2-0.5-1.8-0.7l-0.1-4.3l-1.9-0.5l-2.2,3.6c-0.6-0.1-1.3-0.2-1.9-0.2L132,271h-2l-1.2,4.1c-0.7,0-1.3,0.1-1.9,0.2
		l-2.2-3.6l-1.9,0.5l-0.1,4.3c-0.6,0.2-1.2,0.5-1.8,0.7l-3-3l-1.7,1l1,4.1c-0.5,0.4-1,0.8-1.5,1.2l-3.7-2.1l-1.4,1.4l2.1,3.7
		c-0.4,0.5-0.8,1-1.2,1.5l-4.1-1l-1,1.7l3,3c-0.3,0.6-0.5,1.2-0.7,1.8l-4.3,0.1l-0.5,1.9l3.6,2.2c-0.1,0.6-0.2,1.3-0.2,1.9L103,298
		v2l4.1,1.2c0,0.7,0.1,1.3,0.2,1.9l-3.7,2.2l0.5,1.9l4.3,0.1c0.2,0.6,0.5,1.2,0.7,1.8l-3,3l1,1.7l4.1-1c0.4,0.5,0.8,1,1.2,1.5
		l-2.1,3.7l1.4,1.4l3.7-2.1c0.5,0.4,1,0.8,1.5,1.2l-1,4.1l1.7,1l3-3c0.6,0.3,1.2,0.5,1.8,0.7l0.1,4.3l1.9,0.5l2.2-3.7
		c0.6,0.1,1.3,0.2,1.9,0.2l1.2,4.1h2l1.2-4.1c0.7,0,1.3-0.1,1.9-0.2L137.3,326.3z M131,321c-12.2,0-22-9.8-22-22s9.8-22,22-22
		s22,9.8,22,22S143.2,321,131,321z"/>
	<path class="st1" d="M152,299c0-2.2-1.8-4-4-4c-2.2,0-4,1.8-4,4c0,2.2,1.8,4,4,4C150.2,303,152,301.2,152,299z M146,299
		c0-1.1,0.9-2,2-2s2,0.9,2,2c0,1.1-0.9,2-2,2S146,300.1,146,299z"/>
	<path class="st1" d="M141.5,280.8c-1.9-1.1-4.4-0.4-5.5,1.5c-1.1,1.9-0.4,4.4,1.5,5.5c1.9,1.1,4.4,0.4,5.5-1.5
		C144.1,284.4,143.4,281.9,141.5,280.8z M141.3,285.4c-0.6,0.9-1.8,1.2-2.8,0.6c-0.9-0.6-1.2-1.8-0.6-2.8s1.8-1.2,2.8-0.6
		C141.6,283.2,141.9,284.5,141.3,285.4z"/>
	<polygon class="st1" points="360,279 360,277 356,277.4 352.8,276.8 352.6,275.2 355.3,273.5 360,272.3 360,270.2 355,271.5 
		350.4,274.4 351.1,278.3 356.4,279.4 	"/>
	<path class="st1" d="M238,172v6c5.5-0.1,10.8-1.6,15.6-4.2l-3-5.2C246.7,170.7,242.4,171.8,238,172z M240,175.9v-2
		c3.4-0.3,6.7-1.2,9.8-2.6l1,1.7C247.4,174.6,243.8,175.5,240,175.9z"/>
	<path class="st1" d="M208,144h-6c0.1,5.5,1.6,10.8,4.2,15.6l5.2-3C209.3,152.7,208.2,148.4,208,144z M204.1,146h2
		c0.3,3.4,1.2,6.7,2.6,9.8l-1.7,1C205.4,153.4,204.5,149.8,204.1,146z"/>
	<path class="st1" d="M220.4,173.8c4.8,2.6,10.2,4,15.6,4.2v-6c-4.4-0.1-8.7-1.3-12.6-3.4L220.4,173.8z M234,173.9v2
		c-3.7-0.3-7.4-1.3-10.8-2.9l1-1.7C227.3,172.6,230.6,173.5,234,173.9z"/>
	<polygon class="st1" points="220.4,173.8 220.4,173.8 220.4,173.8 	"/>
	<path class="st1" d="M212.4,158.4l-5.2,3c2.9,4.7,6.8,8.6,11.4,11.4l3-5.2C217.9,165.3,214.7,162.1,212.4,158.4z M218,170
		c-3.1-2.2-5.8-4.9-7.9-7.9l1.7-1c2,2.8,4.4,5.2,7.2,7.2L218,170z"/>
	<polygon class="st1" points="267.8,159.6 267.8,159.6 267.8,159.6 	"/>
	<path class="st1" d="M252.4,167.6l3,5.2h0c4.7-2.9,8.6-6.8,11.4-11.4l-5.2-3C259.3,162.1,256.1,165.3,252.4,167.6z M264,162
		c-2.2,3.1-4.9,5.8-7.9,7.9l-1-1.7c2.8-2,5.2-4.4,7.2-7.2L264,162z"/>
	<path class="st1" d="M253.6,112.2c-4.8-2.6-10.2-4-15.6-4.2v6c4.4,0.1,8.7,1.3,12.6,3.4L253.6,112.2z M240,112.1v-2
		c3.8,0.3,7.4,1.3,10.8,2.9h0l-1,1.7C246.7,113.3,243.4,112.5,240,112.1z"/>
	<path class="st1" d="M262.6,156.6l5.2,3c2.6-4.8,4-10.2,4.2-15.6h-6C265.9,148.4,264.7,152.7,262.6,156.6z M269.9,146
		c-0.3,3.7-1.3,7.4-2.9,10.8h0l-1.7-1c1.4-3.1,2.3-6.4,2.6-9.8H269.9z"/>
	<polygon class="st1" points="220.4,112.2 220.4,112.2 220.4,112.2 	"/>
	<path class="st1" d="M2.2,264.3L0,263.7v2.1l0.1,0c-0.1,1.5-0.1,3,0,4.4l-0.1,0v2.1l2.2-0.6C1.9,269.2,1.9,266.8,2.2,264.3z"/>
	<path class="st1" d="M261.6,127.6l5.2-3c-2.9-4.7-6.8-8.6-11.4-11.4l-3,5.2C256.1,120.7,259.3,123.9,261.6,127.6z M256,116
		c3.1,2.2,5.8,4.9,7.9,7.9l-1.7,1c-2-2.8-4.4-5.2-7.2-7.2L256,116z"/>
	<path class="st1" d="M266,142h6c-0.1-5.5-1.6-10.8-4.2-15.6l-5.2,3C264.7,133.3,265.8,137.6,266,142z M269.9,140h-2
		c-0.3-3.4-1.2-6.7-2.6-9.8l1.7-1C268.6,132.6,269.5,136.2,269.9,140z"/>
	<path class="st1" d="M360,50.4l-5.5,3.2c-3.3-8.7-3.3-18.4,0-27.1l5.5,3.2c0-0.4,0-2.3,0-2.3l-6.5-3.7c-2.3,5.2-3.5,10.8-3.5,16.4
		c0,5.7,1.2,11.3,3.5,16.4l6.5-3.7C360,52.7,360,50.8,360,50.4z"/>
	<path class="st1" d="M304.3,103.8l0.6,1.9l4.3-0.5c0.2,0.4,0.5,0.7,0.8,1.1l-1.8,3.9l1.6,1.2l3.2-2.9c0.4,0.2,0.8,0.3,1.2,0.4
		l0.8,4.2h2l0.8-4.2c0.4-0.1,0.8-0.2,1.2-0.4l3.1,2.9l1.6-1.2l-1.8-3.9c0.3-0.3,0.5-0.7,0.8-1.1l4.3,0.5l0.6-1.9l-3.8-2.1
		c0-0.4,0-0.9,0-1.3l3.8-2.1l-0.6-1.9l-4.3,0.5c-0.2-0.4-0.5-0.7-0.8-1.1l1.8-3.9l-1.6-1.2l-3.1,2.9c-0.4-0.2-0.8-0.3-1.2-0.4
		L317,89h-2l-0.8,4.2c-0.4,0.1-0.9,0.2-1.2,0.4l-3.2-2.9l-1.6,1.2l1.8,3.9c-0.3,0.3-0.5,0.7-0.8,1.1l-4.3-0.5l-0.6,1.9l3.8,2.1
		c0,0.4,0,0.9,0,1.3L304.3,103.8z M316,96c2.8,0,5,2.2,5,5s-2.2,5-5,5s-5-2.2-5-5S313.2,96,316,96z"/>
	<circle class="st1" cx="271" cy="53" r="2"/>
	<path class="st1" d="M360,13.5c-0.9,1-1.7,2-2.5,3.1l2.5,1.4V13.5z"/>
	<path class="st1" d="M360,61.9l-2.5,1.4c0.8,1.1,1.6,2.1,2.5,3.1V61.9z"/>
	<path class="st1" d="M236,114v-6c-5.5,0.2-10.8,1.6-15.6,4.2l3,5.2C227.3,115.3,231.6,114.1,236,114z M234,110.1v2
		c-3.4,0.3-6.7,1.2-9.8,2.6l-1-1.7C226.6,111.4,230.3,110.5,234,110.1z"/>
	<circle class="st1" cx="282" cy="42" r="2"/>
	<path class="st1" d="M243.5,47.3l-3.7,2l0.5,1.9l4.2-0.1c0.4,1,0.8,2.1,1.3,3l-3,2.9l1,1.7l4-1.1c0.6,0.9,1.3,1.8,2,2.6l-2.2,3.6
		l1.4,1.4l3.6-2.2c0.8,0.7,1.7,1.4,2.6,2l-1.2,4l1.7,1l2.9-3c1,0.5,2,0.9,3,1.3l-0.1,4.2l1.9,0.5l2-3.7c1.1,0.2,2.2,0.4,3.3,0.4
		l1,4.1h2l1-4.1c1.1-0.1,2.2-0.2,3.3-0.4l2,3.7l1.9-0.5l-0.1-4.2c1-0.4,2.1-0.8,3-1.3l2.9,3l1.7-1l-1.1-4c0.9-0.6,1.8-1.3,2.6-2
		l3.6,2.2l1.4-1.4l-2.1-3.6c0.7-0.8,1.4-1.7,2-2.6l4,1.2l1-1.7l-3-2.9c0.5-1,0.9-2,1.3-3l4.2,0.1l0.5-1.9l-3.7-2
		c0.2-1.1,0.4-2.2,0.4-3.3l4.1-1v-2l-4.1-1c-0.1-1.1-0.2-2.2-0.4-3.3l3.7-2l-0.5-1.9l-4.2,0.1c-0.4-1-0.8-2.1-1.3-3l3-2.9l-1-1.7
		l-4,1.2c-0.6-0.9-1.3-1.8-2-2.6l2.2-3.6l-1.4-1.4l-3.6,2.2c-0.8-0.7-1.7-1.4-2.6-2l1.2-4l-1.7-1l-2.9,3c-1-0.5-2-0.9-3-1.3l0.1-4.2
		l-1.9-0.5l-2,3.7c-1.1-0.2-2.2-0.3-3.3-0.4l-1-4.1h-2l-1,4.1c-1.1,0.1-2.2,0.2-3.3,0.4l-2-3.7l-1.9,0.5l0.1,4.2h0l0,0
		c-1,0.4-2.1,0.8-3,1.3l-2.9-3l-1.7,1l1.1,4c-0.9,0.6-1.8,1.3-2.6,2l-3.6-2.2l-1.4,1.4l2.1,3.6c-0.7,0.8-1.4,1.7-2,2.6l-4-1.2
		l-1,1.7l3,2.9c-0.5,1-0.9,2-1.3,3l-4.2-0.1l-0.5,1.9l3.7,2c-0.2,1.1-0.3,2.2-0.4,3.3l-4.1,1v2l4.1,1
		C243.2,45.1,243.3,46.2,243.5,47.3z M271,16c14.4,0,26,11.6,26,26s-11.6,26-26,26c-14.4,0-26-11.6-26-26S256.6,16,271,16z"/>
	<path class="st1" d="M271,59c9.4,0,17-7.6,17-17s-7.6-17-17-17s-17,7.6-17,17S261.6,59,271,59z M271,27c8.3,0,15,6.7,15,15
		c0,8.3-6.7,15-15,15c-8.3,0-15-6.7-15-15C256,33.7,262.7,27,271,27z"/>
	<path class="st1" d="M211.4,129.4l-5.2-3c-2.6,4.8-4,10.2-4.2,15.6h6C208.1,137.6,209.3,133.3,211.4,129.4z M204.1,140
		c0.3-3.7,1.3-7.4,2.9-10.8l1.7,1c-1.4,3.1-2.3,6.4-2.6,9.8H204.1z"/>
	<polygon class="st1" points="206.2,126.4 206.2,126.4 206.2,126.4 	"/>
	<circle class="st1" cx="271" cy="31" r="2"/>
	<path class="st1" d="M271,49c3.9,0,7-3.1,7-7s-3.1-7-7-7c-3.9,0-7,3.1-7,7S267.1,49,271,49z M271,37c2.8,0,5,2.2,5,5s-2.2,5-5,5
		s-5-2.2-5-5S268.2,37,271,37z"/>
	<circle class="st1" cx="260" cy="42" r="2"/>
	<path class="st1" d="M224,143c0,7.2,5.8,13,13,13s13-5.8,13-13s-5.8-13-13-13S224,135.8,224,143z M237,132c6.1,0,11,4.9,11,11
		s-4.9,11-11,11s-11-4.9-11-11S230.9,132,237,132z"/>
	<path class="st1" d="M207.2,124.6l5.2,3c2.3-3.7,5.5-6.9,9.2-9.2l-3-5.2C214,116.1,210.1,120,207.2,124.6z M218,116L218,116l1,1.7
		c-2.8,2-5.2,4.4-7.2,7.2l-1.7-1C212.2,120.9,214.9,118.2,218,116z"/>
	<path class="st1" d="M2.9,158.3L0,153.1v4.1l0.7,1.2c-0.1,0.3-0.2,0.7-0.3,1L0,159.6v2.2l2.1-1C2.2,159.9,2.5,159.1,2.9,158.3z"/>
	<path class="st1" d="M9.8,85.8L8.6,96.1l5.7,1.8l5.1-9.1c1.8,0.4,3.7,0.7,5.5,0.9l2,10.2h6l2-10.2c1.9-0.2,3.7-0.5,5.5-0.9l5.1,9.1
		l5.7-1.8l-1.2-10.4c1.7-0.8,3.4-1.6,5-2.5l7.7,7.1l4.8-3.5l-4.4-9.5c1.4-1.2,2.7-2.6,4-3.9l9.5,4.4l3.5-4.8l-7.1-7.7
		c0.9-1.6,1.8-3.3,2.5-5l10.4,1.2l1.8-5.7l-9.1-5.1c0.4-1.8,0.7-3.7,0.9-5.5L90,43v-6l-10.2-2c-0.2-1.9-0.5-3.7-0.9-5.5l9.1-5.1
		l-1.8-5.7l-10.4,1.2c-0.8-1.7-1.6-3.4-2.5-5l7.1-7.7l-3.5-4.8l-9.5,4.4c-1.2-1.4-2.6-2.7-4-4L64.6,0h-2.2l-1.5,3.3
		C63,5,65,7,66.7,9.1l9.4-4.3L77.8,7l-7,7.6c1.5,2.3,2.7,4.8,3.7,7.3l10.2-1.2l0.9,2.7l-9,5.1c0.7,2.7,1.1,5.4,1.3,8.1l10.1,2v2.8
		l-10.1,2c-0.2,2.7-0.6,5.5-1.3,8.1l9,5l-0.9,2.7L74.5,58c-1,2.5-2.3,5-3.7,7.3l7,7.6l-1.7,2.3l-9.4-4.3C65,73,63,75,60.9,76.7
		l4.3,9.4L63,87.8l-7.6-7c-2.3,1.5-4.8,2.7-7.3,3.7l1.2,10.2l-2.7,0.9l-5.1-9c-2.7,0.7-5.4,1.1-8.1,1.3l-2,10.1h-2.8l-2-10.1
		c-2.8-0.2-5.5-0.6-8.1-1.3l-5.1,9l-2.7-0.9L12,84.5c-2.5-1-5-2.3-7.3-3.7L0,85v2.7l4.8-4.5C6.5,84.2,8.1,85,9.8,85.8z"/>
	<path class="st1" d="M6.4,169.1c-0.8-0.4-1.5-0.9-2.1-1.5L0,168.5v2l3.7-0.7c0.3,0.2,0.5,0.4,0.8,0.6l1.8,14.3
		c-2.2-0.4-4.4-1-6.3-2v2.2v0c2.7,1.2,5.7,1.9,8.6,2L6.4,169.1z"/>
	<path class="st1" d="M8.4,32.1L0,27.3v2.3L6,33c-1.3,4.5-1.3,9.3,0,13.9l-6,3.5v2.3l8.4-4.8C6.5,42.8,6.5,37.2,8.4,32.1z"/>
	<path class="st1" d="M26,79.8V62.7c-5.3-0.9-10.1-3.7-13.6-7.9L0,61.9v4.5C6.7,74,16,78.8,26,79.8z M24,64.3v13.2
		C14.8,76.1,6.4,71.2,0.5,64L12,57.3C15.2,60.7,19.4,63.1,24,64.3z"/>
	<path class="st1" d="M11.3,154.1L23.6,141c-3.9-2.5-8.6-4-13.6-4c-3.4,0-6.8,0.7-10,2.1v2.2c3-1.5,6.4-2.3,10-2.3
		c3.6,0,7.2,0.8,10.4,2.5L10.5,152c-0.3,0-0.7,0-1,0L0,141.9v2.9l8.7,9.3C9.6,154,10.4,154,11.3,154.1z"/>
	<path class="st1" d="M55.2,356.8c-1.6-0.9-3.3-1.8-5-2.5l1.2-10.4l-5.7-1.9l-5.1,9.1c-1.8-0.4-3.7-0.7-5.5-0.9L33,340h-6l-2,10.2
		c-1.9,0.2-3.7,0.5-5.5,0.9l-5.1-9.1l-5.7,1.8l1.2,10.4c-1.7,0.8-3.4,1.6-5,2.5L0,352.3v2.7l4.6,4.3c2.3-1.5,4.8-2.7,7.3-3.7
		l-1.2-10.2l2.7-0.9l5.1,9c2.7-0.7,5.4-1.1,8.1-1.3l2-10.1h2.8l2,10.1c2.8,0.2,5.5,0.6,8.1,1.3l5.1-9l2.7,0.9L48,355.5
		c2.5,1,5,2.3,7.3,3.7l7.6-7l2.3,1.7l-2.8,6.1v0h2.2l3.1-6.8l-4.8-3.5L55.2,356.8z"/>
	<path class="st1" d="M5.6,252.2L0,248.4v2.4l3.1,2.1c-0.6,1.3-1.1,2.7-1.5,4.2L0,256.9v2l3.1,0.3C3.7,256.8,4.5,254.5,5.6,252.2z"
		/>
	<path class="st1" d="M0.2,133.6c2-0.7,4.2-1.2,6.4-1.4l1.2-8.2h4.6l1.2,8.2c2.2,0.2,4.3,0.7,6.3,1.4l4.7-6.9l4.1,2l-2.5,7.9
		c1.9,1.2,3.6,2.5,5.1,4.1l7.1-4.2l2.9,3.5l-5.6,6.1c1.2,1.8,2.1,3.8,2.8,5.9l8.2-0.7l1,4.5l-7.7,3c0.2,2.2,0.2,4.3,0,6.5l7.7,3
		l-1,4.5l-8.2-0.7c-0.7,2.1-1.7,4-2.8,5.9l5.7,6.1l-2.9,3.5l-7.1-4.2c-1.6,1.5-3.3,2.9-5.1,4.1l2.5,7.9l-4.1,2l-4.7-6.9
		c-2,0.7-4.2,1.2-6.3,1.4l-1.2,8.2H7.7l-1.2-8.2c-2.2-0.2-4.3-0.7-6.3-1.4L0,190.7c0,0.4,0,3.5,0,3.5l1-1.5c1.2,0.4,2.5,0.7,3.8,0.9
		L6,202h8l1.2-8.4c1.3-0.2,2.6-0.5,3.8-0.9l4.8,7l7.2-3.5l-2.6-8.1c1.1-0.8,2.1-1.6,3.1-2.5l7.3,4.4l5-6.2l-5.8-6.3
		c0.6-1.1,1.2-2.3,1.7-3.5l8.5,0.7l1.8-7.8l-8-3.1c0.1-1.3,0.1-2.6,0-3.9l8-3.1l-1.8-7.8l-8.5,0.7c-0.5-1.2-1.1-2.4-1.7-3.5l5.8-6.3
		l-5-6.2l-7.3,4.4c-1-0.9-2-1.7-3.1-2.5l2.6-8.1l-7.2-3.5l-4.8,7.1c-1.2-0.4-2.5-0.6-3.8-0.9L14,122H6l-1.2,8.4
		c-1.3,0.2-2.6,0.5-3.8,0.9l-1-1.5c0,0,0,3.2,0,3.5h0l0,0L0.2,133.6z"/>
	<path class="st1" d="M34.2,168.4c2.5-9.5-0.8-19.6-8.4-25.8l-8.7,15.7c0.4,0.8,0.7,1.6,0.8,2.4L34.2,168.4z M26.3,145.8
		c5.2,5.2,7.6,12.5,6.4,19.8v0l-13.1-6.1c-0.1-0.3-0.2-0.7-0.3-1L26.3,145.8z"/>
	<path class="st1" d="M13.6,169.1L11.4,187c9.8-0.5,18.4-6.8,21.9-15.9l-17.6-3.4C15.1,168.2,14.4,168.7,13.6,169.1z M30.5,172.5
		c-3.3,6.5-9.6,11-16.8,12.2l1.8-14.3c0.3-0.2,0.6-0.4,0.8-0.6L30.5,172.5z"/>
	<path class="st1" d="M16,162c0-3.3-2.7-6-6-6s-6,2.7-6,6s2.7,6,6,6S16,165.3,16,162z M6,162c0-2.2,1.8-4,4-4s4,1.8,4,4
		c0,2.2-1.8,4-4,4S6,164.2,6,162z"/>
	<path class="st1" d="M26,17.3V0.2C16,1.2,6.7,6,0,13.5v4.5l12.4,7.2C15.9,21.1,20.7,18.3,26,17.3z M0.5,16C6.4,8.8,14.8,3.9,24,2.5
		v13.3c-4.6,1.1-8.8,3.5-12,6.9L0.5,16z"/>
	<path class="st1" d="M150,201c-6.6,0-12,5.4-12,12c0,6.6,5.4,12,12,12c6.6,0,12-5.4,12-12C162,206.4,156.6,201,150,201z M150,223
		c-5.5,0-10-4.5-10-10s4.5-10,10-10s10,4.5,10,10S155.5,223,150,223z"/>
	<path class="st1" d="M163,52.8V38.7c-5.9-1.2-10.5-5.8-11.7-11.7h-14.1C138.6,40.6,149.4,51.4,163,52.8z M149.8,29
		c1.7,5.4,5.9,9.6,11.2,11.2v10.3c-10.9-2.1-19.5-10.6-21.5-21.5H149.8z"/>
	<path class="st1" d="M130.5,30l-7.5,3.4l1,3.9l8.2-0.8c0.3,0.8,0.7,1.7,1,2.5l-6.4,5.2l2,3.5l7.8-2.9c0.5,0.7,1.1,1.4,1.6,2.1
		l-4.8,6.7l2.8,2.8l6.7-4.8c0.7,0.6,1.4,1.1,2.1,1.6l-2.9,7.8l3.5,2l5.2-6.4c0.8,0.4,1.6,0.7,2.5,1l-0.8,8.2l3.9,1l3.4-7.5
		c0.9,0.2,1.8,0.3,2.7,0.3L164,68h4l1.4-8.2c0.9-0.1,1.8-0.2,2.7-0.3l3.4,7.5l3.9-1l-0.8-8.2c0.8-0.3,1.7-0.7,2.5-1l5.2,6.4l3.5-2
		l-2.9-7.8c0.7-0.5,1.4-1.1,2.1-1.6l6.7,4.8l2.8-2.8l-4.8-6.7c0.6-0.7,1.1-1.4,1.6-2.1l7.8,2.9l2-3.5l-6.4-5.2
		c0.4-0.8,0.7-1.7,1-2.5l8.2,0.8l1-3.9l-7.5-3.4c0.2-0.9,0.3-1.8,0.4-2.7L210,26v-4l-8.2-1.4c-0.1-0.9-0.2-1.8-0.3-2.7l7.5-3.4
		l-1-3.9l-8.2,0.8c-0.3-0.8-0.7-1.7-1-2.5l6.4-5.2l-2-3.5l-7.8,2.9c-0.5-0.7-1.1-1.4-1.6-2.1l0.7-1h-12.2h-3.9H171h-2h-6h-2h-7.4
		h-3.9h0H140v0l0,0h-2.4l0.7,1c-0.6,0.7-1.1,1.4-1.6,2.1l-7.8-2.9l-2,3.5l6.4,5.2c-0.4,0.8-0.7,1.7-1,2.5l-8.2-0.8l-1,3.9l7.5,3.4
		c-0.2,0.9-0.3,1.8-0.3,2.7L122,22v4l8.2,1.4C130.2,28.3,130.4,29.2,130.5,30z M178.4,0c7.4,3.8,12.6,10.8,14.1,19h-10.3
		c-1.7-5.4-5.9-9.6-11.2-11.2V0H178.4z M161,0v7.7c-5.4,1.7-9.6,5.9-11.2,11.2h-10.3c1.5-8.2,6.8-15.2,14.1-19H161z M124,23.7l8-1.4
		c0.1-1.8,0.3-3.7,0.7-5.5l-7.4-3.4l0.2-0.6l8.1,0.8c0.6-1.8,1.3-3.5,2.1-5.1l-6.3-5.2l0.3-0.6l7.6,2.9c1-1.6,2.1-3,3.4-4.4L140,0
		h9.7c-7.1,4.8-11.7,12.5-12.6,21h14.1c1.2-5.9,5.8-10.5,11.7-11.7V0h6v9.3c5.9,1.2,10.5,5.8,11.7,11.7h14.2
		c-0.9-8.5-5.5-16.2-12.6-21h9.7l-0.8,1.2c1.2,1.4,2.4,2.8,3.4,4.4l7.6-2.9l0.3,0.6l-6.3,5.2c0.8,1.6,1.6,3.4,2.1,5.1l8.1-0.8
		l0.2,0.6l-7.4,3.4c0.4,1.8,0.6,3.6,0.7,5.5l8,1.3v0.7l-8,1.3c-0.1,1.9-0.3,3.7-0.7,5.5l7.4,3.4l-0.2,0.6l-8.1-0.8
		c-0.6,1.8-1.3,3.5-2.1,5.1l6.3,5.2l-0.3,0.6l-7.6-2.9c-1,1.6-2.1,3-3.4,4.4l4.7,6.6l-0.5,0.5l-6.6-4.7c-1.4,1.2-2.8,2.4-4.4,3.4
		l2.9,7.6l-0.6,0.3l-5.2-6.3c-1.6,0.8-3.4,1.6-5.1,2.1l0.8,8.1l-0.6,0.2l-3.4-7.4c-1.8,0.4-3.6,0.6-5.5,0.7l-1.3,8h-0.7l-1.4-8
		c-1.9-0.1-3.7-0.3-5.5-0.7l-3.4,7.4l-0.6-0.2l0.8-8.1c-1.8-0.6-3.5-1.3-5.1-2.1l-5.2,6.3l-0.6-0.3l2.9-7.6c-1.6-1-3-2.1-4.4-3.4
		l-6.6,4.7l-0.5-0.5l4.7-6.6c-1.2-1.4-2.4-2.8-3.4-4.4l-7.6,2.9l-0.3-0.6l6.3-5.2c-0.8-1.6-1.6-3.4-2.1-5.1l-8.1,0.8l-0.2-0.6
		l7.4-3.4c-0.4-1.8-0.6-3.6-0.7-5.5l-8-1.3V23.7z"/>
	<path class="st1" d="M166,34c5.5,0,10-4.5,10-10s-4.5-10-10-10s-10,4.5-10,10S160.5,34,166,34z M166,16c4.4,0,8,3.6,8,8s-3.6,8-8,8
		s-8-3.6-8-8S161.6,16,166,16z"/>
	<path class="st1" d="M210,108.1l-3.4-2.3l-3,2.7l1.9,3.6l2.4,3.4c-0.6,0.6-1.2,1.3-1.8,2l-3.7-1.9l-3.8-1.5l-2.3,3.3l2.7,3.1
		l3.1,2.8c-0.4,0.8-0.8,1.5-1.2,2.3l-4-1l-4.1-0.5l-1.4,3.7l3.4,2.4l3.7,2c-0.2,0.8-0.5,1.7-0.6,2.5h-4.2l-4.1,0.5l-0.5,4l3.8,1.5
		l4.1,1c0,0.9,0,1.8,0,2.6l-4.1,1l-3.8,1.5l0.5,4l4.1,0.5l4.2,0c0.2,0.9,0.4,1.7,0.6,2.5l-3.7,2l-3.4,2.4l1.4,3.7l4.1-0.5l4-1
		c0.4,0.8,0.8,1.6,1.2,2.3l-3.1,2.8l-2.7,3.1l2.3,3.3l3.8-1.5l3.7-1.9c0.6,0.7,1.2,1.3,1.8,2l-2.4,3.4l-1.9,3.7l3,2.7l3.4-2.3
		l3.2-2.8c0.7,0.5,1.4,1,2.1,1.5l-1.5,3.9l-1,4l3.5,1.9l2.8-3.1l2.4-3.4c0.8,0.3,1.6,0.6,2.4,0.9l-0.5,4.1v4.1l3.9,1l1.9-3.6
		l1.5-3.9c0.9,0.1,1.7,0.2,2.6,0.3l0.5,4.2l1,4h4l1-4l0.5-4.2c0.9-0.1,1.7-0.2,2.6-0.3l1.5,3.9l1.9,3.7l3.9-1V185l-0.5-4.1
		c0.8-0.3,1.7-0.6,2.5-0.9l2.4,3.4l2.8,3.1l3.5-1.9l-1-4l-1.5-3.9c0.7-0.5,1.4-1,2.2-1.5l3.2,2.8l3.4,2.3l3-2.7l-1.9-3.6l-2.4-3.4
		c0.6-0.6,1.2-1.3,1.8-2l3.7,2l3.8,1.5l2.3-3.3l-2.7-3.1l-3.1-2.8c0.4-0.8,0.8-1.5,1.2-2.3l4,1l4.1,0.5l1.4-3.7l-3.4-2.4l-3.7-2
		c0.2-0.8,0.5-1.7,0.6-2.5h4.2l4.1-0.5l0.5-4l-3.8-1.5l-4.1-1c0-0.9,0-1.8,0-2.6l4.1-1l3.8-1.5l-0.5-4l-4.1-0.5l-4.2,0
		c-0.2-0.9-0.4-1.7-0.6-2.5l3.7-2l3.4-2.4l-1.4-3.7l-4.1,0.5l-4,1c-0.4-0.8-0.8-1.6-1.2-2.3l3.1-2.8l2.7-3.1l-2.3-3.3l-3.9,1.5
		l-3.7,1.9c-0.6-0.7-1.2-1.3-1.8-2l2.4-3.4l1.9-3.6l-3-2.7l-3.4,2.3l-3.2,2.8c-0.7-0.5-1.4-1-2.1-1.5l1.5-3.9l1-4l-3.5-1.9l-2.8,3.1
		l-2.4,3.4c-0.8-0.3-1.6-0.7-2.4-0.9l0.5-4.1v-4.1l-3.9-1l-1.9,3.6l-1.5,3.9c-0.9-0.1-1.7-0.2-2.6-0.3v0L240,99l-1-4h-4l-1,4
		l-0.5,4.2c-0.9,0.1-1.7,0.2-2.6,0.3l-1.5-3.9l-1.9-3.6l-3.9,1v4.1l0.5,4.1c-0.8,0.3-1.6,0.6-2.5,0.9l-2.4-3.4l-2.8-3.1l-3.5,1.9
		l1,4l1.5,3.9c-0.7,0.5-1.5,1-2.1,1.5L210,108.1z M215.7,104.5l-0.5-2l0.9-0.5l1.4,1.5l3.5,5c1.7-0.8,3.5-1.5,5.3-2h0l-0.7-6v-2.1
		l1-0.2l1,1.8l2.2,5.7c1.8-0.4,3.7-0.6,5.6-0.7l0.8-6l0.5-2h1l0.5,2l0.8,6c1.9,0.1,3.8,0.3,5.6,0.7l2.2-5.7l1-1.8l1,0.2v2.1l-0.7,6
		c1.8,0.5,3.6,1.2,5.3,2l3.5-5l1.4-1.5l0.9,0.5l-0.5,2l-2.2,5.7c1.6,1,3.2,2,4.7,3.2l4.6-4l1.7-1.2l0.8,0.7l-1,1.8l-3.5,5
		c1.4,1.3,2.6,2.8,3.8,4.3l5.4-2.8l1.9-0.7l0.6,0.8l-1.3,1.5l-4.5,4.1c1,1.6,1.9,3.3,2.6,5l5.9-1.5l2-0.2l0.4,0.9l-1.7,1.2l-5.4,2.9
		c0.6,1.8,1,3.6,1.4,5.5l6.1,0l2,0.2l0.1,1l-1.9,0.7l-5.9,1.5c0.1,1.9,0.1,3.8,0,5.6l5.9,1.5l1.9,0.7l-0.1,1l-2,0.2l-6.1,0
		c-0.3,1.9-0.8,3.7-1.4,5.5l5.4,2.9l1.7,1.2l-0.4,0.9l-2-0.2l-5.9-1.5c-0.8,1.7-1.6,3.4-2.6,5l4.5,4.1l1.4,1.6l-0.6,0.8l-1.9-0.7
		l-5.4-2.8c-1.2,1.5-2.4,2.9-3.8,4.3l3.5,5l1,1.8l-0.8,0.7l-1.7-1.1l-4.6-4c-1.5,1.2-3,2.3-4.7,3.2l2.2,5.7l0.5,2L258,184l-1.4-1.5
		l-3.5-5c-1.7,0.8-3.5,1.5-5.3,2l0.7,6v2.1l-1,0.2l-1-1.8l-2.2-5.7c-1.9,0.4-3.7,0.6-5.6,0.7l-0.8,6l-0.5,2h-1l-0.5-2l-0.8-6
		c-1.9-0.1-3.8-0.3-5.6-0.7l-2.2,5.7l-1,1.8l-1-0.2v-2.1l0.7-6c-1.8-0.5-3.6-1.2-5.3-2l-3.5,5L216,184l-0.9-0.5l0.5-2l2.2-5.7
		c-1.6-1-3.2-2-4.7-3.2l-4.6,4l-1.7,1.2l-0.8-0.7l1-1.8l3.5-5c-1.4-1.3-2.6-2.8-3.8-4.3l-5.4,2.8l-1.9,0.7l-0.6-0.8l1.3-1.6l4.5-4.1
		c-1-1.6-1.9-3.3-2.6-5l-5.9,1.5l-2,0.2l-0.4-0.9l1.7-1.2l5.4-2.9c-0.6-1.8-1-3.6-1.3-5.5l-6.1,0l-2-0.2l-0.1-1l1.9-0.7l5.9-1.5
		c-0.1-1.9-0.1-3.8,0-5.6l-5.9-1.5l-1.9-0.7l0.1-1l2-0.2l6.1,0c0.3-1.9,0.8-3.7,1.3-5.5l-5.4-2.9l-1.7-1.2l0.4-0.9l2,0.2l5.9,1.5
		c0.8-1.7,1.6-3.4,2.6-5l-4.5-4.1l-1.3-1.6l0.6-0.8l1.9,0.7l5.4,2.8c1.2-1.5,2.4-2.9,3.8-4.3l-3.5-5l-1-1.8l0.8-0.7l1.7,1.1l4.6,4
		c1.5-1.2,3-2.3,4.7-3.2L215.7,104.5z"/>
	<path class="st1" d="M169,52.8c13.6-1.4,24.4-12.2,25.8-25.8h-14.1c-1.2,5.9-5.8,10.5-11.7,11.7V52.8z M171,40.2
		c5.4-1.7,9.6-5.9,11.2-11.2h10.3c-2.1,10.9-10.6,19.5-21.5,21.5V40.2z"/>
	<path class="st1" d="M34,62.7v17.1c11.4-1.1,21.8-7.1,28.5-16.4l-14.9-8.6C44.1,58.9,39.3,61.7,34,62.7z M59.5,64
		C53.6,71.2,45.2,76.1,36,77.5V64.3c4.6-1.1,8.8-3.5,12-6.9L59.5,64z"/>
	<path class="st1" d="M30,50c5.5,0,10-4.5,10-10s-4.5-10-10-10s-10,4.5-10,10S24.5,50,30,50z M30,32c4.4,0,8,3.6,8,8s-3.6,8-8,8
		s-8-3.6-8-8S25.6,32,30,32z"/>
	<path class="st1" d="M16,40c0,7.7,6.3,14,14,14s14-6.3,14-14s-6.3-14-14-14S16,32.3,16,40z M30,28c6.6,0,12,5.4,12,12
		s-5.4,12-12,12s-12-5.4-12-12S23.4,28,30,28z"/>
	<path class="st1" d="M70,40c0-5.7-1.2-11.3-3.5-16.4l-14.9,8.6c1.8,5.1,1.8,10.6,0,15.7l14.9,8.6C68.8,51.3,70,45.7,70,40z
		 M54,33.1l11.5-6.6c3.3,8.7,3.3,18.4,0,27.1L54,46.9C55.3,42.4,55.3,37.6,54,33.1z"/>
	<path class="st1" d="M178.2,189.8l-12.2,5.3c-2.4-2.2-5.3-3.8-8.4-4.9L156,177h-12l-1.5,13.2c-3.1,1-6,2.7-8.4,4.9l-12.2-5.3
		l-6,10.4l10.7,7.9v0c-0.7,3.2-0.7,6.5,0,9.7l-10.7,8l6,10.4l12.2-5.3c2.4,2.2,5.3,3.8,8.4,4.9L144,249h12l1.5-13.2
		c3.1-1,6-2.7,8.4-4.9l12.2,5.3l6-10.4l-10.7-8c0.7-3.2,0.7-6.5,0-9.7l10.7-7.9L178.2,189.8z M171.3,207.3c1,3.7,1,7.6,0,11.3
		l10.3,7.7l-4.2,7.3l-11.8-5.1c-2.7,2.7-6,4.6-9.8,5.6l-1.5,12.8h-8.5l-1.5-12.8c-3.7-1-7.1-2.9-9.8-5.6l-11.8,5.1l-4.2-7.3
		l10.3-7.7c-1-3.7-1-7.6,0-11.3l-10.3-7.7l4.2-7.3l11.8,5.1c2.7-2.7,6-4.6,9.8-5.6l1.5-12.8h8.5l1.5,12.8l0,0c3.7,1,7.1,2.9,9.8,5.6
		l11.8-5.1l4.2,7.3L171.3,207.3z"/>
	<path class="st1" d="M47.6,25.2l14.8-8.6c0,0,0,0,0,0C55.8,7.3,45.4,1.3,34,0.2v17.1C39.3,18.3,44.1,21.1,47.6,25.2z M36,2.5
		C45.2,3.9,53.6,8.8,59.5,16L48,22.7c-3.2-3.3-7.4-5.8-12-7V2.5z"/>
</g>
</svg>
